<?xml version="1.0" encoding="utf-8"?>
<!-- Generator: Adobe Illustrator 28.1.0, SVG Export Plug-In . SVG Version: 6.00 Build 0)  -->
<svg version="1.1" id="Layer_1" xmlns="http://www.w3.org/2000/svg" xmlns:xlink="http://www.w3.org/1999/xlink" x="0px" y="0px"
	 viewBox="0 0 5112 5184" style="enable-background:new 0 0 5112 5184;" xml:space="preserve">
<style type="text/css">
	.st0{fill:#FFFFFF;}
	.st1{fill:#3A3A3A;}
	.st2{fill:none;stroke:#FFFFFF;stroke-width:18.7494;stroke-miterlimit:10;}
	.st3{fill:#3A3A3A;stroke:#FFFFFF;stroke-width:57.0126;stroke-miterlimit:10;}
	.st4{fill:#3A3A3A;stroke:#FFFFFF;stroke-width:17.1821;stroke-miterlimit:10;}
	.st5{fill:#3A3A3A;stroke:#FFFFFF;stroke-width:24.9992;stroke-miterlimit:10;}
</style>
<g>
	<path class="st0" d="M2558.57,2703.12c-1.73-0.02-3.44-0.02-5.14,0.01C2555.15,2703.06,2556.86,2703.07,2558.57,2703.12z"/>
	<path class="st0" d="M2553.43,2703.12c1.73-0.02,3.44-0.02,5.14,0.01C2556.85,2703.06,2555.14,2703.07,2553.43,2703.12z"/>
	<path class="st0" d="M2558.02,1244.26c-1.36,0.29-2.71,0.6-4.03,0.94C2555.32,1244.82,2556.67,1244.51,2558.02,1244.26z"/>
	<path class="st0" d="M2555.61,4208.87c0.29,1.37,0.55,2.74,0.78,4.1C2556.2,4211.57,2555.93,4210.21,2555.61,4208.87z"/>
	<path class="st0" d="M2556.39,4208.87c-0.29,1.37-0.55,2.74-0.78,4.1C2555.8,4211.57,2556.07,4210.21,2556.39,4208.87z"/>
	<g>
		<path class="st1" d="M2877.56,1326.42c0,0,42.04-809.84,325.59-1068.99c0,0-396.97,0-482.04-64.79
			c-58.87-28.11-113.79-28.65-163.28-4.69c-49.49-23.97-104.42-23.42-163.28,4.69c-85.07,64.79-482.04,64.79-482.04,64.79
			c283.55,259.15,325.59,1068.99,325.59,1068.99s-42.03,809.84-325.59,1068.99c0,0,396.97,0,482.04,64.79
			c58.87,28.11,113.79,28.65,163.28,4.69c49.49,23.97,104.42,23.42,163.28-4.69c85.07-64.79,482.04-64.79,482.04-64.79
			C2919.6,2136.26,2877.56,1326.42,2877.56,1326.42z"/>
	</g>
	<g>
		<path class="st1" d="M1422.22,1108.25c64.79,85.07,64.79,482.04,64.79,482.04C1746.16,1306.74,2556,1264.7,2556,1264.7
			s809.84,42.03,1068.99,325.59c0,0,0-396.97,64.79-482.04C3822.24,830.83,3344.74,640.56,2556,697.1
			C1767.26,640.56,1289.76,830.83,1422.22,1108.25z"/>
		<path class="st0" d="M3539.19,1409.44c0,0-126.73-147-236.18-122.5c77.24-15.64,179.02-2.77,218.9,14.66
			c-28.22-22.48-92.21-127.43-220.57-114.35c88.55-11.08,148.01,2.07,211.57,16.95c-34.38-40.38-97.06-101.27-154.9-90.18
			c38.41-8.2,86.62-4.05,124.71,4.35c-47.01-39.03-116.24-82.48-179.71-68.28c77.24-15.64,179.02-2.77,218.9,14.66
			c-28.22-22.48-92.21-127.43-220.57-114.35c88.55-11.08,148.01,2.07,211.57,16.95c-34.38-40.38-97.06-101.27-154.9-90.18
			c63.77-13.61,258.99,104.27,285.54,121.72C3643.55,998.91,3516.43,1172.16,3539.19,1409.44z"/>
		<path class="st0" d="M1563.46,1409.44c0,0,126.73-147,236.18-122.5c-77.24-15.64-179.02-2.77-218.9,14.66
			c28.22-22.48,92.21-127.43,220.57-114.35c-88.55-11.08-148.01,2.07-211.57,16.95c34.38-40.38,97.06-101.27,154.9-90.18
			c-38.41-8.2-86.62-4.05-124.71,4.35c47.01-39.03,116.24-82.48,179.71-68.28c-77.24-15.64-179.02-2.77-218.9,14.66
			c28.22-22.48,92.21-127.43,220.57-114.35c-88.55-11.08-148.01,2.07-211.57,16.95c34.38-40.38,97.06-101.27,154.9-90.18
			c-63.77-13.61-258.99,104.27-285.54,121.72C1459.09,998.91,1586.22,1172.16,1563.46,1409.44z"/>
		<g>
			<path class="st0" d="M2164.06,1185.01L2099.79,903l40.4-9.21l27.54,120.8l49.9-11.37l-27.53-120.8l40.4-9.21l64.28,282.01
				l-40.4,9.21l-28.61-125.56l-49.91,11.38l28.62,125.56L2164.06,1185.01z"/>
			<path class="st0" d="M2304.49,929.91c-1.24-11.57-0.31-22.03,2.78-31.35c3.09-9.32,7.68-17.29,13.79-23.94
				c5.86-6.34,12.74-11.43,20.64-15.27c7.9-3.84,16.02-6.2,24.37-7.09c8.34-0.89,16.78-0.29,25.32,1.79
				c8.53,2.09,16.46,5.6,23.8,10.54c7.09,5.24,13.13,12.08,18.13,20.53c4.98,8.46,8.09,18.48,9.33,30.06l16.2,151.88
				c1.29,12.12,0.38,22.7-2.74,31.75c-3.12,9.05-7.61,16.74-13.47,23.09c-6.1,6.64-13.1,11.89-21,15.72
				c-7.91,3.84-16.03,6.2-24.38,7.09c-8.35,0.89-16.78,0.29-25.32-1.79c-8.53-2.08-16.34-5.75-23.44-10.98
				c-7.34-4.94-13.48-11.5-18.43-19.69c-4.96-8.18-8.09-18.34-9.38-30.46L2304.49,929.91z M2361.88,1077.4
				c1.06,9.97,4.6,17.01,10.63,21.13c6.02,4.13,12.8,5.79,20.34,4.98c7.54-0.8,13.82-3.85,18.84-9.16c5.01-5.3,6.99-12.93,5.93-22.9
				l-16.2-151.88c-1.06-9.96-4.61-17-10.63-21.13c-6.02-4.12-12.8-5.79-20.34-4.98c-7.54,0.8-13.82,3.86-18.84,9.16
				c-5.02,5.3-6.99,12.94-5.93,22.9L2361.88,1077.4z"/>
			<path class="st0" d="M2637.01,845.33l-2.53,224.23c-0.1,9.48-1.9,18.2-5.37,26.14c-3.48,7.95-8.36,15.01-14.66,21.16
				c-6.3,6.16-13.52,10.96-21.69,14.38c-8.17,3.42-16.86,5.09-26.06,4.99c-9.2-0.1-17.78-1.96-25.73-5.57
				c-7.95-3.61-15-8.56-21.17-14.86c-6.16-6.3-10.95-13.46-14.38-21.49c-3.43-8.02-5.09-16.78-4.99-26.26l2.52-224.23l41.43,0.47
				l-2.47,220.17c-0.12,10.3,2.24,17.9,7.06,22.83c4.82,4.93,10.88,7.43,18.19,7.52s13.44-2.29,18.36-7.11
				c4.93-4.82,7.45-12.37,7.57-22.66l2.47-220.17L2637.01,845.33z"/>
			<path class="st0" d="M2827.91,947.48l-41.16-4.78l1.08-9.28c1.09-9.41-0.18-17.81-3.82-25.19c-3.64-7.38-10.71-11.67-21.2-12.89
				c-5.65-0.66-10.35-0.11-14.09,1.63c-3.75,1.75-6.89,4.11-9.42,7.09c-2.56,3.25-4.5,7.04-5.82,11.39
				c-1.32,4.34-2.26,8.94-2.83,13.78c-0.66,5.65-1,10.38-1.04,14.2c-0.04,3.81,0.59,7.29,1.86,10.44c1.27,3.15,3.32,5.98,6.16,8.49
				c2.84,2.51,6.82,5.16,11.96,7.93l30.02,16.17c8.74,4.56,15.66,9.53,20.76,14.89c5.1,5.36,8.91,11.33,11.42,17.89
				c2.2,6.8,3.38,14.37,3.5,22.7c0.12,8.33-0.43,17.74-1.65,28.23c-1.41,12.11-3.92,23.2-7.55,33.27
				c-3.63,10.08-8.55,18.43-14.78,25.07c-6.52,6.88-14.61,11.94-24.25,15.17c-9.66,3.24-21.07,4.1-34.25,2.56
				c-9.95-1.16-19.04-3.99-27.23-8.48c-8.21-4.5-15.04-10.2-20.5-17.11c-5.47-6.9-9.55-14.67-12.22-23.3
				c-2.68-8.62-3.45-17.78-2.33-27.47l1.78-15.33l41.16,4.79l-1.5,12.91c-0.88,7.53,0.56,14.58,4.28,21.15
				c3.74,6.57,10.85,10.46,21.34,11.68c6.99,0.81,12.55,0.44,16.69-1.13c4.14-1.57,7.49-4.1,10.09-7.62
				c2.58-3.52,4.39-7.87,5.4-13.07c1.01-5.2,1.9-11.03,2.64-17.48c0.88-7.53,1.33-13.75,1.35-18.65c0.02-4.91-0.6-8.93-1.87-12.08
				c-1.54-3.18-3.75-5.89-6.62-8.13c-2.87-2.24-6.74-4.74-11.6-7.49l-28.05-15.53c-16.91-9.33-27.7-20.33-32.36-33
				c-4.66-12.67-5.94-28.02-3.84-46.05c1.25-10.75,3.92-20.81,8.01-30.15c4.08-9.34,9.49-17.16,16.22-23.47
				c6.46-6.34,14.31-11.08,23.53-14.24c9.23-3.15,19.9-4.03,32.01-2.62c10.22,1.19,19.35,4.16,27.38,8.91
				c8.04,4.75,14.79,10.58,20.26,17.49c10.86,14.35,15.34,29.87,13.4,46.55L2827.91,947.48z"/>
			<path class="st0" d="M2832.2,1157.63l64.15-282.03l120.42,27.39l-8.64,38.03l-80.02-18.2l-18.83,82.79l69.71,15.86l-8.65,38.03
				l-69.72-15.86l-18.83,82.79l80.02,18.2l-9.19,40.4L2832.2,1157.63z"/>
		</g>
	</g>
	<g>
		<path class="st0" d="M3253.61,1508.45H2556h-697.61c0,0-133.72,327.1-613.39,332.88c0,1279.75,863.33,2492.92,1311,2492.92
			c447.67,0,1311-1213.17,1311-2492.92C3387.32,1835.55,3253.61,1508.45,3253.61,1508.45z"/>
		<path class="st0" d="M2556,4271.74c-198.92,0-515.33-302.52-769.46-735.68c-293.58-500.4-466.42-1092.66-478.37-1634.8
			c230.93-16.41,379.12-106.02,464.78-181.7c63.38-55.98,102.37-112.47,123.38-148.61h1319.33
			c21.01,36.14,60.01,92.63,123.38,148.61c85.67,75.68,233.86,165.29,464.79,181.7c-11.94,542.14-184.78,1134.4-478.37,1634.8
			C3071.33,3969.22,2754.92,4271.74,2556,4271.74z"/>
		<g>
			<g>
				<path class="st1" d="M3253.61,1508.45H2556h-697.61c0,0-133.72,327.1-613.39,332.88c0,1279.75,863.33,2492.92,1311,2492.92
					s1311-1213.17,1311-2492.92C3387.33,1835.55,3253.61,1508.45,3253.61,1508.45z M2861.52,4056.79
					c-177.14,164.63-280.7,177.44-308.23,177.44c-27.53,0-131.09-12.8-308.23-177.44c-140.75-130.81-282.94-315.5-411.21-534.11
					c-285.2-486.12-455.52-1059.77-473.56-1588.56c338.16-38.94,502.58-223.93,568.61-325.64h1248.78
					c66.03,101.71,230.44,286.71,568.61,325.64c-18.04,528.78-188.37,1102.43-473.56,1588.56
					C3144.47,3741.29,3002.27,3925.97,2861.52,4056.79z"/>
				<path class="st1" d="M3115.28,1708.5H1996.71c-84.52,108.58-242.32,250.62-513.1,307.75
					c32.07,489.72,196.5,1017.54,456.91,1461.39c123.43,210.41,259.24,387.18,392.73,511.24
					c134.96,125.44,209.99,142.93,222.75,145.09c12.76-2.15,87.79-19.65,222.76-145.09c133.49-124.06,269.3-300.85,392.74-511.23
					c260.41-443.89,424.83-971.69,456.9-1461.41C3357.61,1959.12,3199.81,1817.08,3115.28,1708.5z"/>
			</g>
			
				<rect x="1932.01" y="2249.94" transform="matrix(-1.836970e-16 1 -1 -1.836970e-16 4885.0474 -285.1743)" class="st0" width="1306.21" height="100"/>
			<rect x="1596.12" y="2871.79" class="st0" width="1916.4" height="100"/>
		</g>
	</g>
	<g>
		<g>
			<g>
				<path class="st1" d="M4421.63,2856.15c-5.14,15.81-55.44,86.83-69.4,93.94c-13.96,7.11,3.28,49.62,8.59,57.17
					c5.31,7.55,44.03,31.8,61.8,66.71s26.97,96.17,14.17,183.27c-12.8,87.11,36.83,167.34,36.83,167.34s160.26,438.59-346.33,563.14
					s-1014.13-139.65-1014.13-139.65s435.39-784.93,479.61-807.44c44.22-22.51,80.5-7.66,80.5-7.66l23.84-73.29
					c0,0-21.68-0.62-46.02,1.17c-24.34,1.79-39.98-13.01-39.98-13.01s-32.65-72.76-37.13-89.31
					c-13.42-35.89,11.53-58.84,26.06-67.71c14.54-8.86,6.2-31,2.65-37.98s9.1-33.94,18.85-40.51c9.75-6.57,2.9-20.38-1.84-29.69
					s18.98-40.43,26.48-46.04c7.5-5.61,7.07-21.73,7.07-21.73s-26.1-32.73-33.17-40.86s15.51-35.74,15.51-35.74l138.44-156.93
					c0,0-7.07-8.12-12.95-13.92c-5.88-5.8,3.27-27.37,3.27-27.37l49.17-64.29c17.71-303.04-33.57-611.02-33.57-611.02
					c6.14,40.84,211.01,187.11,234.3,204.39c348.01,208.37,315.83,199.85,356.34,230.51c163.74,111.53,287.05,365.26,300.74,400.79
					c-104.97,101.79-134.91,241.58-75.2,261.01s113.16-180.69,113.16-180.69c102.36,264.4,220.69,396.11,220.69,396.11
					S4861.19,2991.38,4421.63,2856.15z"/>
				<path class="st0" d="M4150.97,2900.15c0,0-187.7,129.25-380.98,132.4c-12.04,31.04-11.06,33.99-11.06,33.99l67.4,85.32
					l-67.2,236.42c0,0-2.69,32.14,33.49,28.37c36.18-3.77,355.06-82.57,399.33-260.43
					C4194.07,3125.85,4181.78,2960.66,4150.97,2900.15z"/>
				<path class="st0" d="M3676.95,2602.23c8.82,8.7,61.1,50.95,61.1,50.95s-25.69,1.35-36.18,3.77c-10.49,2.41-20.9,16.5-20.9,16.5
					s-13.88,18.79,3.15,32.1c17.03,13.31,63.39,43.93,63.39,43.93s-37.37,1.44-78.33-9.95c-3.43,10.54-0.93,32.71,21.41,53.57
					c-10.49,2.41-64.68,19.74-64.68,19.74s-12.17,13.52-10.33,25.77s26.76,66.97,26.76,66.97s16.96,15.23,38,12.36
					c21.05-2.86,76.06,13.09,349.94-70.65c10.81-39.21,30.15-92.67,30.15-92.67s9.25,49.17,23.3,53.74
					c14.05,4.57,53.13-2.14,82.39-74.18c7.43-22.83,22.73-87.76-13.09-100.91c-26.26-10.94-36.67,3.15-88.64,85.29
					c0,0,5.04-111-14.49-146.48c10.94-21.69,19.64-30.51,19.64-30.51s-46.78-89.01-167.97-211.95c-8.7,8.82-44.62,47.63-44.62,47.63
					s82.35,81.17,85.46,107.42c-3.34,22.22-6.73,38.59-6.73,38.59l28.73,96.74c0,0-59.6-85.42-114.17-120.65
					c-16.59-32.58-34.97-71.58-34.97-71.58l-132.73,139.37C3682.53,2567.15,3668.12,2593.53,3676.95,2602.23z M3804.02,2569.78
					c14.49-14.7,33.39-66.82,33.39-66.82s-13.67,47.99-17.01,70.2c-3.34,22.22,39.97,115.93,39.97,115.93
					c33.66,51.73-59.88,118.4-59.88,118.4s12.61-32.8,18.9-52.11s-27.67-111.93-30.84-138S3789.53,2584.48,3804.02,2569.78z"/>
				<path class="st0" d="M3208.33,3780.04l-26.42,93.03c0,0,370.87,115.82,713.49,89.4c292.3-38.9,585.3-43.3,558.57-510.3
					c-15.97-28.5-144.21-317.82-144.21-317.82s-39.18-88.49-47.92-85.5c-8.74,2.98-20.9,16.5-17.75,48.6
					c3.15,32.1,48.87,136.3-94.08,235.45c-25.03,11.28-549.21,207.78-761.62,311.52
					C3336.61,3672.24,3235.31,3715.02,3208.33,3780.04z M3736.83,3534.45c0,0,287.8-96.69,301.19-102.04
					c158.52-45.53,197.15-32.96,228.76-22.68c52.68,17.14,57.55,43.97,49.51,62.71c-8.04,18.75-39.57,20.14-39.57,20.14
					c-15.19-1.06-25.16-6.24-44.47-12.53C4050.84,3428.81,3736.83,3534.45,3736.83,3534.45z"/>
			</g>
			<path class="st0" d="M4496.41,2733.2c0,0-86.33-115.95-179.36-116.56c65.45,1.51,147.61,25.52,178.3,43.06
				c-20.47-19.08-60.32-97.82-167.51-108.82c74.2,6.24,121.52,23.96,171.99,43.44c-23.36-31.78-67.5-81.37-116.44-82.91
				c32.6,0.48,71.76,10.57,102.07,21.9c-33.91-32.82-85.57-71.95-139.52-72.3c65.45,1.51,147.61,25.52,178.3,43.06
				c-20.47-19.08-60.32-97.82-167.51-108.82c74.2,6.24,121.52,23.96,171.99,43.44c-23.36-31.78-67.5-81.37-116.44-82.91
				c54.12,0.79,200.35,108.06,220.07,123.58C4632.33,2479.37,4506.62,2573.8,4496.41,2733.2z"/>
		</g>
		<path class="st2" d="M3813.53,2275.77c17.71-303.04-33.57-611.02-33.57-611.02"/>
	</g>
	<g>
		<g>
			<g>
				<path class="st1" d="M690.37,2856.15c5.14,15.81,55.44,86.83,69.4,93.94s-3.28,49.62-8.59,57.17
					c-5.31,7.55-44.03,31.8-61.8,66.71s-26.97,96.17-14.17,183.27c12.8,87.11-36.83,167.34-36.83,167.34
					s-160.27,438.59,346.33,563.14s1014.13-139.65,1014.13-139.65s-435.39-784.93-479.61-807.44c-44.22-22.51-80.5-7.66-80.5-7.66
					l-23.84-73.29c0,0,21.68-0.62,46.02,1.17c24.34,1.79,39.98-13.01,39.98-13.01s32.65-72.76,37.13-89.31
					c13.42-35.89-11.53-58.84-26.06-67.71s-6.2-31-2.65-37.98s-9.1-33.94-18.85-40.51c-9.75-6.57-2.9-20.38,1.84-29.69
					s-18.98-40.43-26.48-46.04s-7.07-21.73-7.07-21.73s26.1-32.73,33.17-40.86c7.07-8.12-15.51-35.74-15.51-35.74l-138.44-156.93
					c0,0,7.07-8.12,12.95-13.92c5.88-5.8-3.27-27.37-3.27-27.37l-49.17-64.29c-17.71-303.04,33.57-611.02,33.57-611.02
					c-6.14,40.84-211.01,187.11-234.3,204.39c-348.01,208.37-315.83,199.85-356.34,230.51
					c-163.74,111.53-287.05,365.26-300.74,400.79c104.97,101.79,134.91,241.58,75.2,261.01s-113.16-180.69-113.16-180.69
					C300.34,2845.15,182,2639.38,182,2639.38S250.81,2991.38,690.37,2856.15z"/>
				<path class="st0" d="M961.03,2900.15c0,0,187.7,129.25,380.98,132.4c12.04,31.04,11.06,33.99,11.06,33.99l-67.4,85.32
					l67.2,236.42c0,0,2.69,32.14-33.49,28.37s-355.06-82.57-399.33-260.43C917.93,3125.85,930.22,2960.66,961.03,2900.15z"/>
				<path class="st0" d="M1429.47,2567.15l-132.73-139.37c0,0-18.39,39-34.97,71.58c-54.57,35.23-114.17,120.65-114.17,120.65
					l28.73-96.74c0,0-3.39-16.38-6.73-38.59c3.11-26.26,85.46-107.42,85.46-107.42s-35.93-38.8-44.62-47.63
					c-121.19,122.93-167.97,211.95-167.97,211.95s8.7,8.82,19.64,30.51c-19.53,35.48-14.49,146.48-14.49,146.48
					c-51.97-82.14-62.38-96.23-88.64-85.29c-35.81,13.14-20.52,78.08-13.09,100.91c29.26,72.04,68.34,78.75,82.39,74.18
					s23.3-53.74,23.3-53.74s19.33,53.46,30.15,92.67c273.88,83.74,328.89,67.78,349.94,70.65s38-12.36,38-12.36
					s24.92-54.72,26.76-66.97s-10.33-25.77-10.33-25.77s-54.19-17.33-64.68-19.74c22.34-20.86,24.84-43.04,21.41-53.57
					c-40.96,11.38-78.33,9.95-78.33,9.95s46.36-30.62,63.39-43.93s3.15-32.1,3.15-32.1s-10.41-14.09-20.9-16.5
					s-36.18-3.77-36.18-3.77s52.28-42.25,61.1-50.95C1443.88,2593.53,1429.47,2567.15,1429.47,2567.15z M1323.46,2617.38
					c-3.17,26.07-37.13,118.68-30.84,138s18.9,52.11,18.9,52.11s-93.54-66.67-59.88-118.4c0,0,43.31-93.71,39.97-115.93
					c-3.34-22.22-17.01-70.2-17.01-70.2s18.9,52.11,33.39,66.82C1322.47,2584.48,1326.63,2591.31,1323.46,2617.38z"/>
				<path class="st0" d="M1723.61,3644.42c-212.41-103.73-736.59-300.24-761.62-311.52c-142.95-99.15-97.23-203.35-94.08-235.45
					c3.15-32.1-9.01-45.62-17.75-48.6s-47.92,85.5-47.92,85.5S674,3423.68,658.03,3452.18c-26.73,467.01,266.27,471.4,558.57,510.3
					c342.62,26.42,713.49-89.4,713.49-89.4l-26.42-93.03C1876.69,3715.02,1775.39,3672.24,1723.61,3644.42z M879.75,3480.06
					c-19.32,6.28-29.28,11.47-44.47,12.53c0,0-31.53-1.4-39.57-20.14c-8.04-18.75-3.17-45.57,49.51-62.71
					c31.61-10.28,70.25-22.85,228.76,22.68c13.39,5.35,301.19,102.04,301.19,102.04S1061.16,3428.81,879.75,3480.06z"/>
			</g>
			<path class="st0" d="M615.59,2733.2c0,0,86.33-115.95,179.36-116.56c-65.45,1.51-147.61,25.52-178.3,43.06
				c20.47-19.08,60.32-97.82,167.51-108.82c-74.2,6.24-121.52,23.96-171.99,43.44c23.36-31.78,67.5-81.37,116.44-82.91
				c-32.6,0.48-71.76,10.57-102.07,21.9c33.91-32.82,85.57-71.95,139.52-72.3c-65.45,1.51-147.61,25.52-178.3,43.06
				c20.47-19.08,60.32-97.82,167.51-108.82c-74.2,6.24-121.52,23.96-171.99,43.44c23.36-31.78,67.5-81.37,116.44-82.91
				c-54.12,0.79-200.35,108.06-220.07,123.58C479.67,2479.37,605.38,2573.8,615.59,2733.2z"/>
		</g>
		<path class="st2" d="M1298.47,2275.77c-17.71-303.04,33.57-611.02,33.57-611.02"/>
	</g>
	<g>
		<path class="st3" d="M3653.5,3479.34c-86.57,126.81-670.07,532.3-1097.5,523.81c-427.43,8.48-1010.93-397-1097.5-523.81
			c-3.31,315.31-274.15,270.19-399.08,473.93c419.5-128.91,612.11,623.26,1496.58,573.69c884.47,49.57,1077.08-702.6,1496.58-573.69
			C3927.65,3749.53,3656.81,3794.65,3653.5,3479.34z"/>
		<g>
			<path class="st0" d="M1865.56,4252.84l173.98-239.9l31.69,13.69l-55.39,291.13l-38.04-16.43l13.46-61.89l-51.84-22.39
				l-35.83,52.23L1865.56,4252.84z M1999.64,4200.58l22.91-104.27l-0.74-0.32l-60.2,88.16L1999.64,4200.58z"/>
			<path class="st0" d="M2084.21,4338.49l65.58-281.69l38.77,9.03l21.41,183.91l0.79,0.19l39.51-169.73l40.36,9.39l-65.58,281.69
				l-37.98-8.84l-22.3-183.7l-0.79-0.18l-39.42,169.33L2084.21,4338.49z"/>
			<path class="st0" d="M2331.67,4385.35l25.65-248.91l-47.68-4.91l3.99-38.79l136.58,14.07l-4,38.79l-47.68-4.91l-25.65,248.91
				L2331.67,4385.35z"/>
			<path class="st0" d="M2476.65,4396.78l2.86-289.21l41.43,0.41l-1.23,123.89l51.18,0.51l1.23-123.89l41.44,0.41l-2.87,289.21
				l-41.43-0.41l1.28-128.76l-51.18-0.51l-1.28,128.76L2476.65,4396.78z"/>
			<path class="st0" d="M2663.88,4174.79c-1.26-11.57-0.35-22.03,2.72-31.35c3.07-9.33,7.65-17.31,13.74-23.97
				c5.85-6.36,12.71-11.46,20.6-15.32c7.89-3.85,16-6.24,24.35-7.14c8.34-0.91,16.78-0.33,25.32,1.74s16.47,5.56,23.82,10.48
				c7.12,5.22,13.17,12.05,18.18,20.5c5,8.44,8.13,18.46,9.39,30.03l16.53,151.84c1.32,12.12,0.43,22.7-2.67,31.75
				c-3.1,9.06-7.58,16.76-13.43,23.12c-6.08,6.66-13.07,11.91-20.96,15.77c-7.9,3.85-16.02,6.24-24.35,7.15
				c-8.35,0.9-16.78,0.32-25.32-1.75c-8.54-2.06-16.36-5.71-23.46-10.93c-7.35-4.92-13.51-11.46-18.48-19.64
				c-4.98-8.18-8.12-18.32-9.44-30.44L2663.88,4174.79z M2721.59,4322.15c1.09,9.97,4.64,17,10.67,21.11
				c6.03,4.11,12.82,5.76,20.36,4.94c7.53-0.82,13.81-3.89,18.81-9.2c5-5.31,6.97-12.95,5.88-22.91l-16.52-151.84
				c-1.09-9.96-4.65-17-10.67-21.11c-6.04-4.11-12.83-5.76-20.36-4.94c-7.54,0.82-13.82,3.89-18.81,9.2
				c-5.02,5.32-6.97,12.96-5.88,22.91L2721.59,4322.15z"/>
			<path class="st0" d="M2910.26,4364.44l-79.14-278.19l38.29-10.89l107.85,150.5l0.78-0.22l-47.68-167.62l39.85-11.33l79.14,278.19
				l-37.51,10.67l-108.52-149.89l-0.78,0.22l47.57,167.23L2910.26,4364.44z"/>
			<path class="st0" d="M3179.81,4263.4l-63.04-104.77l-134.8-113.74l37.59-22.62l87.81,81.33l0.7-0.42l-30.72-115.68l37.59-22.62
				l37.34,172.38l63.04,104.77L3179.81,4263.4z"/>
		</g>
		<path class="st0" d="M1227.18,3869.84c0,0,155.53,32.7,172.52,117.03c-13.27-58.9-56.69-124.11-83.3-145.08
			c26.69,11.08,129.02,16.21,161.07,109.32c-20.52-64.98-50.25-101-82.67-139.19c42.58,8.68,110.35,29.23,120.77,73.11
			c-6.27-29.44-25.33-61.06-44.36-84.14c45.68,17.87,102.1,49.38,111.95,98.28c-13.27-58.9-56.69-124.11-83.3-145.08
			c26.69,11.08,129.02,16.21,161.07,109.32c-20.52-64.98-50.25-101-82.67-139.19c42.58,8.68,110.35,29.23,120.77,73.11
			c-10.42-48.89-165.89-139.47-188.13-151.26C1510.91,3646.06,1418.48,3797.62,1227.18,3869.84z"/>
		<path class="st0" d="M3886.9,3869.84c0,0-155.53,32.7-172.52,117.03c13.27-58.9,56.69-124.11,83.3-145.08
			c-26.69,11.08-129.02,16.21-161.07,109.32c20.52-64.98,50.25-101,82.67-139.19c-42.58,8.68-110.35,29.23-120.77,73.11
			c6.27-29.44,25.33-61.06,44.36-84.14c-45.68,17.87-102.1,49.38-111.95,98.28c13.27-58.9,56.69-124.11,83.3-145.08
			c-26.69,11.08-129.02,16.21-161.07,109.32c20.52-64.98,50.25-101,82.67-139.19c-42.58,8.68-110.35,29.23-120.77,73.11
			c10.42-48.89,165.89-139.47,188.13-151.26C3603.18,3646.06,3695.61,3797.62,3886.9,3869.84z"/>
	</g>
	<g>
		<g>
			<g>
				<path class="st4" d="M1980.23,4791.86c29.76,39.07,29.76,221.42,29.76,221.42c119.04-130.25,491.03-149.56,491.03-149.56
					s371.99,19.31,491.03,149.56c0,0,0-182.35,29.76-221.42c60.85-127.43-158.49-214.83-520.79-188.86
					C2138.72,4577.03,1919.38,4664.42,1980.23,4791.86z"/>
				<g>
					<path class="st0" d="M2067.28,4767.55c1.19-0.02,2.37-0.02,3.53,0C2069.63,4767.51,2068.45,4767.51,2067.28,4767.55z"/>
				</g>
				<g>
					<path class="st0" d="M2932.04,4767.55c-1.19-0.02-2.37-0.02-3.53,0C2929.69,4767.51,2930.87,4767.51,2932.04,4767.55z"/>
				</g>
			</g>
		</g>
		<g>
			<g>
				<g>
					<g>
						<path class="st5" d="M1303.82,4415.24c0,0,43.8,86.26-21.9,172.53c-65.7,86.26-54.75,230.04,21.9,215.66
							c76.65-14.38,153.3-287.55,131.4-345.06C1413.32,4400.86,1303.82,4415.24,1303.82,4415.24z"/>
						<path class="st5" d="M2133.88,4717.17c-564.61-168.59-596.98,406.67-840.38,86.28c-172.88-36.28,629.26-619.71,808.65-359.52
							C2003.06,4536.96,2156.67,4551.69,2133.88,4717.17z"/>
						<path class="st5" d="M1380.47,4616.52c-133.83-563.54-389.42,76.24-876,57.51c0,0,262.8-129.4,317.55-215.66
							c-109.5,28.75-262.8,86.26-394.2-14.38c274.03,37.72,468.7-230.83,755.54-273.2
							C1498.29,4181.29,1540.09,4327.22,1380.47,4616.52z"/>
					</g>
				</g>
				<path class="st0" d="M1452.64,4937.28c0,0-4.45-93.54,32.82-127.69c-25.82,24.46-50.19,64.08-56.16,82.33
					c1.3-15.15-11.34-61.4,27.85-104.9c-27.63,29.56-40.24,53.94-53.48,80.19c-2.17-21.32-2.45-57.39,16.71-75.85
					c-12.96,12.07-25.07,30.41-33.15,46.03c1.7-25.59,8.26-60.18,29.87-79.99c-25.82,24.46-50.19,64.08-56.16,82.33
					c1.3-15.15-11.34-61.4,27.85-104.9c-27.63,29.56-40.24,53.94-53.48,80.19c-2.17-21.32-2.45-57.39,16.71-75.85
					c-21.52,20.05-42.76,69.16-45.04,82.6c0,0,6.58,15.39,23.02,20.39C1348.93,4847.92,1411.19,4896.95,1452.64,4937.28z"/>
			</g>
			<g>
				<g>
					<g>
						<path class="st5" d="M3707.28,4415.24c0,0-43.8,86.26,21.9,172.53c65.7,86.26,54.75,230.04-21.9,215.66
							c-76.65-14.38-153.3-287.55-131.4-345.06C3597.78,4400.86,3707.28,4415.24,3707.28,4415.24z"/>
						<path class="st5" d="M2877.23,4717.17c564.61-168.59,596.98,406.67,840.38,86.28c172.88-36.28-629.26-619.71-808.65-359.52
							C3008.05,4536.96,2854.43,4551.69,2877.23,4717.17z"/>
						<path class="st5" d="M3630.63,4616.52c133.83-563.54,389.42,76.24,876,57.51c0,0-262.8-129.4-317.55-215.66
							c109.5,28.75,262.8,86.26,394.2-14.38c-274.03,37.72-468.7-230.83-755.54-273.2
							C3512.82,4181.29,3471.02,4327.22,3630.63,4616.52z"/>
					</g>
				</g>
				<path class="st0" d="M3576.91,4937.28c0,0,4.45-93.54-32.82-127.69c25.82,24.46,50.19,64.08,56.16,82.33
					c-1.3-15.15,11.34-61.4-27.85-104.9c27.63,29.56,40.24,53.94,53.48,80.19c2.17-21.32,2.45-57.39-16.71-75.85
					c12.96,12.07,25.07,30.41,33.15,46.03c-1.7-25.59-8.26-60.18-29.87-79.99c25.82,24.46,50.19,64.08,56.16,82.33
					c-1.3-15.15,11.34-61.4-27.85-104.9c27.63,29.56,40.24,53.94,53.48,80.19c2.17-21.32,2.45-57.39-16.71-75.85
					c21.52,20.05,42.76,69.16,45.04,82.6c0,0-6.58,15.39-23.02,20.39C3680.62,4847.92,3618.36,4896.95,3576.91,4937.28z"/>
			</g>
		</g>
	</g>
</g>
<g>
	<g id="XMLID_00000121271898400107999840000000624975374397806524_">
		<g>
			<path class="st0" d="M2023.07,2807.23c0-71.18,0-142.3,0-213.63c-0.91-0.4-1.73-0.96-2.62-1.11c-1.13-0.19-2.32-0.05-3.49-0.05
				c-40.49,0-80.98,0-121.71,0c0-41.27,0-82.5,0-123.91c42.12,0,84.24,0,126.18,0c0.65-0.64,1.12-1.12,1.59-1.59
				c0-50.66,0-101.32,0-152.24c-4.33-1.4-8.73-2.83-13.13-4.26c-8.06-2.62-16.05-5.49-23.62-9.33c-2.23-1.13-4.74-1.54-6.84-2.81
				c-9.2-5.54-18.9-10.26-27.63-16.58c-5.95-4.31-11.93-8.52-17.52-13.34c-6.57-5.65-13.19-11.21-19.24-17.42
				c-4.18-4.3-7.85-9.05-11.75-13.6c-2.83-3.3-5.42-6.75-8.11-10.15c-3.73-4.72-6.73-9.9-10.14-14.83
				c-3.27-4.73-5.67-9.99-8.64-14.89c-3.31-5.47-5.77-11.33-8.25-17.12c-3.64-8.49-7.55-16.97-9.13-26.21
				c-2.86-5.11-2.69-11.13-4.9-16.47c-0.68-1.65,0.22-3.86-1.1-5.54c0.08-5.81-2.54-11.31-2-17.17c-1.65-3.41-0.27-7.18-1.13-10.56
				c-1.2-4.72-0.73-9.41-0.84-14.12c-0.12-4.83-0.13-9.66,0.02-14.49c0.06-2.21,0.74-4.38,0.91-6.59c0.17-2.16-0.36-4.42,0.12-6.48
				c1.05-4.52,1.06-9.18,2-13.67c1.46-7.03,2.59-14.11,4.65-21.04c1.76-5.94,3.12-12,5.27-17.83c2.56-6.94,4.98-13.93,8.28-20.57
				c1.1-2.21,1.65-4.7,2.9-6.79c5.51-9.22,10.24-18.91,16.57-27.65c4.3-5.94,8.55-11.9,13.33-17.52
				c6.16-7.23,12.37-14.4,19.21-20.98c1.86-1.78,3.94-3.33,5.94-4.97c1.86-1.53,3.59-3.22,5.47-4.75c3.48-2.85,7.01-5.62,10.56-8.39
				c4.73-3.7,9.88-6.75,14.84-10.11c4.62-3.14,9.77-5.46,14.48-8.39c5.45-3.39,11.56-5.25,17.02-8.54c2.71-1.64,6.1-2.11,9.1-3.33
				c4.58-1.87,9.17-3.63,13.94-4.98c4.47-1.27,8.89-2.74,13.42-3.79c2.73-0.64,5.45-1.31,8.17-2c2.73-0.69,5.62-0.6,8.22-1.9
				c0.4-0.21,0.97-0.05,1.45-0.1c3.53-0.33,7.22-0.14,10.55-1.13c3.91-1.16,7.84-0.19,11.61-0.95c9.51-1.91,19.07-0.47,28.6-0.85
				c2.35-0.1,4.71,0.73,7.09,0.9c2.32,0.16,4.73-0.33,6.98,0.11c4.54,0.9,9.2,1.12,13.65,2.09c5.31,1.17,10.71,2.01,16,3.49
				c5.37,1.5,10.86,2.75,16.2,4.42c5.87,1.82,11.52,4.39,17.37,6.3c4.87,1.6,9.32,4.12,13.91,6.24c5.6,2.58,10.99,5.74,16.33,8.93
				c5.94,3.54,11.62,7.42,17.29,11.35c4.61,3.2,8.96,6.65,13.29,10.22c7.33,6.05,14.42,12.34,21,19.19
				c1.78,1.86,3.33,3.94,4.97,5.93c1.53,1.87,3.21,3.61,4.75,5.48c2.85,3.48,5.62,7.01,8.39,10.56c3.69,4.74,6.73,9.89,10.11,14.83
				c3.16,4.63,5.42,9.8,8.37,14.49c3.43,5.44,5.27,11.56,8.54,17.02c1.63,2.72,2.15,6.09,3.35,9.1c1.83,4.58,3.65,9.16,4.98,13.94
				c1.24,4.48,2.73,8.89,3.78,13.43c0.63,2.73,1.29,5.46,2,8.17c0.72,2.71,0.56,5.63,1.91,8.21c0.21,0.39,0.07,0.97,0.08,1.46
				c0.01,2.24,0.16,4.4,0.87,6.63c0.66,2.04-0.29,4.51,1.12,6.55c0.08,0.11,0,0.32,0.01,0.49c0.33,6.36,0.8,12.72,0.96,19.09
				c0.17,6.33,0.55,12.72-0.14,18.98c-0.46,4.21-0.43,8.42-0.91,12.59c-0.56,4.9-1.31,9.8-2.1,14.65
				c-0.75,4.59-1.44,9.31-2.89,13.76c-1.39,4.27-1.5,8.93-3.92,12.87c0.14,3.75-1.9,6.86-2.98,10.26
				c-2.31,7.21-5.06,14.23-8.34,21.05c-1,2.08-1.55,4.4-2.72,6.36c-4.96,8.27-9.01,17.07-14.61,24.96
				c-3.93,5.53-7.67,11.19-11.73,16.62c-1.74,2.31-3.77,4.45-5.69,6.62c-5.78,6.55-11.54,13.21-18.05,18.98
				c-6.71,5.95-13.31,12.08-20.8,17.19c-6.74,4.61-13.43,9.24-20.38,13.55c-4.65,2.88-9.47,5.38-14.3,7.82
				c-7.55,3.82-15.13,7.59-23.28,10.19c-4.07,1.3-8.12,2.91-12.17,4.39c-2.31,0.86-5.09,0.57-6.84,2.95c0,50.67,0,101.46,0,152.34
				c0.72,0.41,1.36,1.03,2.08,1.13c1.31,0.18,2.66,0.05,3.99,0.05c39.17,0,78.33,0,117.5,0c1.65,0,3.3,0,5.13,0
				c0,41.24,0,82.35,0,123.67c0.01-0.01,0.02-0.01,0.02-0.01c-0.01,0.02-0.07,0.1-0.16,0.16c-0.12,0.09-0.28,0.18-0.43,0.18
				c-42.3,0-84.61,0-126.96,0c-0.47,0.78-1.12,1.42-1.23,2.14c-0.19,1.3-0.05,2.66-0.05,3.99c0,67.83,0,135.66,0,203.49
				c0,1.65,0,3.31,0,5.17C2105.71,2807.23,2064.47,2807.23,2023.07,2807.23z M2248.02,2103.56c0.33-2.36,1.02-4.74,0.94-7.08
				c-0.3-8.03,1.04-16.12-0.91-24.09c-0.6-2.47,0.38-5.01-0.85-7.66c-0.99-2.15-0.69-5.02-0.98-7.53c-0.58-5.22-3.19-9.95-3.2-15.23
				c-1.96-3.56-2.59-7.59-4.03-11.33c-1.48-3.88-3.24-7.66-4.78-11.52c-3.06-7.67-7.55-14.59-11.76-21.61
				c-5.11-8.53-11.83-15.92-18.36-23.37c-3.11-3.55-6.68-6.7-10.38-9.73c-4.83-3.97-9.65-7.91-14.69-11.64
				c-6.33-4.68-13.07-8.59-19.95-12.29c-5.16-2.76-10.55-5.04-16.06-7.09c-6.97-2.59-14.03-4.83-21.23-6.65
				c-3.77-0.95-7.61-1.58-11.61-2.39c0,45.75,0,91.2,0,136.62c37.77,37.79,75.59,75.6,113.7,113.72c2.07-3.4,4.29-6.65,6.11-10.11
				c4.26-8.06,7.65-16.49,10.54-25.13c2.33-6.95,4.09-14.03,5.62-21.19c0.58-2.73,0.14-5.66,1.08-8.04
				C2248.14,2107.9,2247.71,2105.76,2248.02,2103.56z M2110.13,2250.5c30.11-5.33,56.71-17.19,79.81-36.64
				c-26.31-26.3-52.69-52.69-79.08-79.08c-0.12-0.11-0.25-0.31-0.35-0.3c-0.13,0.02-0.24,0.21-0.38,0.36
				C2110.13,2173.26,2110.13,2211.71,2110.13,2250.5z M2058.85,2250.59c0-39.43,0-78.21,0-116.42
				c-26.63,26.64-53.47,53.47-80.17,80.18C2001.76,2233.65,2028.6,2245.56,2058.85,2250.59z M2058.85,2060.07
				c0-45.25,0-90.36,0-135.63c-0.98,0-1.92-0.26-2.59,0.05c-2.77,1.28-5.85,1.04-8.69,1.93c-3.25,1.02-6.58,1.82-9.83,2.83
				c-6.63,2.05-13.2,4.16-19.6,7c-4.65,2.07-9.47,3.99-13.73,6.59c-5.47,3.33-11,6.65-16.25,10.44c-6.41,4.62-12.32,9.77-18.24,14.9
				c-5.54,4.79-9.99,10.68-14.65,16.34c-3.25,3.96-6.16,8.12-9.04,12.31c-2,2.93-3.62,6.16-5.45,9.2
				c-5.96,9.88-7.73,15.11-11.85,25.61c-2.39,6.07-4.17,12.33-5.73,18.59c-1.06,4.23-2.53,8.58-2.19,13.12
				c0.04,0.5,0.22,1.19-0.02,1.47c-1.78,2.02-0.64,4.42-0.97,6.61c-0.35,2.36-1.02,4.74-0.94,7.08c0.31,8.03-0.99,16.1,0.87,24.1
				c0.6,2.61,0.52,5.4,0.85,8.1c0.53,4.27,1.28,8.46,2.23,12.64c0.76,3.34,1.39,6.73,2.43,9.99c3.42,10.73,7.33,21.28,12.59,31.26
				c1.83,3.46,4.06,6.71,6.15,10.12C1982.67,2136.25,2020.84,2098.08,2058.85,2060.07z"/>
		</g>
		<g>
		</g>
	</g>
</g>
<g>
	<path class="st0" d="M2895.13,2520.42c5.45-30.83,19.03-57.77,36.35-83.1c-0.4-0.32-0.79-0.63-1.19-0.95
		c-1.19,0.59-2.57,0.95-3.54,1.79c-15.19,13.07-28.94,27.44-39.18,44.81c-5.48,9.29-11.49,18.39-15.74,28.23
		c-6.9,15.97-12.5,32.49-15.43,49.78c-2.27,13.41-5.38,26.72-6.9,40.22c-1.48,13.17-2.25,26.55-1.85,39.79
		c0.65,21.76,2.35,43.51,6.08,65.02c0.63,3.63,1.31,7.25,1.97,10.87c-0.5,0.23-0.99,0.45-1.49,0.68c-1.13-1.35-2.54-2.54-3.34-4.06
		c-13.12-24.91-23.49-50.94-31.13-78.04c-2.59-9.19-4.73-18.5-7.33-27.68c-0.66-2.32-1.92-4.7-3.55-6.47
		c-25.18-27.42-46.53-57.55-63.73-90.55c-15.09-28.95-26.7-59.23-34.31-91.03c-5.09-21.28-8.96-42.69-10.37-64.58
		c-0.84-13.08-1.46-26.08-1.3-39.22c0.16-13.55,0.57-27.07,2.57-40.39c2.73-18.22,4.42-36.66,10.45-54.3
		c2.88-8.42,4.28-17.34,7.11-25.78c3.43-10.22,7.38-20.28,11.61-30.2c4.89-11.47,9.61-23.12,15.71-33.96
		c8.39-14.93,17.5-29.52,27.2-43.64c16.63-24.19,36.24-45.87,57.97-65.63c37.1-33.72,78.9-59.97,125.56-78.29
		c12.62-4.95,25.75-8.62,38.56-13.11c2.94-1.03,5.91-2.59,8.25-4.62c19.36-16.78,41.81-27.5,66.36-34.12
		c12.52-3.38,25.25-5.49,38.26-5.67c2.92-0.04,5.83-0.3,8.74-0.21c0.8,0.03,1.57,0.96,2.77,1.75c-11.12,3.24-21.75,5.75-31.96,9.42
		c-23.73,8.52-44.01,22.2-58.9,42.85c-10.38,14.4-16.38,30.81-17.59,48.44c-0.54,7.85,1.28,16.01,3.07,23.8
		c0.96,4.18,0.1,5.77-3.54,7.15c-12.32,4.65-24.79,9-36.81,14.34c-20.19,8.97-40.07,18.61-60.08,27.99
		c-1.15,0.54-2.19,1.32-3.32,1.92c-7.43,3.91-12.21,9.49-13.07,18.31c-0.51,5.25-2.45,10.35-3.31,15.59
		c-2.83,17.12-13.28,28.64-27.58,36.97c-15,8.74-31.51,13.59-48.45,16.99c-11.22,2.25-22.49,4.22-33.65,6.76
		c-7.84,1.78-14.17,5.81-16.21,14.38c-1.04,4.35,0.07,5.43,4.42,4.5c5.17-1.11,10.31-2.52,15.54-3.16c5.83-0.71,9.64,3.76,7.58,9.05
		c-4.23,10.84-10.8,19.72-22.56,23.46c-6.09,1.94-7.16,3-7.18,9.48c-0.09,23.7,8.82,43.37,27.17,58.49
		c3.13,2.58,7.06,4.18,11.77,6.9c-1.02-8.25,3.3-10.75,8.89-12c21.46-4.78,42.34-4.14,62.57,5.74c14.18,6.93,23.03,17.57,26,33.12
		c0.66,3.47,0.76,6.67-0.88,8.83c-7.82-1.85-14.9-4.29-22.16-5.07c-11.92-1.29-23.52,2.05-35.18,4.14
		c-7.08,1.27-14.18,2.82-21.33,3.28c-6.03,0.39-12.07-0.75-14.35-8.44c-4.12,2.65-5.63,6.12-6.92,10.03
		c-6.69,20.43-2.28,39.88,5.07,59.03c5.22,13.61,12.74,25.97,21.69,37.44c1.35,1.74,3.22,3.08,5.04,4.8
		c2.05-4.07,3.86-7.4,5.42-10.84c4.34-9.56,12.54-15.05,21.59-18.69c10.4-4.18,21.3-7.28,32.19-10.04c6.89-1.75,14.16-1.98,21.24-3
		c8.45-1.21,16.87-2.65,25.33-3.78c7.63-1.02,15.3-1.74,22.95-2.63c8.32-0.96,16.67-1.76,24.95-3c7.17-1.08,14.25-2.8,21.4-4.04
		c18.61-3.24,36.92-7.54,54.5-14.62c15.77-6.35,31.3-13.3,43.94-24.91c8.02-7.36,16.03-15.12,22.21-23.98
		c7.62-10.94,13.16-23.25,16.56-36.39c2.01-7.78,5.55-15.2,7.13-23.03c1.91-9.47,2.66-19.19,3.58-28.83
		c0.8-8.39,1.72-16.84,1.55-25.24c-0.39-18.64-1.49-37.26-6.72-55.34c-1-3.44-1.7-6.97-2.53-10.46c0.57-0.22,1.15-0.44,1.72-0.65
		c1.21,2.02,2.62,3.94,3.59,6.06c9,19.8,15.95,40.25,18.98,61.87c1.08,7.71,1.88,15.49,2.36,23.26c0.52,8.5,4.26,15.95,7.07,23.68
		c2.53,6.99,5.54,13.81,8.58,20.6c2.25,5.02,3.11,4.93,8.03,2.61c10.18-4.82,20.53-9.27,30.75-13.99c5.4-2.49,10.67-5.26,16.01-7.88
		c4.85-2.38,5.3-7.04,5.39-11.46c0.07-3.21-2.47-4.45-5.68-4.77c-7.44-0.72-11.52-5.72-10.2-13.15c0.82-4.64-2.61-9.23,1.5-14.2
		c2.77-3.35,2.42-9.17,3.9-13.74c3.58-11,12.47-15.81,22.84-18c8.98-1.9,18.2-1.93,27.27,0.03c5.18,1.12,10.22,2.98,15.44,3.75
		c6.4,0.94,12.91,1.08,19.19,1.56c-0.49,1.8-0.49,1.8-8.53,7.05c1.25,0.64,2.19,1.52,3.16,1.55c5.48,0.19,10.48-1.4,14.97-4.58
		c1.6-1.13,3.24-2.21,5.31-2.67c-2.1,7.92-7.42,12.08-15.97,12.63c0.21,0.53,0.41,1.07,0.62,1.6c3.28,2.19,6.47,4.54,9.88,6.51
		c4.76,2.76,9.52,5.61,14.58,7.72c7.15,2.99,14.34,2.25,20.53-2.51c1.94-1.49,3.21-4.4,3.84-6.9c0.65-2.57,0.14-5.42,0.14-8.22
		c10.83,1.67,16.51,11.72,12.89,22.42c-2.64,7.79-7,14.1-15.61,16.25c-1.14,0.28-2.2,0.88-3.78,1.53c4.26,3.76,8.54,3.75,13.3,2.63
		c7.07-1.66,11.21-7.25,16.36-11.5c0.61-0.51,0.8-1.52,1.61-3.15c5.9,10.53,9.3,19.58,3.75,29.96
		c-5.31,9.93-13.62,15.03-24.54,15.77c-6.96,0.47-13.98,0.09-21.73,0.09c2.95,5.54,10.71,8.13,9.95,16.4
		c-1.53-0.8-2.63-1.18-3.51-1.86c-8.6-6.68-18.9-8.51-29.21-10.12c-8.77-1.37-16.64-3.81-20.41-12.93
		c-0.49-1.18-1.07-2.33-2.05-3.06c-3.08,8.09,2.67,12.25,6.86,18.54c-2.72-0.68-4.14-0.73-5.23-1.36
		c-6.71-3.85-11.19-9.38-13.83-16.81c-1.74-4.91-4.71-9.41-7.3-14c-1.98-3.51-5.32-4.72-9.19-4.71c-2.34,0.01-4.69-0.03-7.03,0.07
		c-2.95,0.12-6.24-0.24-6.85,3.97c-0.63,4.35,1.59,8.79,5.2,9.86c2.23,0.66,4.6,0.88,6.9,1.3c4.12,0.75,7.3,2.96,8.25,7.06
		c1.2,5.15,1.74,10.44,2.58,15.67c1.08,6.67,1.5,13.55,3.43,19.96c2.43,8.05,9.42,11.51,17.47,9.73c7.67-1.7,15.31-3.5,22.92-5.43
		c10.76-2.72,19.99,1.09,27.66,7.83c7.62,6.7,19.61,7.74,29.69,2.16c15.44-8.55,26.07-21.43,34.28-36.58
		c3.23-5.95,6.09-12.15,8.56-18.46c6.11-15.56,4.98-31.28-0.09-46.83c-2.09-6.41-4.14-12.78-8.5-18.38
		c-7.14-9.16-16.29-15.66-26.46-20.36c-8.77-4.06-17.27-8.41-24.43-14.72c-8.26-7.28-14.02-16.52-16.54-27.43
		c-3.05-13.17-2.2-25.91,2.58-38.79c2.27-6.12,2.45-13.41,1.94-20.04c-0.52-6.77-5.81-10.97-11.68-14.15
		c-1.45-0.79-2.42-2.46-3.62-3.73c1.56-0.84,3.02-2.05,4.69-2.47c15.48-3.93,29.25,0.5,42.28,8.74
		c16.66,10.54,26.4,26.01,31.94,44.47c2.13,7.09,3.92,14.28,6.3,23.05c0.81-3.21,1.16-5.27,1.84-7.21
		c3.58-10.19,6.44-20.72,11.07-30.42c6.66-13.95,19.32-20.83,34.03-22.91c12.14-1.72,24.53-1.68,36.82-2.33
		c1.67-0.09,3.42,0.18,5.05,0.62c3.7,0.99,4.95,3,2.99,6.07c-7.64,11.96-10.07,25.45-13.13,38.99c-3.1,13.69-8.63,26.66-19.38,36.66
		c-8.81,8.2-19.78,12.18-30.58,16.64c-6.22,2.57-12.54,4.82-16.66,11.1c-3.07,4.69-4.17,9.44-3.12,14.51
		c1.16,5.58,2.54,11.33,5.13,16.34c4.74,9.18,5.4,19.16,7.32,28.92c2.59,13.21,0.88,26.39-1.52,39.28
		c-2.69,14.42-8.1,28-16.52,40.33c-7.42,10.86-16.24,20.25-27.12,27.44c-8.48,5.6-17.6,10.21-27.73,12.41
		c-10.62,2.31-21.21,4.23-32.21,3.55c-14.05-0.87-27.4-4.3-39.67-10.95c-9.46-5.13-18.07-11.83-27.46-17.12
		c-7.35-4.14-15.28-7.28-23.04-10.68c-3.02-1.32-4.15,1.5-5.21,3.35c-4.33,7.55-8.69,15.11-12.57,22.9
		c-2.32,4.67-5.8,6.1-10.41,5.17c-6.24-1.27-12.44-2.79-18.59-4.47c-13.31-3.66-26.7-7.12-39.81-11.41
		c-6.18-2.02-11.47,0.45-16.62,2.05c-2.74,0.85-4.39,5.8-6.18,9.09c-13.88,25.55-34.41,44.54-58.84,59.58
		c-24.35,15-50.85,25.59-76.95,36.99c-19.9,8.69-39.54,17.88-57.74,29.81c-19.55,12.81-36.39,28.57-49.76,47.82
		c-2.88,4.15-5.15,8.73-7.52,13.22C2899.2,2519.28,2898.46,2521.56,2895.13,2520.42z M3232.33,2314.26
		c2.51-5.61,4.89-10.57,6.89-15.69c0.49-1.26,0.32-3.65-0.53-4.41c-6.1-5.47-6.46-12.54-6.05-19.87c0.28-5.13-0.51-5.69-5.25-3.87
		c-9.29,3.57-18.72,6.78-27.92,10.56c-11.08,4.56-12.97,0.09-17.46-7.64c-0.74-1.27-1.18-2.73-1.64-4.14
		c-1.55-4.75-3.04-9.52-4.57-14.33c-2.89,17.52-6.43,34.72-13.48,51.8C3186.46,2309.29,3209.23,2311.76,3232.33,2314.26z"/>
	<path class="st0" d="M3254.97,2349.73c-0.64,4.88-0.68,9.93-2.02,14.61c-3.29,11.41-6.68,22.84-10.99,33.88
		c-3.13,8.02-7.28,15.78-11.91,23.06c-8.55,13.45-18.48,25.84-30.12,36.87c-14.94,14.15-31.57,26.04-49.36,36.12
		c-25.71,14.56-51.95,28.19-77.95,42.24c-33.81,18.26-66.58,38.09-93.04,66.49c-9.2,9.88-16.88,21.18-25.2,31.88
		c-0.84,1.09-1.27,2.5-1.9,3.76c0.28,0.36,0.56,0.72,0.84,1.08c1.67-0.92,3.53-1.61,4.98-2.8c24.06-19.59,52.13-31,81.47-39.68
		c16.68-4.93,33.49-9.45,50.35-13.69c20.75-5.22,41.65-9.81,62.42-14.93c25.58-6.31,50.79-13.82,74.91-24.57
		c20.52-9.15,39.68-20.47,56.02-36.15c3.29-3.15,6.61-6.26,10.66-8.69c-14.4,44.4-43.13,77.1-82.8,101.28
		c2.63,3.03,5.35,2.31,7.92,1.76c28.34-6.09,54.72-17.06,79.45-32.09c20.8-12.64,40.42-26.87,58.12-43.63
		c15.42-14.6,30.06-29.93,42.19-47.45c8.07-11.66,16.31-23.24,23.54-35.42c5.71-9.61,10.07-20.04,14.92-30.16
		c14.22-29.64,20.93-61.46,26.24-93.56c2.02-12.21,1.67-24.82,2.26-37.26c0.38-8.01,0.98-16.05,0.65-24.04
		c-0.4-9.74-1.73-19.43-2.52-29.15c-0.2-2.5,0.1-5.05,0.16-7.57c0.67-0.12,1.35-0.24,2.02-0.35c1.99,4.93,4.4,9.73,5.9,14.8
		c5.23,17.7,11,35.3,14.93,53.3c3.19,14.63,4.41,29.73,5.8,44.69c1.06,11.37,1.46,22.84,1.36,34.26
		c-0.13,14.2-1.27,28.37-3.75,42.39c-2.03,11.5-3.32,23.19-6.33,34.43c-4.05,15.11-8.26,30.18-13.92,44.89
		c-6.2,16.09-13.51,31.59-21.65,46.68c-5.7,10.58-12.8,20.42-19.41,30.5c-12.02,18.33-26.4,34.72-41.88,50.17
		c-27.49,27.43-58.96,49.42-93.28,67.32c-29.5,15.39-60.53,27.06-92.92,34.6c-16.05,3.74-32.46,6.22-48.84,8.2
		c-14.91,1.81-30,3.12-45,2.94c-18.64-0.22-37.37-0.34-55.83-4.15c-8.71-1.8-17.74-2.06-26.45-3.85
		c-9.34-1.93-18.47-4.83-27.68-7.34c-1.02-0.28-1.95-0.98-2.97-1.12c-14.5-2.01-27.54-8.65-41.11-13.44
		c-10.91-3.85-21.16-9.62-31.53-14.89c-8.47-4.31-16.7-9.1-25.01-13.74c-2.57-1.43-5.05-3.03-7.57-4.57
		c-3.95-2.41-4.51-4.18-2.33-8.45c11.57-22.67,24.26-44.72,41.49-63.57c16.96-18.56,36.13-34.74,57.06-48.79
		c31.91-21.42,66.45-37.91,100.95-54.52c28.17-13.57,56.48-26.86,82.78-44c18.97-12.37,36.91-25.99,51.43-43.48
		c6.57-7.92,12.4-16.58,17.63-25.45c5.23-8.88,9.29-18.45,13.89-27.7c0.41-0.83,1.05-1.54,1.58-2.3
		C3254.07,2349.46,3254.52,2349.6,3254.97,2349.73z"/>
	<path class="st0" d="M3302.58,1948.86c-22.76-9.98-46.49-16.67-70.93-20.85c-5.83-1-11.81-1.19-17.73-1.55
		c-7.4-0.46-14.8-0.83-22.21-1.04c-19.47-0.55-38.47,2.04-57.01,8.28c-10.39,3.49-19.92,8.45-28.89,14.64
		c-2.22,1.53-4.47,3.01-7.11,4.78c-1.92-4.69-0.18-8.38,1.26-11.56c10.07-22.19,26.55-37.1,50.71-42.35
		c10.39-2.26,20.95-2.63,31.59-0.66c7.48,1.39,15.34,1.02,22.68,2.84c14.76,3.68,29.45,7.75,43.18,14.68
		c9.62,4.85,19.67,8.88,29.29,13.73c7.16,3.61,14.07,7.77,20.84,12.07c2.14,1.36,3.48,3.97,5.19,6
		C3303.17,1948.2,3302.87,1948.53,3302.58,1948.86z"/>
	<path class="st0" d="M3011.08,2083.47c-5.23,3.13-10.5,6.2-15.69,9.4c-11.96,7.37-22.08,16.58-28.77,29.15
		c-0.59,1.12-1.41,2.23-1.6,3.42c-0.82,5.16-3.79,7.44-8.9,8.42c-11.28,2.16-21.21,0.33-28.68-8.85c-2.27-2.78-4.03-3.26-6.93-1.71
		c-2.25,1.2-4.54,2.37-6.92,3.25c-1.41,0.52-3.05,0.45-4.58,0.65c0.43-1.47,0.41-3.44,1.38-4.34c5.74-5.32,11.27-11.03,17.69-15.41
		c16.53-11.26,35.07-17.95,54.6-21.98c7.27-1.5,14.52-3.08,21.83-4.31c2.08-0.35,4.35,0.38,6.54,0.62
		C3011.05,2082.35,3011.07,2082.91,3011.08,2083.47z"/>
</g>
<g>
	<g id="XMLID_00000031920114819059320470000003656452514979610258_">
		<g>
			<path class="st0" d="M2991.93,3575.24c1.53,4.21,1.62,7.08-1.18,10.89c-9.25,12.54-18.05,25.43-26.86,38.3
				c-2.52,3.69-5.41,5.01-9.99,5c-56.43-0.18-112.87-0.17-169.3-0.02c-5.1,0-8-1.55-10.93-5.97c-8.31-12.57-17.51-24.55-26.18-36.9
				c-1.12-1.59-2.19-4.27-1.62-5.86c8.56-23.95,17.57-47.73,26.13-71.67c26.66-74.5,53.16-149.06,79.72-223.6
				c0.5-1.4,0.94-2.82,1.76-5.36c-11.53-1.17-22.31-1.87-32.95-3.48c-10.33-1.55-20.51-4.13-30.8-6.12
				c-8.09-1.56-16.25-2.84-24.36-4.4c-8.09-1.56-16.13-3.48-24.24-4.95c-13.77-2.49-27.52-5.62-41.42-6.91
				c-19.28-1.78-38.72-3.01-58.05-2.67c-11.36,0.18-22.66,3.86-33.98,5.98c-7.55,1.41-15.11,2.85-23.26,4.39c0,3.13,0,5.86,0,8.59
				c0,42.52,0,85.02-0.02,127.54c-0.02,4.54-0.08,8.29,4.81,11.56c6.23,4.15,4.84,13.09-1.62,17.52c-4.16,2.87-4.28,5.22-0.73,9.17
				c1.31,1.44,2.73,3.1,3.25,4.9c1.84,6.48,3.55,13.03,4.86,19.63c2.57,12.95,5.16,25.91,7.11,38.96
				c1.73,11.63,2.38,23.43,3.92,35.09c2.76,21.05,4.21,42.24,2.51,63.34c-1.5,18.43-1.38,37.05-5.35,55.32
				c-2.44,11.24-3.16,22.82-5.07,34.2c-1.06,6.35-2.85,12.6-4.53,18.84c-1.79,6.74-4.11,13.38-5.66,20.18
				c-0.85,3.74-1.91,8,4.68,8.82c2.03,0.26,4.77,4.18,5.12,6.7c0.62,4.63,2.96,4.94,6.64,4.9c21.5-0.09,43.05,0.64,64.52-0.3
				c12.44-0.56,22.53,8.69,20.89,20.61c-0.97,7.12-0.18,14.5-0.18,22.16c10.25-0.11,19.5,1.76,25.95,10.07
				c4.18,5.38,7.33,11.25,7.21,18.42c-0.11,6.32-0.09,12.65,0.02,18.97c0.08,5.03-2.19,7.56-7.26,7.47
				c-1.26-0.02-2.52,0.02-3.8,0.02c-97.43,0-194.84-0.06-292.26,0.09c-9.89,0.02-11.84-2-11.28-11.15c0.26-4.3,0.23-8.61,0.02-12.91
				c-0.87-17.83,14.08-31.69,29.81-30.8c0.96,0.05,1.94-0.2,3.4-0.35c0-8.2-0.03-16.22,0.02-24.24c0.06-11.02,7.21-18.09,18.42-18.1
				c22.02-0.02,44.02-0.08,66.04,0.06c4.84,0.03,8.52-0.26,8.43-6.64c-0.02-1.72,2.22-3.72,3.84-5.1c1.37-1.17,4.59-1.38,4.8-2.43
				c0.55-2.87,0.36-6.06-0.29-8.94c-3.23-14.3-7.05-28.47-9.99-42.82c-2.72-13.23-4.59-26.63-6.83-39.95
				c-0.14-0.74-0.5-1.46-0.53-2.2c-1.06-25.16-3.23-50.35-2.75-75.48c0.39-19.69,4.02-39.34,6.35-58.99
				c1.14-9.69,2.26-19.41,3.96-29c1.29-7.35,3.49-14.53,5.27-21.81c0.76-3.14,1.06-6.47,2.26-9.43c1.23-3.02,2.82-6.2,5.13-8.41
				c3.34-3.25,3.45-6.07-0.55-8.52c-10.81-6.61-8.97-14.2-0.87-19.54c2.75-1.82,3.99-3.89,3.98-7.4
				c-0.26-43.76-0.47-87.53-0.29-131.3c0.02-5.77-2.05-7.99-7.2-8.99c-28.12-5.48-56.18-12.1-85.17-8.85
				c-16.41,1.84-32.8,4.18-49.14,6.76c-15.05,2.38-30.02,5.27-44.99,8.17c-9.29,1.79-18.45,4.39-27.77,5.97
				c-13.56,2.29-27.23,3.96-40.85,5.95c-4.69,0.68-9.37,1.47-14.58,2.29c0.58,1.99,1.06,4.12,1.79,6.13
				c35.12,96.9,70.25,193.78,105.49,290.61c1.14,3.13,1.4,5.42-0.67,8.29c-9.55,13.24-18.95,26.59-28.24,40.01
				c-2.58,3.74-6.1,3.8-10.02,3.8c-39.98-0.06-79.96-0.05-119.95-0.05c-16.19,0-32.39-0.24-48.58,0.14
				c-5.27,0.12-8.49-1.79-11.3-5.88c-8.82-12.85-17.9-25.53-26.65-38.43c-1.02-1.49-1.38-4.19-0.79-5.88
				c28.7-80.69,57.55-161.32,86.37-241.96c5.92-16.61,11.77-33.24,17.63-49.87c0.67-1.88,1.23-3.8,2.26-7
				c-13.26,0-25.8-0.27-38.33,0.09c-8.41,0.24-13.51-2.19-14.74-8.29c-1.47-7.26,2.48-14.76,9.89-16.23
				c2.98-0.58,6.92,1.88,9.92,3.78c1.96,1.25,2.7,4.25,4.51,5.92c1.46,1.35,3.64,2.6,5.56,2.67c3.69,0.15,7.41-0.73,11.13-0.9
				c18.81-0.87,37.55-1.41,56.31-4.19c16.72-2.48,33.09-5.54,48.9-11.3c12.39-4.51,24.45-9.95,36.82-14.52
				c14.76-5.44,29.72-10.42,44.6-15.56c9.87-3.42,19.66-7.14,29.67-10.08c10.71-3.16,21.56-5.95,32.5-8.2
				c17.14-3.54,34.38-6.53,51.61-9.61c3.43-0.62,7-0.49,10.43-1.09c1.35-0.23,3.57-1.62,3.52-2.4c-0.08-1.56-1.23-4.25-2.28-4.42
				c-5.97-0.99-9.08-4.6-9.38-10.17c-0.24-4.39,5.38-8.14,12.13-9.04c0.23-0.03,0.46-0.23,1.59-0.8c-1.12-1.29-1.91-2.58-3.05-3.45
				c-9.69-7.29-14.76-16.63-14.17-29.05c0.59-12.57,12.15-25.54,24.36-29.25c8.43-2.55,15.49-0.94,22.9,2.17
				c9.31,3.89,14.12,11.94,17.9,20.42c4.13,9.29-1.75,26.66-10.4,33.39c-2.05,1.58-4.07,3.22-6.95,5.53
				c4.04,1.17,7.41,1.25,9.34,2.93c2.41,2.11,5.3,5.8,4.95,8.38c-0.41,3.04-4.04,5.66-6.39,8.37c-1.12,1.29-3.13,2.16-3.66,3.6
				c-0.73,2.02,0.02,3.57,2.92,3.96c17.37,2.35,34.82,4.4,52.04,7.7c11.42,2.2,22.49,6.24,33.68,9.6
				c12.16,3.66,24.34,7.3,36.4,11.31c13,4.31,25.92,8.87,38.75,13.65c16.78,6.27,33.16,13.79,50.25,19.04
				c13.54,4.18,27.93,5.66,41.9,8.49c20.85,4.21,41.99,3.89,63.08,4.94c6.77,0.35,10.2-0.77,13.8-6.3c4.08-6.27,9.23-7.3,14.11-4.59
				c6.45,3.61,9.2,9.1,7.44,14.85c-2,6.5-6.54,9.07-13.82,8.91c-12.85-0.27-25.69-0.08-39.54-0.08c0.97,3.23,1.61,5.79,2.51,8.26
				C2922.65,3384.35,2957.21,3479.82,2991.93,3575.24z M2969.52,3579.71c4.25,0.03,6.56-0.79,4.9-5.48
				c-7.3-20.61-14.65-41.21-22.02-61.8c-8.22-22.97-16.46-45.93-24.72-68.91c-6.64-18.47-13.33-36.91-19.94-55.39
				c-6.68-18.71-13.26-37.46-19.89-56.18c-4.1-11.57-8.25-23.11-12.36-34.67c-0.55,0.09-1.09,0.18-1.64,0.27
				c-0.23,1.91-0.67,3.83-0.67,5.74c0.05,25.57,0.29,51.13,0.11,76.68c-0.05,5.45,0.85,8.44,6.82,10.34
				c9.72,3.08,15.61,12.5,15.17,22.26c-0.46,10.31-5.66,17.58-15.15,21.71c-2.02,0.87-4.13,1.53-6.2,2.29
				c0.05,0.61,0.08,1.21,0.12,1.82c4.39,0,8.79-0.09,13.18,0.02c9.95,0.23,14.78,3.6,18.31,12.86
				c6.85,17.95,13.65,35.93,20.44,53.91c0.62,1.66,1.28,3.34,1.5,5.06c0.58,4.4-0.44,8.18-5.24,9.63c-4.51,1.35-8-0.38-10.34-4.24
				c-1.15-1.93-1.82-4.16-2.63-6.29c-4.15-10.83-8.28-21.65-12.41-32.5c-0.41,0.12-0.82,0.24-1.23,0.36
				c6.48,27.58,12.95,55.15,19.53,83.2c-7.88,1.17-14.82,2.19-22.37,3.31c0,3.31,0.29,6.35-0.08,9.29
				c-0.68,5.56,1.85,6.73,6.94,6.68C2922.95,3579.48,2946.23,3579.52,2969.52,3579.71z M2863.91,3314.91
				c0.02-1.88-0.43-3.77-0.65-5.65c-0.55-0.08-1.08-0.17-1.62-0.24c-0.68,0.99-1.64,1.88-2.03,2.98
				c-10.13,27.58-20.06,55.21-30.31,82.73c-11.56,31.05-23.49,61.95-35.11,92.96c-10.75,28.67-21.23,57.43-31.99,86.08
				c-1.62,4.33-1.32,5.66,3.84,5.62c24.78-0.27,49.58-0.11,74.38-0.18c10.48-0.03,9.4,1.46,9.67-9.86c0.11-3.98-0.85-6.23-5.27-6.23
				c-2.25,0-4.51-0.65-6.74-1.08c-6.83-1.29-7.02-1.5-5.69-8.44c3.13-16.4,6.33-32.77,9.46-49.15c2.19-11.39,4.31-22.79,6.45-34.2
				c-2.29,1.9-3.36,4.12-4.28,6.39c-4.6,11.24-9.03,22.53-13.79,33.7c-2.46,5.76-7.43,7.88-12.18,5.8
				c-4.39-1.94-5.65-6.33-3.52-12.38c0.24-0.71,0.53-1.41,0.82-2.13c6.77-16.61,13.82-33.13,20.21-49.9
				c3.71-9.69,10.16-13.99,20.32-13.41c2.54,0.15,5.12-0.27,7.67-0.44c0.09-0.59,0.17-1.2,0.26-1.79c-1.58-1.05-3.11-2.14-4.72-3.1
				c-16.63-9.98-16.78-31.75-0.02-41.52c3.64-2.13,4.77-4.27,4.74-8.28C2863.7,3360.45,2863.88,3337.67,2863.91,3314.91z
				 M2365.54,3579.45c4.46,0.03,5.31-1.08,3.69-5.25c-4.43-11.45-8.49-23.05-12.8-34.55c-6.88-18.34-13.86-36.64-20.8-54.97
				c-6.56-17.37-13.21-34.71-19.66-52.15c-6.62-17.87-12.97-35.85-19.56-53.74c-8.25-22.4-16.61-44.75-25.01-67.1
				c-0.43-1.12-1.69-1.94-3.54-3.98c-0.32,3.6-0.67,5.76-0.67,7.91c0,21.24,0.2,42.5,0,63.75c-0.05,5.18,1.02,8.11,6.54,9.93
				c9.73,3.23,15.64,12.42,15.61,22.09c-0.05,9.67-6.2,18.4-15.67,22.2c-1.94,0.77-3.9,1.52-5.86,2.28
				c0.03,0.44,0.06,0.87,0.09,1.31c1.37,0.2,2.72,0.56,4.07,0.58c7.33,0.06,14.68-0.18,22,0.12c10.46,0.44,15.05,5.35,15.09,15.73
				c0.06,13.15,0.02,26.3,0.02,39.45c0,10.87,0.09,21.74-0.03,32.63c-0.08,6.98-2.93,10.54-8.11,10.61
				c-5.24,0.09-8.17-3.48-8.28-10.36c-0.09-6.06-0.02-12.13-0.02-18.21c0-13.97,0-27.93,0-41.9c-2.29,6.32-3.95,12.74-4.01,19.19
				c-0.3,29.34-0.02,58.67-0.24,88.01c-0.05,5.19,1.82,6.35,6.59,6.32C2318.5,3579.21,2342.03,3579.25,2365.54,3579.45z
				 M2257.29,3437.3c0.18-0.59,0.38-1.18,0.56-1.78c-1.69-1.15-3.34-2.37-5.07-3.43c-16.2-9.98-16.52-31.52-0.27-41.17
				c3.84-2.28,5.19-4.51,5.18-8.81c-0.09-26.3,0.09-52.6,0.12-78.9c0-1.7-0.55-3.39-0.84-5.09c-4.1,7.03-6.88,13.97-9.35,21.03
				c-9.08,25.83-17.92,51.75-27.11,77.55c-10.45,29.32-21.2,58.54-31.74,87.84c-10.71,29.78-21.32,59.59-31.98,89.38
				c-1.58,4.37-0.71,5.5,4.42,5.5c24.28,0,48.56,0,72.83-0.05c7.02-0.02,7.08-0.11,7.09-7.14c0.02-29.08,0.15-58.16-0.11-87.24
				c-0.06-6.39-1.61-12.77-2.48-19.16c-0.52,0.06-1.03,0.11-1.55,0.15c0,2.43,0,4.84,0,7.27c0,17.71,0.06,35.41,0,53.1
				c-0.03,6.59-2.69,9.82-7.73,10.01c-5.31,0.17-8.79-3.45-8.82-10.02c-0.12-24.78-0.14-49.56,0.03-74.35
				c0.05-8.35,4.92-13.26,13.77-14.03c5.27-0.46,10.61-0.12,15.93-0.21C2252.55,3437.73,2254.92,3437.47,2257.29,3437.3z"/>
		</g>
		<g>
		</g>
	</g>
</g>
</svg>
