<!DOCTYPE svg PUBLIC "-//W3C//DTD SVG 20010904//EN" "http://www.w3.org/TR/2001/REC-SVG-20010904/DTD/svg10.dtd">
<svg version="1.0" xmlns="http://www.w3.org/2000/svg" width="800px" height="800px" viewBox="0 0 8000 8000" preserveAspectRatio="xMidYMid meet">
<g id="layer101" fill="#001c49" stroke="none">
 <path d="M3685 7994 c-492 -50 -861 -140 -1250 -306 -485 -206 -896 -486 -1275 -867 -634 -637 -1019 -1427 -1137 -2336 -26 -201 -26 -769 0 -970 61 -467 180 -866 382 -1280 196 -402 437 -738 765 -1065 642 -643 1430 -1028 2345 -1147 201 -26 769 -26 970 0 909 118 1700 503 2336 1137 328 327 552 635 754 1035 212 420 339 838 402 1320 26 201 26 769 0 970 -63 482 -190 900 -402 1320 -142 281 -311 538 -513 780 -102 121 -365 383 -482 480 -607 503 -1281 800 -2055 906 -121 17 -214 21 -475 24 -179 1 -343 1 -365 -1z"/>
 </g>
<g id="layer102" fill="#1459c9" stroke="none">
 <path d="M3685 7994 c-492 -50 -861 -140 -1250 -306 -485 -206 -896 -486 -1275 -867 -634 -637 -1019 -1427 -1137 -2336 -26 -201 -26 -769 0 -970 61 -467 180 -866 382 -1280 196 -402 437 -738 765 -1065 642 -643 1430 -1028 2345 -1147 201 -26 769 -26 970 0 909 118 1700 503 2336 1137 328 327 552 635 754 1035 212 420 339 838 402 1320 26 201 26 769 0 970 -63 482 -190 900 -402 1320 -142 281 -311 538 -513 780 -102 121 -365 383 -482 480 -607 503 -1281 800 -2055 906 -121 17 -214 21 -475 24 -179 1 -343 1 -365 -1z m-1431 -3624 c36 -38 68 -81 72 -93 7 -30 0 -315 -8 -323 -4 -3 -4 -12 -1 -20 6 -18 -1 -17 -112 1 -49 8 -105 18 -122 21 l-33 5 0 114 0 115 -50 0 -50 0 0 -197 c0 -191 -7 -380 -14 -392 -2 -3 0 -16 5 -29 8 -20 14 -23 56 -20 43 3 48 6 52 28 1 14 8 29 15 33 8 6 8 10 -1 14 -9 3 -13 26 -13 64 l0 60 48 -6 c92 -12 152 -27 152 -36 0 -6 -4 -7 -10 -4 -14 9 -12 -8 4 -30 11 -16 17 -17 29 -7 10 9 17 10 22 2 3 -6 10 -8 15 -5 13 8 18 -23 19 -117 1 -79 -2 -90 -25 -117 -14 -17 -32 -31 -40 -31 -8 0 -14 -5 -14 -12 0 -7 -17 -29 -37 -50 l-37 -38 -182 0 -182 0 -71 76 -71 76 0 420 0 420 72 74 71 74 187 0 188 0 66 -70z m293 54 c5 -15 7 -15 15 0 6 11 23 16 59 16 44 0 51 -3 59 -26 6 -14 10 -46 10 -72 0 -90 3 -93 79 -90 l66 3 10 80 c6 44 14 86 18 93 6 9 47 12 148 12 132 0 139 -1 139 -20 0 -24 -63 -444 -91 -605 -12 -66 -23 -131 -25 -145 -1 -13 -8 -26 -13 -28 -6 -2 -11 -8 -11 -13 0 -6 5 -7 10 -4 6 3 10 1 10 -4 0 -16 -16 -13 -36 6 -16 17 -17 15 -11 -40 3 -32 10 -64 16 -71 7 -9 6 -42 -4 -111 -8 -54 -15 -100 -15 -102 0 -2 -85 -3 -189 -3 -148 1 -192 5 -201 15 -7 8 -9 19 -5 24 3 6 6 60 6 121 0 109 1 110 25 116 l25 6 -22 16 c-18 12 -21 22 -16 59 2 24 2 45 -2 47 -4 3 -8 19 -9 38 -2 18 -7 37 -12 42 -4 4 -6 15 -3 22 3 9 -2 14 -16 14 -24 0 -24 0 -11 -34 5 -14 6 -26 2 -26 -4 0 -7 -27 -7 -59 -1 -34 -6 -66 -14 -75 -9 -11 -10 -20 -4 -28 6 -7 11 -35 12 -62 1 -26 4 -52 7 -57 3 -5 1 -16 -4 -25 -7 -12 -13 8 -21 72 -11 86 -16 123 -46 304 -87 538 -95 594 -83 602 7 4 44 8 81 8 53 0 69 -3 74 -16z m893 -14 c0 -16 -4 -30 -9 -30 -5 0 -16 -3 -24 -6 -8 -3 -21 2 -30 11 -14 14 -16 11 -22 -32 -3 -27 -8 -58 -11 -70 -3 -18 0 -23 17 -23 19 0 19 -1 5 -16 -18 -18 -21 -34 -6 -34 6 0 10 5 10 11 0 5 4 8 9 5 4 -3 16 3 26 14 24 26 37 25 35 -2 -1 -13 -2 -53 -1 -90 l1 -68 118 0 118 0 72 -73 72 -72 0 -158 c0 -118 -3 -157 -12 -158 -10 0 -10 -2 0 -6 8 -3 12 -30 12 -85 l0 -80 -52 -59 c-29 -32 -60 -59 -69 -59 -9 0 -19 -7 -23 -15 -7 -19 -82 -21 -89 -2 -4 10 -7 10 -18 0 -16 -16 -344 -18 -383 -3 l-26 10 0 126 c0 108 2 125 15 120 8 -3 15 -1 15 3 0 5 -7 11 -15 15 -13 4 -15 40 -15 231 0 137 4 224 9 220 5 -3 12 -1 16 5 3 6 -1 13 -9 16 -14 5 -16 33 -16 195 l0 189 140 0 140 0 0 -30z m748 17 c-15 -10 -15 -12 4 -29 12 -10 16 -18 8 -18 -10 0 -10 -3 0 -15 6 -8 9 -23 6 -33 -4 -12 0 -24 9 -32 13 -11 13 -15 3 -21 -11 -7 -11 -12 0 -29 9 -16 10 -25 3 -34 -6 -7 -12 -39 -14 -70 -1 -41 -6 -56 -17 -57 -11 -1 -10 -3 3 -6 19 -5 22 -18 7 -28 -7 -4 -8 -11 -1 -18 5 -7 9 -29 9 -51 0 -21 4 -42 9 -47 16 -16 34 16 34 58 -2 88 0 230 3 253 8 64 8 66 15 35 5 -23 11 -29 26 -26 19 3 19 2 2 -16 -9 -11 -17 -32 -17 -48 0 -34 16 -23 23 15 2 14 5 -122 6 -302 l1 -327 83 -3 82 -3 3 -129 c2 -95 -1 -131 -10 -137 -17 -11 -410 -10 -428 1 -9 5 -19 5 -26 -1 -7 -6 -41 -9 -76 -7 l-63 3 -3 138 -3 137 86 0 85 0 0 430 0 430 83 -1 c64 0 78 -3 65 -12z m519 -3 c5 -15 7 -15 15 0 6 11 23 16 59 16 44 0 51 -3 59 -26 6 -14 10 -46 10 -72 0 -90 3 -93 79 -90 l66 3 10 80 c6 44 14 86 18 93 6 9 75 12 288 12 l279 0 0 -28 c0 -33 -40 -60 -85 -56 -16 2 -45 4 -62 4 -40 2 -47 30 -8 30 28 0 33 15 8 24 -9 4 -20 1 -24 -6 -6 -10 -15 -10 -38 -1 -45 16 -70 6 -76 -31 -2 -17 -16 -110 -30 -206 -15 -96 -38 -242 -52 -325 -14 -82 -27 -161 -29 -175 -1 -13 -8 -26 -13 -28 -6 -2 -11 -8 -11 -13 0 -6 5 -7 10 -4 6 3 10 1 10 -4 0 -16 -16 -13 -36 6 -16 17 -17 15 -11 -40 3 -32 10 -64 16 -71 7 -9 6 -42 -4 -111 -8 -54 -15 -100 -15 -102 0 -2 -85 -3 -189 -3 -148 1 -192 5 -201 15 -7 8 -9 19 -5 24 3 6 6 60 6 121 0 109 1 110 25 116 l25 6 -22 16 c-18 12 -21 22 -16 59 2 24 2 45 -2 47 -4 3 -8 19 -9 38 -2 18 -7 37 -12 42 -4 4 -6 15 -3 22 3 9 -2 14 -16 14 -24 0 -24 0 -11 -34 5 -14 6 -26 2 -26 -4 0 -7 -27 -7 -59 -1 -34 -6 -66 -14 -75 -9 -11 -10 -20 -4 -28 6 -7 11 -35 12 -62 1 -26 4 -52 7 -57 3 -5 1 -16 -4 -25 -7 -12 -13 8 -21 72 -11 86 -16 123 -46 304 -87 538 -95 594 -83 602 7 4 44 8 81 8 53 0 69 -3 74 -16z m1160 -241 c1 -139 -2 -255 -6 -257 -4 -3 -25 -1 -47 4 -23 6 -40 5 -42 0 -2 -5 -17 -7 -33 -3 -16 3 -29 2 -29 -3 0 -13 20 -41 20 -29 0 15 122 13 127 -2 2 -6 0 -41 -5 -77 -5 -36 -6 -66 -3 -66 3 0 20 53 37 118 18 64 55 180 83 257 29 77 66 179 84 228 l31 87 153 0 153 0 0 -253 c0 -177 -3 -256 -11 -264 -7 -7 -25 -9 -43 -6 -22 4 -28 2 -21 -5 6 -6 24 -12 40 -14 l30 -3 3 -294 c2 -256 0 -293 -13 -288 -8 4 -17 2 -20 -3 -8 -12 -175 -13 -194 -1 -11 7 -12 60 -7 307 3 165 8 319 11 344 3 26 -9 -5 -29 -75 -32 -113 -159 -481 -191 -553 l-15 -33 -152 3 -153 3 -3 296 -2 296 22 11 23 11 -22 0 -23 1 0 261 0 260 123 -3 122 -3 2 -252z m-1557 180 c-1 -59 -2 -66 -14 -50 -9 11 -20 15 -31 11 -13 -5 -16 -3 -13 7 3 8 12 13 21 13 14 -1 31 37 26 62 -2 13 0 24 6 24 3 0 5 -30 5 -67z m-876 -40 c-7 -2 -10 -13 -7 -23 3 -11 1 -20 -3 -21 -5 0 -19 -2 -31 -5 -18 -3 -23 1 -23 16 0 12 8 23 18 26 9 3 24 9 32 14 8 4 17 5 20 2 3 -2 0 -7 -6 -9z m2114 2 c38 1 42 -1 42 -22 0 -13 -6 -23 -14 -23 -12 0 -12 -5 1 -31 21 -42 10 -47 -85 -43 -43 1 -101 3 -130 3 -38 1 -52 5 -49 14 2 6 17 12 33 12 16 0 34 3 39 7 6 4 32 6 58 4 26 -1 47 1 47 6 0 4 7 8 16 8 8 0 12 5 9 10 -5 8 -11 8 -20 0 -9 -7 -25 -5 -58 9 -29 13 -49 16 -53 10 -4 -7 -10 -6 -19 1 -7 6 -19 9 -26 8 -8 -2 -14 4 -14 12 0 12 13 15 68 13 37 -2 67 2 67 7 0 6 9 6 23 2 12 -5 41 -8 65 -7z m39 -149 c-4 -13 -19 -14 -249 -15 -26 0 -22 17 5 21 12 2 73 4 135 4 79 1 112 -2 109 -10z m-68 -40 c33 5 39 2 51 -23 7 -15 15 -55 18 -88 4 -55 3 -58 -14 -45 -18 16 -28 18 -109 22 -27 2 -56 7 -62 11 -8 5 -13 4 -13 -2 0 -14 -37 -14 -45 -1 -3 5 0 7 8 4 8 -3 17 2 21 11 3 9 2 13 -4 10 -6 -3 -10 1 -10 9 0 8 9 18 20 21 22 7 28 35 8 35 -41 -1 -60 -13 -55 -37 3 -15 0 -22 -7 -20 -18 6 -19 36 -1 63 14 21 22 24 63 22 26 -2 50 -7 53 -12 4 -5 13 1 20 13 8 11 15 17 17 11 2 -5 20 -7 41 -4z m24 -207 c21 21 47 13 47 -14 0 -26 -15 -34 -23 -12 -3 9 -9 9 -23 1 -20 -11 -94 -7 -94 5 0 20 24 29 52 19 21 -8 33 -7 41 1z m-123 -23 c0 -7 -19 -11 -50 -11 -49 0 -68 13 -35 25 25 9 85 -1 85 -14z m-90 -66 c0 -6 9 -6 26 0 57 22 110 6 84 -25 -9 -11 -17 -11 -37 -2 -18 8 -29 8 -44 -1 -31 -19 -49 -15 -49 13 0 14 5 25 10 25 6 0 10 -4 10 -10z m255 -1 c7 -10 7 -10 -57 -15 -31 -2 -48 1 -51 10 -6 15 99 20 108 5z m-250 -80 c4 -6 13 -8 21 -5 7 3 16 1 19 -3 8 -14 53 -19 64 -8 8 8 11 8 11 0 0 -6 8 -9 19 -6 10 3 22 0 26 -7 5 -8 11 -6 20 7 12 15 16 16 27 4 11 -12 11 -13 -1 -6 -10 6 -12 1 -6 -23 6 -28 3 -32 -19 -38 -36 -9 -22 -24 21 -24 32 0 35 2 31 25 -6 30 8 34 17 5 4 -12 -1 -29 -12 -44 -15 -21 -25 -25 -63 -23 -25 1 -48 7 -52 12 -5 6 -11 5 -17 -4 -11 -17 -101 -22 -101 -5 0 6 -6 16 -13 22 -15 13 -23 132 -8 132 5 0 13 -5 16 -11z m-3031 -45 c25 -9 19 -24 -9 -24 -16 0 -25 6 -25 15 0 16 9 19 34 9z m3256 -134 c23 -1 24 -2 4 -10 -33 -13 -247 -17 -251 -3 -3 7 18 11 63 12 37 0 69 2 70 4 2 2 23 2 46 1 24 -2 54 -3 68 -4z m28 -54 c2 -3 1 -9 -3 -15 -8 -14 -42 -14 -50 -1 -4 6 -12 4 -21 -5 -16 -16 -34 -20 -34 -7 0 4 -16 7 -35 7 -19 0 -35 -3 -35 -7 0 -5 -7 -8 -15 -8 -8 0 -15 -5 -15 -11 0 -7 9 -9 21 -6 12 3 41 -1 65 -9 23 -8 46 -14 51 -13 4 1 13 0 18 -1 6 -1 18 -3 27 -4 10 0 18 -5 18 -11 0 -12 -128 -22 -212 -17 -49 3 -58 7 -58 23 0 10 7 19 15 19 19 0 19 9 0 34 -34 45 -25 49 122 42 75 -3 138 -8 141 -10z m-122 -146 c14 0 24 -6 24 -14 0 -9 -8 -12 -25 -8 -26 5 -33 -6 -14 -25 9 -9 16 -9 30 0 13 8 24 8 42 0 14 -7 35 -9 47 -6 17 4 21 2 18 -8 -4 -11 -33 -14 -139 -14 l-134 0 -3 27 c-5 39 31 61 87 54 24 -3 54 -6 67 -6z m114 -10 c0 -5 -7 -10 -15 -10 -8 0 -15 5 -15 10 0 6 7 10 15 10 8 0 15 -4 15 -10z"/>
 <path d="M1706 3915 c-8 -23 -9 -22 14 -28 27 -7 31 4 10 26 -16 16 -18 16 -24 2z"/>
 <path d="M1790 3891 c0 -12 5 -21 10 -21 6 0 10 6 10 14 0 8 -4 18 -10 21 -5 3 -10 -3 -10 -14z"/>
 <path d="M2176 3694 c-8 -20 0 -32 14 -18 5 5 5 15 1 22 -6 11 -10 10 -15 -4z"/>
 <path d="M2108 3693 c-26 -7 -22 -20 7 -25 25 -5 51 13 38 25 -7 7 -18 7 -45 0z"/>
 <path d="M1910 3670 c0 -11 5 -20 10 -20 6 0 10 9 10 20 0 11 -4 20 -10 20 -5 0 -10 -9 -10 -20z"/>
 <path d="M1798 3673 c-10 -2 -18 -9 -18 -15 0 -5 7 -8 15 -4 9 3 15 0 15 -9 0 -8 9 -15 20 -15 11 0 20 5 20 10 0 6 -4 10 -10 10 -5 0 -10 7 -10 15 0 15 -2 16 -32 8z"/>
 <path d="M1900 3400 c0 -7 -13 -9 -35 -6 -39 6 -45 -3 -15 -21 12 -8 21 -9 25 -3 3 6 15 10 26 10 20 0 26 15 9 25 -5 3 -10 1 -10 -5z"/>
 <path d="M1936 3392 c-13 -12 -5 -23 9 -12 9 7 15 8 15 2 0 -15 90 -20 102 -5 8 10 4 13 -18 15 -16 1 -46 2 -66 4 -20 1 -39 -1 -42 -4z"/>
 <path d="M2097 3393 c-12 -11 -8 -23 8 -23 8 0 15 7 15 15 0 16 -12 20 -23 8z"/>
 <path d="M2860 4331 c0 -5 7 -12 16 -15 24 -9 27 -7 10 9 -17 17 -26 19 -26 6z"/>
 <path d="M2566 4160 c-18 -18 -18 -20 -2 -26 20 -8 52 19 42 35 -10 15 -18 13 -40 -9z"/>
 <path d="M2560 4105 c0 -8 7 -15 15 -15 8 0 15 7 15 15 0 8 -7 15 -15 15 -8 0 -15 -7 -15 -15z"/>
 <path d="M2567 4005 c-4 -8 -2 -17 3 -20 6 -4 10 -4 10 -1 0 2 3 11 6 20 3 9 2 16 -4 16 -5 0 -12 -7 -15 -15z"/>
 <path d="M2710 3987 c0 -1 11 -81 25 -177 14 -96 25 -190 25 -208 0 -20 4 -31 10 -27 6 3 10 27 10 53 0 26 9 110 20 187 27 190 30 175 -35 175 -30 0 -55 -1 -55 -3z"/>
 <path d="M2540 3941 c0 -24 21 -62 33 -58 6 2 11 10 9 17 -1 7 2 18 8 25 8 9 5 14 -12 19 -32 8 -38 7 -38 -3z"/>
 <path d="M2485 3880 c-3 -5 1 -10 9 -10 8 0 18 5 21 10 3 6 -1 10 -9 10 -8 0 -18 -4 -21 -10z"/>
 <path d="M2560 3840 c0 -5 7 -10 15 -10 8 0 15 5 15 10 0 6 -7 10 -15 10 -8 0 -15 -4 -15 -10z"/>
 <path d="M2504 3746 c-8 -22 3 -33 18 -18 9 9 9 15 0 24 -9 9 -13 7 -18 -6z"/>
 <path d="M2663 3653 c-16 -33 -12 -37 20 -20 25 13 26 15 9 30 -16 14 -18 14 -29 -10z"/>
 <path d="M2793 3655 c-9 -25 2 -27 22 -5 17 18 17 20 1 20 -9 0 -19 -7 -23 -15z"/>
 <path d="M3260 4394 c0 -14 3 -15 18 -3 9 7 19 15 21 16 2 2 -5 3 -17 3 -14 0 -22 -6 -22 -16z"/>
 <path d="M3230 4352 c-19 -13 -24 -24 -22 -49 2 -25 -1 -33 -18 -38 -32 -10 -18 -30 21 -29 19 0 37 -5 41 -10 11 -16 21 1 21 34 0 18 6 30 14 30 7 0 13 5 13 11 0 6 9 9 20 6 18 -5 18 -4 3 20 -12 18 -18 21 -24 11 -6 -9 -9 -6 -9 10 0 27 -25 29 -60 4z"/>
 <path d="M3297 4273 c-13 -13 -7 -21 13 -16 11 3 20 9 20 14 0 10 -24 12 -33 2z"/>
 <path d="M3255 4150 c-3 -5 1 -10 10 -10 9 0 14 -4 11 -8 -10 -16 10 -30 37 -25 37 7 34 26 -6 41 -40 15 -44 15 -52 2z"/>
 <path d="M3316 4040 c14 -27 34 -41 34 -22 -1 9 -36 52 -43 52 -3 0 1 -13 9 -30z"/>
 <path d="M3432 4003 c-10 -4 -10 -8 -1 -19 13 -15 39 -19 39 -5 0 14 -24 29 -38 24z"/>
 <path d="M3190 3900 c0 -5 11 -9 24 -8 14 1 22 6 20 10 -7 12 -44 10 -44 -2z"/>
 <path d="M3440 3690 l0 -140 44 0 c24 0 51 3 60 6 17 7 22 34 6 34 -6 0 -10 47 -10 120 l0 120 -50 0 -50 0 0 -140z"/>
 <path d="M3620 3601 c0 -6 5 -13 10 -16 6 -3 10 -2 10 4 0 6 7 8 15 5 8 -4 15 -1 15 5 0 6 -11 11 -25 11 -14 0 -25 -4 -25 -9z"/>
 <path d="M4273 4120 c-1 -22 2 -40 6 -40 10 0 19 50 13 68 -8 25 -18 10 -19 -28z"/>
 <path d="M4277 4063 c-11 -10 -8 -83 3 -83 6 0 10 20 10 45 0 46 -2 50 -13 38z"/>
 <path d="M4270 3945 c0 -8 5 -15 10 -15 6 0 10 7 10 15 0 8 -4 15 -10 15 -5 0 -10 -7 -10 -15z"/>
 <path d="M4230 3761 c0 -12 5 -21 10 -21 6 0 10 6 10 14 0 8 -4 18 -10 21 -5 3 -10 -3 -10 -14z"/>
 <path d="M4216 3704 c-9 -22 -8 -24 9 -24 8 0 15 9 15 20 0 24 -15 27 -24 4z"/>
 <path d="M4220 3644 c-13 -32 -13 -37 1 -32 11 4 23 58 13 58 -2 0 -9 -12 -14 -26z"/>
 <path d="M4214 3574 c3 -9 6 -20 6 -25 0 -6 4 -8 9 -5 12 8 2 46 -11 46 -6 0 -7 -7 -4 -16z"/>
 <path d="M4210 3505 c0 -8 5 -15 10 -15 6 0 10 7 10 15 0 8 -4 15 -10 15 -5 0 -10 -7 -10 -15z"/>
 <path d="M4207 3360 c-3 -11 -1 -20 4 -20 5 0 9 2 9 4 0 2 3 11 6 20 3 9 2 16 -4 16 -5 0 -12 -9 -15 -20z"/>
 <path d="M5020 4331 c0 -5 7 -12 16 -15 24 -9 27 -7 10 9 -17 17 -26 19 -26 6z"/>
 <path d="M4726 4160 c-18 -18 -18 -20 -2 -26 20 -8 52 19 42 35 -10 15 -18 13 -40 -9z"/>
 <path d="M4720 4105 c0 -8 7 -15 15 -15 8 0 15 7 15 15 0 8 -7 15 -15 15 -8 0 -15 -7 -15 -15z"/>
 <path d="M4727 4005 c-4 -8 -2 -17 3 -20 6 -4 10 -4 10 -1 0 2 3 11 6 20 3 9 2 16 -4 16 -5 0 -12 -7 -15 -15z"/>
 <path d="M4870 3987 c0 -1 11 -81 25 -177 14 -96 25 -190 25 -208 0 -20 4 -31 10 -27 6 3 10 27 10 53 0 26 9 110 20 187 27 190 30 175 -35 175 -30 0 -55 -1 -55 -3z"/>
 <path d="M4700 3941 c0 -24 21 -62 33 -58 6 2 11 10 9 17 -1 7 2 18 8 25 8 9 5 14 -12 19 -32 8 -38 7 -38 -3z"/>
 <path d="M4645 3880 c-3 -5 1 -10 9 -10 8 0 18 5 21 10 3 6 -1 10 -9 10 -8 0 -18 -4 -21 -10z"/>
 <path d="M4720 3840 c0 -5 7 -10 15 -10 8 0 15 5 15 10 0 6 -7 10 -15 10 -8 0 -15 -4 -15 -10z"/>
 <path d="M4664 3746 c-8 -22 3 -33 18 -18 9 9 9 15 0 24 -9 9 -13 7 -18 -6z"/>
 <path d="M4823 3653 c-16 -33 -12 -37 20 -20 25 13 26 15 9 30 -16 14 -18 14 -29 -10z"/>
 <path d="M4953 3655 c-9 -25 2 -27 22 -5 17 18 17 20 1 20 -9 0 -19 -7 -23 -15z"/>
 <path d="M6175 4190 c-14 -16 -15 -20 -4 -20 11 0 14 -10 12 -37 -2 -21 0 -31 4 -23 3 8 12 19 20 23 8 5 11 17 7 35 -10 40 -18 45 -39 22z"/>
 <path d="M6270 4201 c0 -5 9 -7 20 -4 23 6 26 -6 8 -27 -11 -12 -10 -12 5 -1 25 20 21 41 -8 41 -14 0 -25 -4 -25 -9z"/>
 <path d="M5820 4176 c0 -9 7 -16 16 -16 9 0 14 5 12 12 -6 18 -28 21 -28 4z"/>
 <path d="M6245 4161 c-6 -11 9 -23 19 -14 9 9 7 23 -3 23 -6 0 -12 -4 -16 -9z"/>
 <path d="M6280 4137 c0 -9 -7 -17 -15 -17 -8 0 -15 -7 -15 -15 0 -12 4 -14 19 -5 27 14 35 30 22 43 -8 8 -11 6 -11 -6z"/>
 <path d="M5780 4120 c0 -6 5 -10 11 -10 5 0 8 -4 4 -9 -3 -5 -1 -12 5 -16 5 -3 10 3 10 13 0 11 -7 22 -15 26 -8 3 -15 1 -15 -4z"/>
 <path d="M6215 3915 l-30 -13 43 -1 c30 -1 42 3 40 11 -6 18 -20 19 -53 3z"/>
 <path d="M5776 3494 c-8 -22 -8 -22 14 -34 17 -9 20 -8 20 14 0 27 -25 42 -34 20z"/>
 <path d="M5490 4045 c0 -9 6 -12 15 -9 8 4 15 10 15 15 0 5 -7 9 -15 9 -8 0 -15 -7 -15 -15z"/>
 <path d="M5390 3710 c-12 -7 -12 -12 -3 -21 15 -15 26 -7 21 15 -2 11 -7 13 -18 6z"/>
 </g>
<g id="layer103" fill="#3b84fe" stroke="none">
 <path d="M3670 7770 c-732 -69 -1454 -359 -2000 -803 -327 -266 -580 -542 -797 -867 -336 -505 -528 -1027 -609 -1665 -26 -197 -26 -653 0 -850 41 -321 101 -578 203 -864 392 -1106 1333 -1996 2457 -2322 551 -160 1085 -199 1631 -118 961 141 1800 624 2412 1392 462 578 734 1261 802 2017 6 63 11 207 11 320 0 516 -94 984 -291 1453 -529 1258 -1681 2127 -3039 2292 -158 19 -635 28 -780 15z m-1416 -3400 c36 -38 68 -81 72 -93 7 -30 0 -315 -8 -323 -4 -3 -4 -12 -1 -20 6 -18 -1 -17 -112 1 -49 8 -105 18 -122 21 l-33 5 0 114 0 115 -50 0 -50 0 0 -197 c0 -191 -7 -380 -14 -392 -2 -3 0 -16 5 -29 8 -20 14 -23 56 -20 43 3 48 6 52 28 1 14 8 29 15 33 8 6 8 10 -1 14 -9 3 -13 26 -13 64 l0 60 48 -6 c92 -12 152 -27 152 -36 0 -6 -4 -7 -10 -4 -14 9 -12 -8 4 -30 11 -16 17 -17 29 -7 10 9 17 10 22 2 3 -6 10 -8 15 -5 13 8 18 -23 19 -117 1 -79 -2 -90 -25 -117 -14 -17 -32 -31 -40 -31 -8 0 -14 -5 -14 -12 0 -7 -17 -29 -37 -50 l-37 -38 -182 0 -182 0 -71 76 -71 76 0 420 0 420 72 74 71 74 187 0 188 0 66 -70z m293 54 c5 -15 7 -15 15 0 6 11 23 16 59 16 44 0 51 -3 59 -26 6 -14 10 -46 10 -72 0 -90 3 -93 79 -90 l66 3 10 80 c6 44 14 86 18 93 6 9 47 12 148 12 132 0 139 -1 139 -20 0 -24 -63 -444 -91 -605 -12 -66 -23 -131 -25 -145 -1 -13 -8 -26 -13 -28 -6 -2 -11 -8 -11 -13 0 -6 5 -7 10 -4 6 3 10 1 10 -4 0 -16 -16 -13 -36 6 -16 17 -17 15 -11 -40 3 -32 10 -64 16 -71 7 -9 6 -42 -4 -111 -8 -54 -15 -100 -15 -102 0 -2 -85 -3 -189 -3 -148 1 -192 5 -201 15 -7 8 -9 19 -5 24 3 6 6 60 6 121 0 109 1 110 25 116 l25 6 -22 16 c-18 12 -21 22 -16 59 2 24 2 45 -2 47 -4 3 -8 19 -9 38 -2 18 -7 37 -12 42 -4 4 -6 15 -3 22 3 9 -2 14 -16 14 -24 0 -24 0 -11 -34 5 -14 6 -26 2 -26 -4 0 -7 -27 -7 -59 -1 -34 -6 -66 -14 -75 -9 -11 -10 -20 -4 -28 6 -7 11 -35 12 -62 1 -26 4 -52 7 -57 3 -5 1 -16 -4 -25 -7 -12 -13 8 -21 72 -11 86 -16 123 -46 304 -87 538 -95 594 -83 602 7 4 44 8 81 8 53 0 69 -3 74 -16z m893 -14 c0 -16 -4 -30 -9 -30 -5 0 -16 -3 -24 -6 -8 -3 -21 2 -30 11 -14 14 -16 11 -22 -32 -3 -27 -8 -58 -11 -70 -3 -18 0 -23 17 -23 19 0 19 -1 5 -16 -18 -18 -21 -34 -6 -34 6 0 10 5 10 11 0 5 4 8 9 5 4 -3 16 3 26 14 24 26 37 25 35 -2 -1 -13 -2 -53 -1 -90 l1 -68 118 0 118 0 72 -73 72 -72 0 -158 c0 -118 -3 -157 -12 -158 -10 0 -10 -2 0 -6 8 -3 12 -30 12 -85 l0 -80 -52 -59 c-29 -32 -60 -59 -69 -59 -9 0 -19 -7 -23 -15 -7 -19 -82 -21 -89 -2 -4 10 -7 10 -18 0 -16 -16 -344 -18 -383 -3 l-26 10 0 126 c0 108 2 125 15 120 8 -3 15 -1 15 3 0 5 -7 11 -15 15 -13 4 -15 40 -15 231 0 137 4 224 9 220 5 -3 12 -1 16 5 3 6 -1 13 -9 16 -14 5 -16 33 -16 195 l0 189 140 0 140 0 0 -30z m748 17 c-15 -10 -15 -12 4 -29 12 -10 16 -18 8 -18 -10 0 -10 -3 0 -15 6 -8 9 -23 6 -33 -4 -12 0 -24 9 -32 13 -11 13 -15 3 -21 -11 -7 -11 -12 0 -29 9 -16 10 -25 3 -34 -6 -7 -12 -39 -14 -70 -1 -41 -6 -56 -17 -57 -11 -1 -10 -3 3 -6 19 -5 22 -18 7 -28 -7 -4 -8 -11 -1 -18 5 -7 9 -29 9 -51 0 -21 4 -42 9 -47 16 -16 34 16 34 58 -2 88 0 230 3 253 8 64 8 66 15 35 5 -23 11 -29 26 -26 19 3 19 2 2 -16 -9 -11 -17 -32 -17 -48 0 -34 16 -23 23 15 2 14 5 -122 6 -302 l1 -327 83 -3 82 -3 3 -129 c2 -95 -1 -131 -10 -137 -17 -11 -410 -10 -428 1 -9 5 -19 5 -26 -1 -7 -6 -41 -9 -76 -7 l-63 3 -3 138 -3 137 86 0 85 0 0 430 0 430 83 -1 c64 0 78 -3 65 -12z m519 -3 c5 -15 7 -15 15 0 6 11 23 16 59 16 44 0 51 -3 59 -26 6 -14 10 -46 10 -72 0 -90 3 -93 79 -90 l66 3 10 80 c6 44 14 86 18 93 6 9 75 12 288 12 l279 0 0 -28 c0 -33 -40 -60 -85 -56 -16 2 -45 4 -62 4 -40 2 -47 30 -8 30 28 0 33 15 8 24 -9 4 -20 1 -24 -6 -6 -10 -15 -10 -38 -1 -45 16 -70 6 -76 -31 -2 -17 -16 -110 -30 -206 -15 -96 -38 -242 -52 -325 -14 -82 -27 -161 -29 -175 -1 -13 -8 -26 -13 -28 -6 -2 -11 -8 -11 -13 0 -6 5 -7 10 -4 6 3 10 1 10 -4 0 -16 -16 -13 -36 6 -16 17 -17 15 -11 -40 3 -32 10 -64 16 -71 7 -9 6 -42 -4 -111 -8 -54 -15 -100 -15 -102 0 -2 -85 -3 -189 -3 -148 1 -192 5 -201 15 -7 8 -9 19 -5 24 3 6 6 60 6 121 0 109 1 110 25 116 l25 6 -22 16 c-18 12 -21 22 -16 59 2 24 2 45 -2 47 -4 3 -8 19 -9 38 -2 18 -7 37 -12 42 -4 4 -6 15 -3 22 3 9 -2 14 -16 14 -24 0 -24 0 -11 -34 5 -14 6 -26 2 -26 -4 0 -7 -27 -7 -59 -1 -34 -6 -66 -14 -75 -9 -11 -10 -20 -4 -28 6 -7 11 -35 12 -62 1 -26 4 -52 7 -57 3 -5 1 -16 -4 -25 -7 -12 -13 8 -21 72 -11 86 -16 123 -46 304 -87 538 -95 594 -83 602 7 4 44 8 81 8 53 0 69 -3 74 -16z m1160 -241 c1 -139 -2 -255 -6 -257 -4 -3 -25 -1 -47 4 -23 6 -40 5 -42 0 -2 -5 -17 -7 -33 -3 -16 3 -29 2 -29 -3 0 -13 20 -41 20 -29 0 15 122 13 127 -2 2 -6 0 -41 -5 -77 -5 -36 -6 -66 -3 -66 3 0 20 53 37 118 18 64 55 180 83 257 29 77 66 179 84 228 l31 87 153 0 153 0 0 -253 c0 -177 -3 -256 -11 -264 -7 -7 -25 -9 -43 -6 -22 4 -28 2 -21 -5 6 -6 24 -12 40 -14 l30 -3 3 -294 c2 -256 0 -293 -13 -288 -8 4 -17 2 -20 -3 -8 -12 -175 -13 -194 -1 -11 7 -12 60 -7 307 3 165 8 319 11 344 3 26 -9 -5 -29 -75 -32 -113 -159 -481 -191 -553 l-15 -33 -152 3 -153 3 -3 296 -2 296 22 11 23 11 -22 0 -23 1 0 261 0 260 123 -3 122 -3 2 -252z m-1557 180 c-1 -59 -2 -66 -14 -50 -9 11 -20 15 -31 11 -13 -5 -16 -3 -13 7 3 8 12 13 21 13 14 -1 31 37 26 62 -2 13 0 24 6 24 3 0 5 -30 5 -67z m-876 -40 c-7 -2 -10 -13 -7 -23 3 -11 1 -20 -3 -21 -5 0 -19 -2 -31 -5 -18 -3 -23 1 -23 16 0 12 8 23 18 26 9 3 24 9 32 14 8 4 17 5 20 2 3 -2 0 -7 -6 -9z m2114 2 c38 1 42 -1 42 -22 0 -13 -6 -23 -14 -23 -12 0 -12 -5 1 -31 21 -42 10 -47 -85 -43 -43 1 -101 3 -130 3 -38 1 -52 5 -49 14 2 6 17 12 33 12 16 0 34 3 39 7 6 4 32 6 58 4 26 -1 47 1 47 6 0 4 7 8 16 8 8 0 12 5 9 10 -5 8 -11 8 -20 0 -9 -7 -25 -5 -58 9 -29 13 -49 16 -53 10 -4 -7 -10 -6 -19 1 -7 6 -19 9 -26 8 -8 -2 -14 4 -14 12 0 12 13 15 68 13 37 -2 67 2 67 7 0 6 9 6 23 2 12 -5 41 -8 65 -7z m39 -149 c-4 -13 -19 -14 -249 -15 -26 0 -22 17 5 21 12 2 73 4 135 4 79 1 112 -2 109 -10z m-68 -40 c33 5 39 2 51 -23 7 -15 15 -55 18 -88 4 -55 3 -58 -14 -45 -18 16 -28 18 -109 22 -27 2 -56 7 -62 11 -8 5 -13 4 -13 -2 0 -14 -37 -14 -45 -1 -3 5 0 7 8 4 8 -3 17 2 21 11 3 9 2 13 -4 10 -6 -3 -10 1 -10 9 0 8 9 18 20 21 22 7 28 35 8 35 -41 -1 -60 -13 -55 -37 3 -15 0 -22 -7 -20 -18 6 -19 36 -1 63 14 21 22 24 63 22 26 -2 50 -7 53 -12 4 -5 13 1 20 13 8 11 15 17 17 11 2 -5 20 -7 41 -4z m24 -207 c21 21 47 13 47 -14 0 -26 -15 -34 -23 -12 -3 9 -9 9 -23 1 -20 -11 -94 -7 -94 5 0 20 24 29 52 19 21 -8 33 -7 41 1z m-123 -23 c0 -7 -19 -11 -50 -11 -49 0 -68 13 -35 25 25 9 85 -1 85 -14z m-90 -66 c0 -6 9 -6 26 0 57 22 110 6 84 -25 -9 -11 -17 -11 -37 -2 -18 8 -29 8 -44 -1 -31 -19 -49 -15 -49 13 0 14 5 25 10 25 6 0 10 -4 10 -10z m255 -1 c7 -10 7 -10 -57 -15 -31 -2 -48 1 -51 10 -6 15 99 20 108 5z m-250 -80 c4 -6 13 -8 21 -5 7 3 16 1 19 -3 8 -14 53 -19 64 -8 8 8 11 8 11 0 0 -6 8 -9 19 -6 10 3 22 0 26 -7 5 -8 11 -6 20 7 12 15 16 16 27 4 11 -12 11 -13 -1 -6 -10 6 -12 1 -6 -23 6 -28 3 -32 -19 -38 -36 -9 -22 -24 21 -24 32 0 35 2 31 25 -6 30 8 34 17 5 4 -12 -1 -29 -12 -44 -15 -21 -25 -25 -63 -23 -25 1 -48 7 -52 12 -5 6 -11 5 -17 -4 -11 -17 -101 -22 -101 -5 0 6 -6 16 -13 22 -15 13 -23 132 -8 132 5 0 13 -5 16 -11z m-3031 -45 c25 -9 19 -24 -9 -24 -16 0 -25 6 -25 15 0 16 9 19 34 9z m3256 -134 c23 -1 24 -2 4 -10 -33 -13 -247 -17 -251 -3 -3 7 18 11 63 12 37 0 69 2 70 4 2 2 23 2 46 1 24 -2 54 -3 68 -4z m28 -54 c2 -3 1 -9 -3 -15 -8 -14 -42 -14 -50 -1 -4 6 -12 4 -21 -5 -16 -16 -34 -20 -34 -7 0 4 -16 7 -35 7 -19 0 -35 -3 -35 -7 0 -5 -7 -8 -15 -8 -8 0 -15 -5 -15 -11 0 -7 9 -9 21 -6 12 3 41 -1 65 -9 23 -8 46 -14 51 -13 4 1 13 0 18 -1 6 -1 18 -3 27 -4 10 0 18 -5 18 -11 0 -12 -128 -22 -212 -17 -49 3 -58 7 -58 23 0 10 7 19 15 19 19 0 19 9 0 34 -34 45 -25 49 122 42 75 -3 138 -8 141 -10z m-122 -146 c14 0 24 -6 24 -14 0 -9 -8 -12 -25 -8 -26 5 -33 -6 -14 -25 9 -9 16 -9 30 0 13 8 24 8 42 0 14 -7 35 -9 47 -6 17 4 21 2 18 -8 -4 -11 -33 -14 -139 -14 l-134 0 -3 27 c-5 39 31 61 87 54 24 -3 54 -6 67 -6z m114 -10 c0 -5 -7 -10 -15 -10 -8 0 -15 5 -15 10 0 6 7 10 15 10 8 0 15 -4 15 -10z"/>
 <path d="M1706 3915 c-8 -23 -9 -22 14 -28 27 -7 31 4 10 26 -16 16 -18 16 -24 2z"/>
 <path d="M1790 3891 c0 -12 5 -21 10 -21 6 0 10 6 10 14 0 8 -4 18 -10 21 -5 3 -10 -3 -10 -14z"/>
 <path d="M2176 3694 c-8 -20 0 -32 14 -18 5 5 5 15 1 22 -6 11 -10 10 -15 -4z"/>
 <path d="M2108 3693 c-26 -7 -22 -20 7 -25 25 -5 51 13 38 25 -7 7 -18 7 -45 0z"/>
 <path d="M1910 3670 c0 -11 5 -20 10 -20 6 0 10 9 10 20 0 11 -4 20 -10 20 -5 0 -10 -9 -10 -20z"/>
 <path d="M1798 3673 c-10 -2 -18 -9 -18 -15 0 -5 7 -8 15 -4 9 3 15 0 15 -9 0 -8 9 -15 20 -15 11 0 20 5 20 10 0 6 -4 10 -10 10 -5 0 -10 7 -10 15 0 15 -2 16 -32 8z"/>
 <path d="M1900 3400 c0 -7 -13 -9 -35 -6 -39 6 -45 -3 -15 -21 12 -8 21 -9 25 -3 3 6 15 10 26 10 20 0 26 15 9 25 -5 3 -10 1 -10 -5z"/>
 <path d="M1936 3392 c-13 -12 -5 -23 9 -12 9 7 15 8 15 2 0 -15 90 -20 102 -5 8 10 4 13 -18 15 -16 1 -46 2 -66 4 -20 1 -39 -1 -42 -4z"/>
 <path d="M2097 3393 c-12 -11 -8 -23 8 -23 8 0 15 7 15 15 0 16 -12 20 -23 8z"/>
 <path d="M2860 4331 c0 -5 7 -12 16 -15 24 -9 27 -7 10 9 -17 17 -26 19 -26 6z"/>
 <path d="M2566 4160 c-18 -18 -18 -20 -2 -26 20 -8 52 19 42 35 -10 15 -18 13 -40 -9z"/>
 <path d="M2560 4105 c0 -8 7 -15 15 -15 8 0 15 7 15 15 0 8 -7 15 -15 15 -8 0 -15 -7 -15 -15z"/>
 <path d="M2567 4005 c-4 -8 -2 -17 3 -20 6 -4 10 -4 10 -1 0 2 3 11 6 20 3 9 2 16 -4 16 -5 0 -12 -7 -15 -15z"/>
 <path d="M2710 3987 c0 -1 11 -81 25 -177 14 -96 25 -190 25 -208 0 -20 4 -31 10 -27 6 3 10 27 10 53 0 26 9 110 20 187 27 190 30 175 -35 175 -30 0 -55 -1 -55 -3z"/>
 <path d="M2540 3941 c0 -24 21 -62 33 -58 6 2 11 10 9 17 -1 7 2 18 8 25 8 9 5 14 -12 19 -32 8 -38 7 -38 -3z"/>
 <path d="M2485 3880 c-3 -5 1 -10 9 -10 8 0 18 5 21 10 3 6 -1 10 -9 10 -8 0 -18 -4 -21 -10z"/>
 <path d="M2560 3840 c0 -5 7 -10 15 -10 8 0 15 5 15 10 0 6 -7 10 -15 10 -8 0 -15 -4 -15 -10z"/>
 <path d="M2504 3746 c-8 -22 3 -33 18 -18 9 9 9 15 0 24 -9 9 -13 7 -18 -6z"/>
 <path d="M2663 3653 c-16 -33 -12 -37 20 -20 25 13 26 15 9 30 -16 14 -18 14 -29 -10z"/>
 <path d="M2793 3655 c-9 -25 2 -27 22 -5 17 18 17 20 1 20 -9 0 -19 -7 -23 -15z"/>
 <path d="M3260 4394 c0 -14 3 -15 18 -3 9 7 19 15 21 16 2 2 -5 3 -17 3 -14 0 -22 -6 -22 -16z"/>
 <path d="M3230 4352 c-19 -13 -24 -24 -22 -49 2 -25 -1 -33 -18 -38 -32 -10 -18 -30 21 -29 19 0 37 -5 41 -10 11 -16 21 1 21 34 0 18 6 30 14 30 7 0 13 5 13 11 0 6 9 9 20 6 18 -5 18 -4 3 20 -12 18 -18 21 -24 11 -6 -9 -9 -6 -9 10 0 27 -25 29 -60 4z"/>
 <path d="M3297 4273 c-13 -13 -7 -21 13 -16 11 3 20 9 20 14 0 10 -24 12 -33 2z"/>
 <path d="M3255 4150 c-3 -5 1 -10 10 -10 9 0 14 -4 11 -8 -10 -16 10 -30 37 -25 37 7 34 26 -6 41 -40 15 -44 15 -52 2z"/>
 <path d="M3316 4040 c14 -27 34 -41 34 -22 -1 9 -36 52 -43 52 -3 0 1 -13 9 -30z"/>
 <path d="M3432 4003 c-10 -4 -10 -8 -1 -19 13 -15 39 -19 39 -5 0 14 -24 29 -38 24z"/>
 <path d="M3190 3900 c0 -5 11 -9 24 -8 14 1 22 6 20 10 -7 12 -44 10 -44 -2z"/>
 <path d="M3440 3690 l0 -140 44 0 c24 0 51 3 60 6 17 7 22 34 6 34 -6 0 -10 47 -10 120 l0 120 -50 0 -50 0 0 -140z"/>
 <path d="M3620 3601 c0 -6 5 -13 10 -16 6 -3 10 -2 10 4 0 6 7 8 15 5 8 -4 15 -1 15 5 0 6 -11 11 -25 11 -14 0 -25 -4 -25 -9z"/>
 <path d="M4273 4120 c-1 -22 2 -40 6 -40 10 0 19 50 13 68 -8 25 -18 10 -19 -28z"/>
 <path d="M4277 4063 c-11 -10 -8 -83 3 -83 6 0 10 20 10 45 0 46 -2 50 -13 38z"/>
 <path d="M4270 3945 c0 -8 5 -15 10 -15 6 0 10 7 10 15 0 8 -4 15 -10 15 -5 0 -10 -7 -10 -15z"/>
 <path d="M4230 3761 c0 -12 5 -21 10 -21 6 0 10 6 10 14 0 8 -4 18 -10 21 -5 3 -10 -3 -10 -14z"/>
 <path d="M4216 3704 c-9 -22 -8 -24 9 -24 8 0 15 9 15 20 0 24 -15 27 -24 4z"/>
 <path d="M4220 3644 c-13 -32 -13 -37 1 -32 11 4 23 58 13 58 -2 0 -9 -12 -14 -26z"/>
 <path d="M4214 3574 c3 -9 6 -20 6 -25 0 -6 4 -8 9 -5 12 8 2 46 -11 46 -6 0 -7 -7 -4 -16z"/>
 <path d="M4210 3505 c0 -8 5 -15 10 -15 6 0 10 7 10 15 0 8 -4 15 -10 15 -5 0 -10 -7 -10 -15z"/>
 <path d="M4207 3360 c-3 -11 -1 -20 4 -20 5 0 9 2 9 4 0 2 3 11 6 20 3 9 2 16 -4 16 -5 0 -12 -9 -15 -20z"/>
 <path d="M5020 4331 c0 -5 7 -12 16 -15 24 -9 27 -7 10 9 -17 17 -26 19 -26 6z"/>
 <path d="M4726 4160 c-18 -18 -18 -20 -2 -26 20 -8 52 19 42 35 -10 15 -18 13 -40 -9z"/>
 <path d="M4720 4105 c0 -8 7 -15 15 -15 8 0 15 7 15 15 0 8 -7 15 -15 15 -8 0 -15 -7 -15 -15z"/>
 <path d="M4727 4005 c-4 -8 -2 -17 3 -20 6 -4 10 -4 10 -1 0 2 3 11 6 20 3 9 2 16 -4 16 -5 0 -12 -7 -15 -15z"/>
 <path d="M4870 3987 c0 -1 11 -81 25 -177 14 -96 25 -190 25 -208 0 -20 4 -31 10 -27 6 3 10 27 10 53 0 26 9 110 20 187 27 190 30 175 -35 175 -30 0 -55 -1 -55 -3z"/>
 <path d="M4700 3941 c0 -24 21 -62 33 -58 6 2 11 10 9 17 -1 7 2 18 8 25 8 9 5 14 -12 19 -32 8 -38 7 -38 -3z"/>
 <path d="M4645 3880 c-3 -5 1 -10 9 -10 8 0 18 5 21 10 3 6 -1 10 -9 10 -8 0 -18 -4 -21 -10z"/>
 <path d="M4720 3840 c0 -5 7 -10 15 -10 8 0 15 5 15 10 0 6 -7 10 -15 10 -8 0 -15 -4 -15 -10z"/>
 <path d="M4664 3746 c-8 -22 3 -33 18 -18 9 9 9 15 0 24 -9 9 -13 7 -18 -6z"/>
 <path d="M4823 3653 c-16 -33 -12 -37 20 -20 25 13 26 15 9 30 -16 14 -18 14 -29 -10z"/>
 <path d="M4953 3655 c-9 -25 2 -27 22 -5 17 18 17 20 1 20 -9 0 -19 -7 -23 -15z"/>
 <path d="M6175 4190 c-14 -16 -15 -20 -4 -20 11 0 14 -10 12 -37 -2 -21 0 -31 4 -23 3 8 12 19 20 23 8 5 11 17 7 35 -10 40 -18 45 -39 22z"/>
 <path d="M6270 4201 c0 -5 9 -7 20 -4 23 6 26 -6 8 -27 -11 -12 -10 -12 5 -1 25 20 21 41 -8 41 -14 0 -25 -4 -25 -9z"/>
 <path d="M5820 4176 c0 -9 7 -16 16 -16 9 0 14 5 12 12 -6 18 -28 21 -28 4z"/>
 <path d="M6245 4161 c-6 -11 9 -23 19 -14 9 9 7 23 -3 23 -6 0 -12 -4 -16 -9z"/>
 <path d="M6280 4137 c0 -9 -7 -17 -15 -17 -8 0 -15 -7 -15 -15 0 -12 4 -14 19 -5 27 14 35 30 22 43 -8 8 -11 6 -11 -6z"/>
 <path d="M5780 4120 c0 -6 5 -10 11 -10 5 0 8 -4 4 -9 -3 -5 -1 -12 5 -16 5 -3 10 3 10 13 0 11 -7 22 -15 26 -8 3 -15 1 -15 -4z"/>
 <path d="M6215 3915 l-30 -13 43 -1 c30 -1 42 3 40 11 -6 18 -20 19 -53 3z"/>
 <path d="M5776 3494 c-8 -22 -8 -22 14 -34 17 -9 20 -8 20 14 0 27 -25 42 -34 20z"/>
 <path d="M5490 4045 c0 -9 6 -12 15 -9 8 4 15 10 15 15 0 5 -7 9 -15 9 -8 0 -15 -7 -15 -15z"/>
 <path d="M5390 3710 c-12 -7 -12 -12 -3 -21 15 -15 26 -7 21 15 -2 11 -7 13 -18 6z"/>
 </g>
<g id="layer104" fill="#85b2fd" stroke="none">
 <path d="M3695 7769 c-572 -49 -1143 -235 -1639 -534 -94 -57 -277 -182 -355 -244 l-25 -19 60 -12 c68 -13 211 -77 218 -97 3 -8 10 -12 15 -9 5 3 12 -1 15 -10 3 -8 2 -12 -4 -9 -6 4 -10 -7 -10 -24 0 -16 5 -33 11 -36 5 -4 15 -18 20 -32 6 -17 14 -23 25 -19 16 6 54 -15 94 -52 25 -24 25 -24 2 -12 -13 6 -24 10 -25 8 -1 -2 -8 -13 -15 -25 -10 -20 -10 -23 4 -23 11 0 14 -5 10 -16 -3 -9 -6 -18 -6 -20 0 -2 -7 -4 -15 -4 -8 0 -15 -7 -15 -15 0 -8 9 -15 20 -15 11 0 20 -6 20 -13 0 -22 22 -37 39 -27 24 12 56 -19 58 -59 3 -43 20 -64 49 -57 19 5 21 3 17 -15 -3 -12 -2 -24 3 -28 5 -3 15 -17 22 -30 11 -18 11 -25 2 -31 -6 -4 -11 -10 -11 -14 4 -26 -1 -47 -14 -60 -8 -8 -12 -22 -9 -30 5 -14 2 -15 -20 -6 -31 11 -30 12 -11 -33 16 -38 4 -61 -14 -30 -14 24 -14 -2 0 -28 9 -17 6 -28 -15 -58 -20 -28 -26 -51 -27 -92 -1 -29 -4 -67 -8 -84 -6 -26 -10 -30 -38 -27 -17 2 -35 -2 -39 -9 -4 -7 -3 -9 3 -6 6 4 16 0 23 -8 7 -9 8 -15 2 -15 -18 0 -44 -50 -33 -64 8 -9 2 -21 -23 -45 -23 -23 -32 -40 -31 -60 1 -24 -2 -27 -19 -23 -12 3 -23 9 -26 13 -9 13 -64 23 -56 10 4 -6 13 -11 21 -11 11 0 11 -5 -1 -30 -15 -30 -11 -95 7 -106 18 -11 8 -22 -40 -42 -39 -16 -51 -18 -55 -7 -2 7 2 16 10 19 8 3 14 14 14 25 0 11 7 26 15 35 8 8 15 25 15 38 0 13 -3 18 -8 12 -4 -7 -19 -12 -34 -12 -31 1 -58 -17 -58 -38 0 -8 8 -14 18 -14 14 -1 14 -3 -5 -19 -13 -11 -23 -24 -23 -30 0 -6 -7 -11 -15 -11 -19 0 -19 -16 0 -24 8 -3 15 -1 15 5 0 21 26 39 39 26 17 -17 13 -37 -11 -47 -114 -50 -312 -235 -408 -380 -8 -12 -24 -34 -35 -48 -25 -33 -54 -82 -61 -104 -4 -10 -10 -18 -14 -18 -4 0 -10 -8 -14 -17 -3 -10 -24 -49 -46 -88 -22 -38 -43 -77 -46 -85 -3 -8 -26 -58 -51 -110 -25 -52 -49 -104 -54 -115 -4 -11 -20 -47 -35 -80 -14 -33 -51 -121 -80 -195 -30 -74 -58 -144 -63 -155 -5 -11 -16 -40 -26 -65 -9 -25 -21 -53 -26 -62 -5 -10 -9 -23 -9 -30 0 -11 -39 -123 -60 -173 -5 -11 -14 -37 -20 -58 -7 -22 -18 -51 -26 -65 -8 -15 -14 -35 -14 -44 0 -9 -5 -30 -11 -45 -22 -54 -27 -69 -59 -173 -18 -58 -36 -114 -40 -125 -4 -11 -18 -56 -30 -100 -33 -114 -61 -208 -67 -225 -3 -8 -7 -22 -9 -30 -2 -8 -11 -43 -20 -78 l-17 -62 38 -93 c50 -123 184 -386 265 -520 190 -315 487 -662 776 -908 352 -299 791 -551 1203 -690 100 -34 95 -34 86 -12 -15 35 -34 149 -34 198 0 28 3 44 6 37 4 -10 13 -6 34 14 15 15 26 31 23 36 -3 5 2 18 11 28 16 18 13 46 -5 35 -11 -7 -16 52 -9 95 6 30 7 31 8 8 1 -26 21 -42 21 -17 0 6 9 8 21 4 18 -6 20 -4 14 14 -5 16 -2 21 12 21 11 0 24 -5 30 -11 16 -16 28 8 13 26 -9 11 -9 18 4 30 21 21 20 32 -1 44 -11 6 -18 21 -18 39 0 17 4 28 8 25 19 -12 45 30 52 83 8 63 25 102 43 96 6 -2 12 1 12 8 0 6 4 9 9 5 5 -3 12 -1 16 5 3 5 16 8 28 6 12 -2 30 3 40 12 16 14 17 13 17 -11 0 -33 16 -35 26 -5 13 41 51 66 39 26 -6 -20 -3 -19 23 9 24 26 35 30 63 27 28 -4 43 2 81 30 26 20 54 36 62 36 9 0 16 5 16 10 0 6 9 10 20 10 13 0 20 -7 20 -19 0 -10 7 -21 15 -25 8 -3 14 -2 14 2 -4 22 5 28 37 26 28 -3 37 1 41 15 4 16 10 17 41 10 52 -12 56 -11 80 11 16 15 22 17 22 6 0 -7 8 -17 17 -20 12 -5 14 -9 6 -14 -13 -8 -6 -62 8 -62 5 0 6 12 3 28 -5 21 -4 24 6 16 9 -9 18 -9 36 1 26 13 64 57 64 74 0 17 17 13 60 -15 27 -18 37 -31 32 -42 -5 -15 -4 -15 11 -3 14 11 23 10 61 -7 24 -12 57 -24 72 -28 16 -4 34 -9 39 -13 6 -3 13 -6 18 -7 4 -1 8 -2 10 -4 2 -2 19 -6 62 -14 17 -3 41 -8 55 -11 101 -21 410 -22 550 0 71 10 117 18 135 21 11 2 38 6 60 9 21 3 55 10 75 15 19 5 49 11 65 14 17 3 41 8 55 11 14 2 36 7 50 9 14 3 50 12 80 20 30 8 71 18 90 21 19 3 49 10 65 15 17 5 41 12 55 14 14 3 59 15 100 26 90 25 105 29 128 34 93 21 663 204 892 286 80 28 150 53 155 54 6 2 24 9 40 15 17 7 37 14 45 16 8 2 29 9 45 16 17 6 39 14 49 16 66 12 118 85 265 373 403 788 514 1694 315 2560 -20 85 -40 165 -45 179 l-10 24 -27 -25 c-15 -14 -45 -38 -66 -54 -34 -25 -38 -26 -28 -8 11 20 9 22 -25 29 -20 3 -39 3 -42 -2 -3 -4 -17 -8 -30 -8 -13 0 -26 -6 -29 -14 -3 -8 0 -11 7 -7 6 4 11 5 11 2 0 -6 -96 -76 -105 -76 -5 0 0 9 9 19 11 12 14 21 7 26 -6 3 -11 3 -11 -1 0 -4 -6 1 -14 11 -13 18 -13 18 -24 -1 -10 -17 -11 -17 -12 -1 0 9 -4 17 -9 17 -5 0 -8 7 -7 16 2 25 -21 28 -27 4 -4 -16 -12 -21 -29 -18 -18 2 -24 -2 -26 -23 -3 -28 -46 -57 -57 -39 -10 15 -62 12 -79 -5 -8 -9 -19 -16 -23 -17 -4 0 -19 -4 -32 -9 -13 -5 -26 -7 -29 -4 -3 2 -11 0 -19 -6 -10 -9 -13 -8 -13 6 0 9 -6 15 -12 12 -14 -4 -58 37 -58 54 0 5 -7 9 -15 9 -8 0 -15 5 -15 10 0 6 5 10 10 10 6 0 10 6 10 13 0 9 -12 11 -40 9 -25 -3 -40 0 -40 7 0 6 8 11 17 11 25 0 6 14 -25 18 -16 2 -40 18 -57 38 -16 19 -38 36 -48 38 -10 1 -22 7 -25 12 -4 5 -18 10 -32 12 -13 1 -28 9 -33 17 -4 9 -12 13 -17 10 -4 -3 -11 3 -15 12 -3 10 -1 19 4 21 6 2 10 16 10 30 -1 17 -3 21 -6 10 -7 -28 -27 -21 -42 13 -9 21 -19 29 -31 26 -13 -3 -23 7 -39 38 -13 27 -30 45 -45 49 -19 5 -22 11 -18 31 2 14 7 23 10 20 7 -6 42 25 42 38 0 5 -7 4 -15 -3 -13 -10 -19 -8 -35 13 -21 26 -96 43 -104 22 -6 -16 -26 43 -26 76 0 34 25 40 33 8 3 -12 10 -18 16 -15 5 3 19 -7 31 -24 22 -31 44 -41 34 -16 -3 8 -1 17 5 21 16 9 13 61 -4 75 -12 10 -16 8 -24 -11 -9 -23 -9 -23 -16 -4 -3 11 -11 28 -16 37 -5 10 -9 25 -9 33 0 19 -7 19 -26 0 -14 -13 -14 -15 0 -15 9 0 16 -7 16 -15 0 -8 0 -18 0 -22 0 -7 -11 -8 -39 -4 -5 0 -11 25 -15 54 -24 181 -162 437 -363 675 -109 128 -396 412 -573 567 -69 60 -127 112 -130 116 -7 8 -169 141 -336 274 -158 127 -421 327 -561 428 l-93 67 -172 -1 c-95 -1 -218 -6 -273 -10z m-1705 -2217 c0 -11 -41 -34 -48 -27 -4 4 2 13 12 21 22 15 36 18 36 6z m4319 -104 c9 -25 6 -38 -10 -38 -6 0 -7 4 -4 10 3 5 1 19 -5 30 -8 14 -8 20 0 20 6 0 14 -10 19 -22z m-4055 -1078 c36 -38 68 -81 72 -93 7 -30 0 -315 -8 -323 -4 -3 -4 -12 -1 -20 6 -18 -1 -17 -112 1 -49 8 -105 18 -122 21 l-33 5 0 114 0 115 -50 0 -50 0 0 -197 c0 -191 -7 -380 -14 -392 -2 -3 0 -16 5 -29 8 -20 14 -23 56 -20 43 3 48 6 52 28 1 14 8 29 15 33 8 6 8 10 -1 14 -9 3 -13 26 -13 64 l0 60 48 -6 c92 -12 152 -27 152 -36 0 -6 -4 -7 -10 -4 -14 9 -12 -8 4 -30 11 -16 17 -17 29 -7 10 9 17 10 22 2 3 -6 10 -8 15 -5 13 8 18 -23 19 -117 1 -79 -2 -90 -25 -117 -14 -17 -32 -31 -40 -31 -8 0 -14 -5 -14 -12 0 -7 -17 -29 -37 -50 l-37 -38 -182 0 -182 0 -71 76 -71 76 0 420 0 420 72 74 71 74 187 0 188 0 66 -70z m293 54 c5 -15 7 -15 15 0 6 11 23 16 59 16 44 0 51 -3 59 -26 6 -14 10 -46 10 -72 0 -90 3 -93 79 -90 l66 3 10 80 c6 44 14 86 18 93 6 9 47 12 148 12 132 0 139 -1 139 -20 0 -24 -63 -444 -91 -605 -12 -66 -23 -131 -25 -145 -1 -13 -8 -26 -13 -28 -6 -2 -11 -8 -11 -13 0 -6 5 -7 10 -4 6 3 10 1 10 -4 0 -16 -16 -13 -36 6 -16 17 -17 15 -11 -40 3 -32 10 -64 16 -71 7 -9 6 -42 -4 -111 -8 -54 -15 -100 -15 -102 0 -2 -85 -3 -189 -3 -148 1 -192 5 -201 15 -7 8 -9 19 -5 24 3 6 6 60 6 121 0 109 1 110 25 116 l25 6 -22 16 c-18 12 -21 22 -16 59 2 24 2 45 -2 47 -4 3 -8 19 -9 38 -2 18 -7 37 -12 42 -4 4 -6 15 -3 22 3 9 -2 14 -16 14 -24 0 -24 0 -11 -34 5 -14 6 -26 2 -26 -4 0 -7 -27 -7 -59 -1 -34 -6 -66 -14 -75 -9 -11 -10 -20 -4 -28 6 -7 11 -35 12 -62 1 -26 4 -52 7 -57 3 -5 1 -16 -4 -25 -7 -12 -13 8 -21 72 -11 86 -16 123 -46 304 -87 538 -95 594 -83 602 7 4 44 8 81 8 53 0 69 -3 74 -16z m893 -14 c0 -16 -4 -30 -9 -30 -5 0 -16 -3 -24 -6 -8 -3 -21 2 -30 11 -14 14 -16 11 -22 -32 -3 -27 -8 -58 -11 -70 -3 -18 0 -23 17 -23 19 0 19 -1 5 -16 -18 -18 -21 -34 -6 -34 6 0 10 5 10 11 0 5 4 8 9 5 4 -3 16 3 26 14 24 26 37 25 35 -2 -1 -13 -2 -53 -1 -90 l1 -68 118 0 118 0 72 -73 72 -72 0 -158 c0 -118 -3 -157 -12 -158 -10 0 -10 -2 0 -6 8 -3 12 -30 12 -85 l0 -80 -52 -59 c-29 -32 -60 -59 -69 -59 -9 0 -19 -7 -23 -15 -7 -19 -82 -21 -89 -2 -4 10 -7 10 -18 0 -16 -16 -344 -18 -383 -3 l-26 10 0 126 c0 108 2 125 15 120 8 -3 15 -1 15 3 0 5 -7 11 -15 15 -13 4 -15 40 -15 231 0 137 4 224 9 220 5 -3 12 -1 16 5 3 6 -1 13 -9 16 -14 5 -16 33 -16 195 l0 189 140 0 140 0 0 -30z m748 17 c-15 -10 -15 -12 4 -29 12 -10 16 -18 8 -18 -10 0 -10 -3 0 -15 6 -8 9 -23 6 -33 -4 -12 0 -24 9 -32 13 -11 13 -15 3 -21 -11 -7 -11 -12 0 -29 9 -16 10 -25 3 -34 -6 -7 -12 -39 -14 -70 -1 -41 -6 -56 -17 -57 -11 -1 -10 -3 3 -6 19 -5 22 -18 7 -28 -7 -4 -8 -11 -1 -18 5 -7 9 -29 9 -51 0 -21 4 -42 9 -47 16 -16 34 16 34 58 -2 88 0 230 3 253 8 64 8 66 15 35 5 -23 11 -29 26 -26 19 3 19 2 2 -16 -9 -11 -17 -32 -17 -48 0 -34 16 -23 23 15 2 14 5 -122 6 -302 l1 -327 83 -3 82 -3 3 -129 c2 -95 -1 -131 -10 -137 -17 -11 -410 -10 -428 1 -9 5 -19 5 -26 -1 -7 -6 -41 -9 -76 -7 l-63 3 -3 138 -3 137 86 0 85 0 0 430 0 430 83 -1 c64 0 78 -3 65 -12z m519 -3 c5 -15 7 -15 15 0 6 11 23 16 59 16 44 0 51 -3 59 -26 6 -14 10 -46 10 -72 0 -90 3 -93 79 -90 l66 3 10 80 c6 44 14 86 18 93 6 9 75 12 288 12 l279 0 0 -28 c0 -33 -40 -60 -85 -56 -16 2 -45 4 -62 4 -40 2 -47 30 -8 30 28 0 33 15 8 24 -9 4 -20 1 -24 -6 -6 -10 -15 -10 -38 -1 -45 16 -70 6 -76 -31 -2 -17 -16 -110 -30 -206 -15 -96 -38 -242 -52 -325 -14 -82 -27 -161 -29 -175 -1 -13 -8 -26 -13 -28 -6 -2 -11 -8 -11 -13 0 -6 5 -7 10 -4 6 3 10 1 10 -4 0 -16 -16 -13 -36 6 -16 17 -17 15 -11 -40 3 -32 10 -64 16 -71 7 -9 6 -42 -4 -111 -8 -54 -15 -100 -15 -102 0 -2 -85 -3 -189 -3 -148 1 -192 5 -201 15 -7 8 -9 19 -5 24 3 6 6 60 6 121 0 109 1 110 25 116 l25 6 -22 16 c-18 12 -21 22 -16 59 2 24 2 45 -2 47 -4 3 -8 19 -9 38 -2 18 -7 37 -12 42 -4 4 -6 15 -3 22 3 9 -2 14 -16 14 -24 0 -24 0 -11 -34 5 -14 6 -26 2 -26 -4 0 -7 -27 -7 -59 -1 -34 -6 -66 -14 -75 -9 -11 -10 -20 -4 -28 6 -7 11 -35 12 -62 1 -26 4 -52 7 -57 3 -5 1 -16 -4 -25 -7 -12 -13 8 -21 72 -11 86 -16 123 -46 304 -87 538 -95 594 -83 602 7 4 44 8 81 8 53 0 69 -3 74 -16z m1160 -241 c1 -139 -2 -255 -6 -257 -4 -3 -25 -1 -47 4 -23 6 -40 5 -42 0 -2 -5 -17 -7 -33 -3 -16 3 -29 2 -29 -3 0 -13 20 -41 20 -29 0 15 122 13 127 -2 2 -6 0 -41 -5 -77 -5 -36 -6 -66 -3 -66 3 0 20 53 37 118 18 64 55 180 83 257 29 77 66 179 84 228 l31 87 153 0 153 0 0 -253 c0 -177 -3 -256 -11 -264 -7 -7 -25 -9 -43 -6 -22 4 -28 2 -21 -5 6 -6 24 -12 40 -14 l30 -3 3 -294 c2 -256 0 -293 -13 -288 -8 4 -17 2 -20 -3 -8 -12 -175 -13 -194 -1 -11 7 -12 60 -7 307 3 165 8 319 11 344 3 26 -9 -5 -29 -75 -32 -113 -159 -481 -191 -553 l-15 -33 -152 3 -153 3 -3 296 -2 296 22 11 23 11 -22 0 -23 1 0 261 0 260 123 -3 122 -3 2 -252z m-1557 180 c-1 -59 -2 -66 -14 -50 -9 11 -20 15 -31 11 -13 -5 -16 -3 -13 7 3 8 12 13 21 13 14 -1 31 37 26 62 -2 13 0 24 6 24 3 0 5 -30 5 -67z m-876 -40 c-7 -2 -10 -13 -7 -23 3 -11 1 -20 -3 -21 -5 0 -19 -2 -31 -5 -18 -3 -23 1 -23 16 0 12 8 23 18 26 9 3 24 9 32 14 8 4 17 5 20 2 3 -2 0 -7 -6 -9z m2114 2 c38 1 42 -1 42 -22 0 -13 -6 -23 -14 -23 -12 0 -12 -5 1 -31 21 -42 10 -47 -85 -43 -43 1 -101 3 -130 3 -38 1 -52 5 -49 14 2 6 17 12 33 12 16 0 34 3 39 7 6 4 32 6 58 4 26 -1 47 1 47 6 0 4 7 8 16 8 8 0 12 5 9 10 -5 8 -11 8 -20 0 -9 -7 -25 -5 -58 9 -29 13 -49 16 -53 10 -4 -7 -10 -6 -19 1 -7 6 -19 9 -26 8 -8 -2 -14 4 -14 12 0 12 13 15 68 13 37 -2 67 2 67 7 0 6 9 6 23 2 12 -5 41 -8 65 -7z m39 -149 c-4 -13 -19 -14 -249 -15 -26 0 -22 17 5 21 12 2 73 4 135 4 79 1 112 -2 109 -10z m-68 -40 c33 5 39 2 51 -23 7 -15 15 -55 18 -88 4 -55 3 -58 -14 -45 -18 16 -28 18 -109 22 -27 2 -56 7 -62 11 -8 5 -13 4 -13 -2 0 -14 -37 -14 -45 -1 -3 5 0 7 8 4 8 -3 17 2 21 11 3 9 2 13 -4 10 -6 -3 -10 1 -10 9 0 8 9 18 20 21 22 7 28 35 8 35 -41 -1 -60 -13 -55 -37 3 -15 0 -22 -7 -20 -18 6 -19 36 -1 63 14 21 22 24 63 22 26 -2 50 -7 53 -12 4 -5 13 1 20 13 8 11 15 17 17 11 2 -5 20 -7 41 -4z m24 -207 c21 21 47 13 47 -14 0 -26 -15 -34 -23 -12 -3 9 -9 9 -23 1 -20 -11 -94 -7 -94 5 0 20 24 29 52 19 21 -8 33 -7 41 1z m-123 -23 c0 -7 -19 -11 -50 -11 -49 0 -68 13 -35 25 25 9 85 -1 85 -14z m-90 -66 c0 -6 9 -6 26 0 57 22 110 6 84 -25 -9 -11 -17 -11 -37 -2 -18 8 -29 8 -44 -1 -31 -19 -49 -15 -49 13 0 14 5 25 10 25 6 0 10 -4 10 -10z m255 -1 c7 -10 7 -10 -57 -15 -31 -2 -48 1 -51 10 -6 15 99 20 108 5z m-250 -80 c4 -6 13 -8 21 -5 7 3 16 1 19 -3 8 -14 53 -19 64 -8 8 8 11 8 11 0 0 -6 8 -9 19 -6 10 3 22 0 26 -7 5 -8 11 -6 20 7 12 15 16 16 27 4 11 -12 11 -13 -1 -6 -10 6 -12 1 -6 -23 6 -28 3 -32 -19 -38 -36 -9 -22 -24 21 -24 32 0 35 2 31 25 -6 30 8 34 17 5 4 -12 -1 -29 -12 -44 -15 -21 -25 -25 -63 -23 -25 1 -48 7 -52 12 -5 6 -11 5 -17 -4 -11 -17 -101 -22 -101 -5 0 6 -6 16 -13 22 -15 13 -23 132 -8 132 5 0 13 -5 16 -11z m-3031 -45 c25 -9 19 -24 -9 -24 -16 0 -25 6 -25 15 0 16 9 19 34 9z m3256 -134 c23 -1 24 -2 4 -10 -33 -13 -247 -17 -251 -3 -3 7 18 11 63 12 37 0 69 2 70 4 2 2 23 2 46 1 24 -2 54 -3 68 -4z m28 -54 c2 -3 1 -9 -3 -15 -8 -14 -42 -14 -50 -1 -4 6 -12 4 -21 -5 -16 -16 -34 -20 -34 -7 0 4 -16 7 -35 7 -19 0 -35 -3 -35 -7 0 -5 -7 -8 -15 -8 -8 0 -15 -5 -15 -11 0 -7 9 -9 21 -6 12 3 41 -1 65 -9 23 -8 46 -14 51 -13 4 1 13 0 18 -1 6 -1 18 -3 27 -4 10 0 18 -5 18 -11 0 -12 -128 -22 -212 -17 -49 3 -58 7 -58 23 0 10 7 19 15 19 19 0 19 9 0 34 -34 45 -25 49 122 42 75 -3 138 -8 141 -10z m-122 -146 c14 0 24 -6 24 -14 0 -9 -8 -12 -25 -8 -26 5 -33 -6 -14 -25 9 -9 16 -9 30 0 13 8 24 8 42 0 14 -7 35 -9 47 -6 17 4 21 2 18 -8 -4 -11 -33 -14 -139 -14 l-134 0 -3 27 c-5 39 31 61 87 54 24 -3 54 -6 67 -6z m114 -10 c0 -5 -7 -10 -15 -10 -8 0 -15 5 -15 10 0 6 7 10 15 10 8 0 15 -4 15 -10z m-1671 -1946 c2 -2 2 -7 -2 -10 -8 -9 -47 6 -47 17 0 9 37 3 49 -7z"/>
 <path d="M1706 3915 c-8 -23 -9 -22 14 -28 27 -7 31 4 10 26 -16 16 -18 16 -24 2z"/>
 <path d="M1790 3891 c0 -12 5 -21 10 -21 6 0 10 6 10 14 0 8 -4 18 -10 21 -5 3 -10 -3 -10 -14z"/>
 <path d="M2176 3694 c-8 -20 0 -32 14 -18 5 5 5 15 1 22 -6 11 -10 10 -15 -4z"/>
 <path d="M2108 3693 c-26 -7 -22 -20 7 -25 25 -5 51 13 38 25 -7 7 -18 7 -45 0z"/>
 <path d="M1910 3670 c0 -11 5 -20 10 -20 6 0 10 9 10 20 0 11 -4 20 -10 20 -5 0 -10 -9 -10 -20z"/>
 <path d="M1798 3673 c-10 -2 -18 -9 -18 -15 0 -5 7 -8 15 -4 9 3 15 0 15 -9 0 -8 9 -15 20 -15 11 0 20 5 20 10 0 6 -4 10 -10 10 -5 0 -10 7 -10 15 0 15 -2 16 -32 8z"/>
 <path d="M1900 3400 c0 -7 -13 -9 -35 -6 -39 6 -45 -3 -15 -21 12 -8 21 -9 25 -3 3 6 15 10 26 10 20 0 26 15 9 25 -5 3 -10 1 -10 -5z"/>
 <path d="M1936 3392 c-13 -12 -5 -23 9 -12 9 7 15 8 15 2 0 -15 90 -20 102 -5 8 10 4 13 -18 15 -16 1 -46 2 -66 4 -20 1 -39 -1 -42 -4z"/>
 <path d="M2097 3393 c-12 -11 -8 -23 8 -23 8 0 15 7 15 15 0 16 -12 20 -23 8z"/>
 <path d="M2860 4331 c0 -5 7 -12 16 -15 24 -9 27 -7 10 9 -17 17 -26 19 -26 6z"/>
 <path d="M2566 4160 c-18 -18 -18 -20 -2 -26 20 -8 52 19 42 35 -10 15 -18 13 -40 -9z"/>
 <path d="M2560 4105 c0 -8 7 -15 15 -15 8 0 15 7 15 15 0 8 -7 15 -15 15 -8 0 -15 -7 -15 -15z"/>
 <path d="M2567 4005 c-4 -8 -2 -17 3 -20 6 -4 10 -4 10 -1 0 2 3 11 6 20 3 9 2 16 -4 16 -5 0 -12 -7 -15 -15z"/>
 <path d="M2710 3987 c0 -1 11 -81 25 -177 14 -96 25 -190 25 -208 0 -20 4 -31 10 -27 6 3 10 27 10 53 0 26 9 110 20 187 27 190 30 175 -35 175 -30 0 -55 -1 -55 -3z"/>
 <path d="M2540 3941 c0 -24 21 -62 33 -58 6 2 11 10 9 17 -1 7 2 18 8 25 8 9 5 14 -12 19 -32 8 -38 7 -38 -3z"/>
 <path d="M2485 3880 c-3 -5 1 -10 9 -10 8 0 18 5 21 10 3 6 -1 10 -9 10 -8 0 -18 -4 -21 -10z"/>
 <path d="M2560 3840 c0 -5 7 -10 15 -10 8 0 15 5 15 10 0 6 -7 10 -15 10 -8 0 -15 -4 -15 -10z"/>
 <path d="M2504 3746 c-8 -22 3 -33 18 -18 9 9 9 15 0 24 -9 9 -13 7 -18 -6z"/>
 <path d="M2663 3653 c-16 -33 -12 -37 20 -20 25 13 26 15 9 30 -16 14 -18 14 -29 -10z"/>
 <path d="M2793 3655 c-9 -25 2 -27 22 -5 17 18 17 20 1 20 -9 0 -19 -7 -23 -15z"/>
 <path d="M3260 4394 c0 -14 3 -15 18 -3 9 7 19 15 21 16 2 2 -5 3 -17 3 -14 0 -22 -6 -22 -16z"/>
 <path d="M3230 4352 c-19 -13 -24 -24 -22 -49 2 -25 -1 -33 -18 -38 -32 -10 -18 -30 21 -29 19 0 37 -5 41 -10 11 -16 21 1 21 34 0 18 6 30 14 30 7 0 13 5 13 11 0 6 9 9 20 6 18 -5 18 -4 3 20 -12 18 -18 21 -24 11 -6 -9 -9 -6 -9 10 0 27 -25 29 -60 4z"/>
 <path d="M3297 4273 c-13 -13 -7 -21 13 -16 11 3 20 9 20 14 0 10 -24 12 -33 2z"/>
 <path d="M3255 4150 c-3 -5 1 -10 10 -10 9 0 14 -4 11 -8 -10 -16 10 -30 37 -25 37 7 34 26 -6 41 -40 15 -44 15 -52 2z"/>
 <path d="M3316 4040 c14 -27 34 -41 34 -22 -1 9 -36 52 -43 52 -3 0 1 -13 9 -30z"/>
 <path d="M3432 4003 c-10 -4 -10 -8 -1 -19 13 -15 39 -19 39 -5 0 14 -24 29 -38 24z"/>
 <path d="M3190 3900 c0 -5 11 -9 24 -8 14 1 22 6 20 10 -7 12 -44 10 -44 -2z"/>
 <path d="M3440 3690 l0 -140 44 0 c24 0 51 3 60 6 17 7 22 34 6 34 -6 0 -10 47 -10 120 l0 120 -50 0 -50 0 0 -140z"/>
 <path d="M3620 3601 c0 -6 5 -13 10 -16 6 -3 10 -2 10 4 0 6 7 8 15 5 8 -4 15 -1 15 5 0 6 -11 11 -25 11 -14 0 -25 -4 -25 -9z"/>
 <path d="M4273 4120 c-1 -22 2 -40 6 -40 10 0 19 50 13 68 -8 25 -18 10 -19 -28z"/>
 <path d="M4277 4063 c-11 -10 -8 -83 3 -83 6 0 10 20 10 45 0 46 -2 50 -13 38z"/>
 <path d="M4270 3945 c0 -8 5 -15 10 -15 6 0 10 7 10 15 0 8 -4 15 -10 15 -5 0 -10 -7 -10 -15z"/>
 <path d="M4230 3761 c0 -12 5 -21 10 -21 6 0 10 6 10 14 0 8 -4 18 -10 21 -5 3 -10 -3 -10 -14z"/>
 <path d="M4216 3704 c-9 -22 -8 -24 9 -24 8 0 15 9 15 20 0 24 -15 27 -24 4z"/>
 <path d="M4220 3644 c-13 -32 -13 -37 1 -32 11 4 23 58 13 58 -2 0 -9 -12 -14 -26z"/>
 <path d="M4214 3574 c3 -9 6 -20 6 -25 0 -6 4 -8 9 -5 12 8 2 46 -11 46 -6 0 -7 -7 -4 -16z"/>
 <path d="M4210 3505 c0 -8 5 -15 10 -15 6 0 10 7 10 15 0 8 -4 15 -10 15 -5 0 -10 -7 -10 -15z"/>
 <path d="M4207 3360 c-3 -11 -1 -20 4 -20 5 0 9 2 9 4 0 2 3 11 6 20 3 9 2 16 -4 16 -5 0 -12 -9 -15 -20z"/>
 <path d="M5020 4331 c0 -5 7 -12 16 -15 24 -9 27 -7 10 9 -17 17 -26 19 -26 6z"/>
 <path d="M4726 4160 c-18 -18 -18 -20 -2 -26 20 -8 52 19 42 35 -10 15 -18 13 -40 -9z"/>
 <path d="M4720 4105 c0 -8 7 -15 15 -15 8 0 15 7 15 15 0 8 -7 15 -15 15 -8 0 -15 -7 -15 -15z"/>
 <path d="M4727 4005 c-4 -8 -2 -17 3 -20 6 -4 10 -4 10 -1 0 2 3 11 6 20 3 9 2 16 -4 16 -5 0 -12 -7 -15 -15z"/>
 <path d="M4870 3987 c0 -1 11 -81 25 -177 14 -96 25 -190 25 -208 0 -20 4 -31 10 -27 6 3 10 27 10 53 0 26 9 110 20 187 27 190 30 175 -35 175 -30 0 -55 -1 -55 -3z"/>
 <path d="M4700 3941 c0 -24 21 -62 33 -58 6 2 11 10 9 17 -1 7 2 18 8 25 8 9 5 14 -12 19 -32 8 -38 7 -38 -3z"/>
 <path d="M4645 3880 c-3 -5 1 -10 9 -10 8 0 18 5 21 10 3 6 -1 10 -9 10 -8 0 -18 -4 -21 -10z"/>
 <path d="M4720 3840 c0 -5 7 -10 15 -10 8 0 15 5 15 10 0 6 -7 10 -15 10 -8 0 -15 -4 -15 -10z"/>
 <path d="M4664 3746 c-8 -22 3 -33 18 -18 9 9 9 15 0 24 -9 9 -13 7 -18 -6z"/>
 <path d="M4823 3653 c-16 -33 -12 -37 20 -20 25 13 26 15 9 30 -16 14 -18 14 -29 -10z"/>
 <path d="M4953 3655 c-9 -25 2 -27 22 -5 17 18 17 20 1 20 -9 0 -19 -7 -23 -15z"/>
 <path d="M6175 4190 c-14 -16 -15 -20 -4 -20 11 0 14 -10 12 -37 -2 -21 0 -31 4 -23 3 8 12 19 20 23 8 5 11 17 7 35 -10 40 -18 45 -39 22z"/>
 <path d="M6270 4201 c0 -5 9 -7 20 -4 23 6 26 -6 8 -27 -11 -12 -10 -12 5 -1 25 20 21 41 -8 41 -14 0 -25 -4 -25 -9z"/>
 <path d="M5820 4176 c0 -9 7 -16 16 -16 9 0 14 5 12 12 -6 18 -28 21 -28 4z"/>
 <path d="M6245 4161 c-6 -11 9 -23 19 -14 9 9 7 23 -3 23 -6 0 -12 -4 -16 -9z"/>
 <path d="M6280 4137 c0 -9 -7 -17 -15 -17 -8 0 -15 -7 -15 -15 0 -12 4 -14 19 -5 27 14 35 30 22 43 -8 8 -11 6 -11 -6z"/>
 <path d="M5780 4120 c0 -6 5 -10 11 -10 5 0 8 -4 4 -9 -3 -5 -1 -12 5 -16 5 -3 10 3 10 13 0 11 -7 22 -15 26 -8 3 -15 1 -15 -4z"/>
 <path d="M6215 3915 l-30 -13 43 -1 c30 -1 42 3 40 11 -6 18 -20 19 -53 3z"/>
 <path d="M5776 3494 c-8 -22 -8 -22 14 -34 17 -9 20 -8 20 14 0 27 -25 42 -34 20z"/>
 <path d="M5490 4045 c0 -9 6 -12 15 -9 8 4 15 10 15 15 0 5 -7 9 -15 9 -8 0 -15 -7 -15 -15z"/>
 <path d="M5390 3710 c-12 -7 -12 -12 -3 -21 15 -15 26 -7 21 15 -2 11 -7 13 -18 6z"/>
 <path d="M3995 1400 c-3 -5 -21 -10 -39 -10 -47 0 -49 -8 -11 -46 37 -37 42 -39 65 -24 13 9 13 11 0 19 -20 14 -6 25 17 13 20 -10 43 -6 43 9 0 5 -6 9 -13 9 -7 0 -18 9 -25 20 -13 22 -27 26 -37 10z"/>
 <path d="M4084 1359 c-3 -6 -1 -16 5 -22 8 -8 11 -5 11 11 0 24 -5 28 -16 11z"/>
 <path d="M3072 1190 c-10 -17 -10 -20 3 -20 8 0 15 9 15 20 0 11 -1 20 -3 20 -1 0 -8 -9 -15 -20z"/>
 </g>
<g id="layer105" fill="#b8c0ce" stroke="none">
 <path d="M3790 7773 c-728 -43 -1458 -309 -2027 -738 -73 -55 -82 -65 -60 -65 37 0 32 1 79 -16 100 -35 225 -111 314 -190 12 -11 35 -30 53 -43 17 -13 31 -32 31 -41 0 -10 7 -23 15 -30 17 -14 20 -46 5 -55 -14 -9 -2 -25 19 -25 9 0 32 -15 50 -34 32 -33 33 -34 12 -48 -22 -16 -18 -28 10 -28 9 0 19 -7 23 -15 3 -8 16 -15 28 -15 25 0 52 -33 54 -65 3 -47 18 -85 40 -100 15 -9 24 -25 24 -40 0 -14 5 -25 10 -25 6 0 10 -5 10 -11 0 -6 -7 -8 -16 -5 -12 5 -15 2 -10 -10 3 -9 -3 -28 -14 -44 -11 -15 -20 -33 -20 -38 0 -6 -9 -8 -20 -5 -15 4 -20 0 -20 -15 0 -12 -4 -23 -9 -26 -4 -3 -11 -18 -14 -33 -4 -19 -17 -33 -39 -43 -34 -15 -46 -52 -27 -77 7 -7 -2 -24 -25 -49 -24 -27 -34 -45 -30 -59 3 -12 -3 -31 -15 -46 -13 -17 -21 -45 -23 -89 -4 -59 -7 -66 -32 -78 -20 -10 -25 -18 -21 -33 5 -16 1 -19 -29 -19 -35 0 -47 -12 -26 -25 17 -10 11 -25 -9 -25 -37 0 -146 -33 -211 -63 -228 -106 -467 -372 -630 -702 -14 -27 -28 -51 -32 -53 -5 -2 -8 -8 -8 -14 0 -6 -21 -54 -46 -107 -51 -105 -157 -351 -169 -391 -4 -14 -11 -29 -15 -35 -4 -5 -17 -39 -30 -75 -13 -36 -27 -69 -32 -75 -4 -5 -8 -17 -8 -27 0 -10 -4 -18 -8 -18 -5 0 -9 -6 -9 -12 0 -12 -101 -305 -126 -368 -6 -14 -11 -29 -12 -35 -2 -5 -35 -111 -74 -235 -140 -440 -175 -560 -174 -600 0 -14 30 -92 67 -175 116 -262 253 -497 427 -728 132 -175 177 -228 337 -390 271 -275 542 -480 881 -668 169 -93 452 -217 606 -264 l41 -13 -19 72 c-26 101 -28 403 -3 429 7 7 18 27 25 45 10 23 18 31 31 27 14 -5 17 3 16 62 -1 58 2 68 18 71 10 2 23 -2 27 -10 10 -14 6 56 -5 82 -11 27 -1 69 21 92 50 51 58 64 55 84 -2 11 6 28 18 39 11 10 20 25 20 34 0 14 2 14 10 1 7 -11 12 -12 18 -4 9 14 106 29 98 15 -12 -19 14 -22 41 -4 15 10 24 13 20 6 -5 -8 0 -9 22 0 23 8 36 7 62 -5 35 -18 64 -8 74 23 4 13 15 15 55 11 28 -2 56 0 62 6 7 5 30 17 52 26 36 15 38 15 25 -1 -9 -11 5 -6 41 13 30 16 57 32 58 37 5 11 42 9 42 -3 0 -14 37 -12 44 3 5 12 28 -9 40 -37 3 -6 12 -2 22 11 l16 23 62 -54 c51 -45 218 -144 244 -146 4 0 27 -7 52 -14 113 -37 216 -50 385 -50 149 -1 329 9 345 19 3 2 33 6 68 9 34 3 79 10 100 15 20 6 53 13 72 16 19 3 46 8 60 10 14 3 34 7 45 9 110 22 382 89 455 112 25 7 56 15 70 17 14 2 32 6 40 9 8 4 47 15 85 26 39 12 115 35 170 52 56 16 110 32 120 35 11 2 34 9 50 14 100 35 246 83 257 85 7 1 19 5 26 10 8 5 35 14 60 22 26 7 72 22 102 33 30 11 105 38 165 59 61 22 148 54 195 71 l85 31 62 104 c283 470 453 974 519 1531 13 108 18 224 18 415 0 191 -5 307 -18 415 -24 205 -77 475 -118 603 l-10 34 -32 -29 c-33 -31 -121 -95 -146 -107 -8 -3 -44 -24 -80 -46 -37 -22 -69 -35 -75 -31 -5 5 -19 5 -30 0 -35 -14 -55 -10 -55 11 0 13 -5 18 -15 14 -8 -4 -15 -12 -15 -20 0 -7 -19 -23 -41 -35 -38 -19 -43 -19 -58 -4 -14 14 -14 17 -1 25 10 6 11 10 3 10 -7 0 -18 -9 -25 -20 -7 -11 -21 -20 -31 -20 -10 0 -16 -3 -13 -8 2 -4 -2 -16 -10 -26 -14 -20 -28 -21 -120 -15 -22 1 -47 -1 -54 -6 -8 -5 -33 -10 -56 -10 -34 -2 -41 1 -36 13 3 10 0 13 -9 10 -22 -7 -70 62 -58 84 8 15 6 18 -11 18 -11 0 -20 6 -20 13 0 6 -13 19 -29 29 -24 13 -30 23 -29 49 1 40 -23 60 -64 52 -22 -4 -29 -2 -27 8 5 25 -30 79 -52 79 -12 0 -27 12 -37 30 -9 16 -23 30 -29 30 -7 0 -13 5 -13 10 0 6 -8 10 -19 10 -10 0 -24 7 -31 15 -6 8 -15 14 -18 13 -26 -3 -33 5 -30 30 2 22 -1 28 -19 30 -23 3 -33 32 -12 32 5 0 8 4 4 9 -3 5 -1 12 5 16 18 11 1 23 -25 17 -26 -4 -26 -4 -18 34 4 22 7 86 7 144 -2 252 -112 495 -357 790 -98 117 -386 405 -567 566 -201 178 -164 147 -477 401 -104 85 -389 302 -550 419 l-115 84 -146 -2 c-81 -1 -172 -3 -202 -5z m-1536 -3403 c36 -38 68 -81 72 -93 7 -30 0 -315 -8 -323 -4 -3 -4 -12 -1 -20 6 -18 -1 -17 -112 1 -49 8 -105 18 -122 21 l-33 5 0 114 0 115 -50 0 -50 0 0 -197 c0 -191 -7 -380 -14 -392 -2 -3 0 -16 5 -29 8 -20 14 -23 56 -20 43 3 48 6 52 28 1 14 8 29 15 33 8 6 8 10 -1 14 -9 3 -13 26 -13 64 l0 60 48 -6 c92 -12 152 -27 152 -36 0 -6 -4 -7 -10 -4 -14 9 -12 -8 4 -30 11 -16 17 -17 29 -7 10 9 17 10 22 2 3 -6 10 -8 15 -5 13 8 18 -23 19 -117 1 -79 -2 -90 -25 -117 -14 -17 -32 -31 -40 -31 -8 0 -14 -5 -14 -12 0 -7 -17 -29 -37 -50 l-37 -38 -182 0 -182 0 -71 76 -71 76 0 420 0 420 72 74 71 74 187 0 188 0 66 -70z m293 54 c5 -15 7 -15 15 0 6 11 23 16 59 16 44 0 51 -3 59 -26 6 -14 10 -46 10 -72 0 -90 3 -93 79 -90 l66 3 10 80 c6 44 14 86 18 93 6 9 47 12 148 12 132 0 139 -1 139 -20 0 -24 -63 -444 -91 -605 -12 -66 -23 -131 -25 -145 -1 -13 -8 -26 -13 -28 -6 -2 -11 -8 -11 -13 0 -6 5 -7 10 -4 6 3 10 1 10 -4 0 -16 -16 -13 -36 6 -16 17 -17 15 -11 -40 3 -32 10 -64 16 -71 7 -9 6 -42 -4 -111 -8 -54 -15 -100 -15 -102 0 -2 -85 -3 -189 -3 -148 1 -192 5 -201 15 -7 8 -9 19 -5 24 3 6 6 60 6 121 0 109 1 110 25 116 l25 6 -22 16 c-18 12 -21 22 -16 59 2 24 2 45 -2 47 -4 3 -8 19 -9 38 -2 18 -7 37 -12 42 -4 4 -6 15 -3 22 3 9 -2 14 -16 14 -24 0 -24 0 -11 -34 5 -14 6 -26 2 -26 -4 0 -7 -27 -7 -59 -1 -34 -6 -66 -14 -75 -9 -11 -10 -20 -4 -28 6 -7 11 -35 12 -62 1 -26 4 -52 7 -57 3 -5 1 -16 -4 -25 -7 -12 -13 8 -21 72 -11 86 -16 123 -46 304 -87 538 -95 594 -83 602 7 4 44 8 81 8 53 0 69 -3 74 -16z m893 -14 c0 -16 -4 -30 -9 -30 -5 0 -16 -3 -24 -6 -8 -3 -21 2 -30 11 -14 14 -16 11 -22 -32 -3 -27 -8 -58 -11 -70 -3 -18 0 -23 17 -23 19 0 19 -1 5 -16 -18 -18 -21 -34 -6 -34 6 0 10 5 10 11 0 5 4 8 9 5 4 -3 16 3 26 14 24 26 37 25 35 -2 -1 -13 -2 -53 -1 -90 l1 -68 118 0 118 0 72 -73 72 -72 0 -158 c0 -118 -3 -157 -12 -158 -10 0 -10 -2 0 -6 8 -3 12 -30 12 -85 l0 -80 -52 -59 c-29 -32 -60 -59 -69 -59 -9 0 -19 -7 -23 -15 -7 -19 -82 -21 -89 -2 -4 10 -7 10 -18 0 -16 -16 -344 -18 -383 -3 l-26 10 0 126 c0 108 2 125 15 120 8 -3 15 -1 15 3 0 5 -7 11 -15 15 -13 4 -15 40 -15 231 0 137 4 224 9 220 5 -3 12 -1 16 5 3 6 -1 13 -9 16 -14 5 -16 33 -16 195 l0 189 140 0 140 0 0 -30z m748 17 c-15 -10 -15 -12 4 -29 12 -10 16 -18 8 -18 -10 0 -10 -3 0 -15 6 -8 9 -23 6 -33 -4 -12 0 -24 9 -32 13 -11 13 -15 3 -21 -11 -7 -11 -12 0 -29 9 -16 10 -25 3 -34 -6 -7 -12 -39 -14 -70 -1 -41 -6 -56 -17 -57 -11 -1 -10 -3 3 -6 19 -5 22 -18 7 -28 -7 -4 -8 -11 -1 -18 5 -7 9 -29 9 -51 0 -21 4 -42 9 -47 16 -16 34 16 34 58 -2 88 0 230 3 253 8 64 8 66 15 35 5 -23 11 -29 26 -26 19 3 19 2 2 -16 -9 -11 -17 -32 -17 -48 0 -34 16 -23 23 15 2 14 5 -122 6 -302 l1 -327 83 -3 82 -3 3 -129 c2 -95 -1 -131 -10 -137 -17 -11 -410 -10 -428 1 -9 5 -19 5 -26 -1 -7 -6 -41 -9 -76 -7 l-63 3 -3 138 -3 137 86 0 85 0 0 430 0 430 83 -1 c64 0 78 -3 65 -12z m519 -3 c5 -15 7 -15 15 0 6 11 23 16 59 16 44 0 51 -3 59 -26 6 -14 10 -46 10 -72 0 -90 3 -93 79 -90 l66 3 10 80 c6 44 14 86 18 93 6 9 75 12 288 12 l279 0 0 -28 c0 -33 -40 -60 -85 -56 -16 2 -45 4 -62 4 -40 2 -47 30 -8 30 28 0 33 15 8 24 -9 4 -20 1 -24 -6 -6 -10 -15 -10 -38 -1 -45 16 -70 6 -76 -31 -2 -17 -16 -110 -30 -206 -15 -96 -38 -242 -52 -325 -14 -82 -27 -161 -29 -175 -1 -13 -8 -26 -13 -28 -6 -2 -11 -8 -11 -13 0 -6 5 -7 10 -4 6 3 10 1 10 -4 0 -16 -16 -13 -36 6 -16 17 -17 15 -11 -40 3 -32 10 -64 16 -71 7 -9 6 -42 -4 -111 -8 -54 -15 -100 -15 -102 0 -2 -85 -3 -189 -3 -148 1 -192 5 -201 15 -7 8 -9 19 -5 24 3 6 6 60 6 121 0 109 1 110 25 116 l25 6 -22 16 c-18 12 -21 22 -16 59 2 24 2 45 -2 47 -4 3 -8 19 -9 38 -2 18 -7 37 -12 42 -4 4 -6 15 -3 22 3 9 -2 14 -16 14 -24 0 -24 0 -11 -34 5 -14 6 -26 2 -26 -4 0 -7 -27 -7 -59 -1 -34 -6 -66 -14 -75 -9 -11 -10 -20 -4 -28 6 -7 11 -35 12 -62 1 -26 4 -52 7 -57 3 -5 1 -16 -4 -25 -7 -12 -13 8 -21 72 -11 86 -16 123 -46 304 -87 538 -95 594 -83 602 7 4 44 8 81 8 53 0 69 -3 74 -16z m1160 -241 c1 -139 -2 -255 -6 -257 -4 -3 -25 -1 -47 4 -23 6 -40 5 -42 0 -2 -5 -17 -7 -33 -3 -16 3 -29 2 -29 -3 0 -13 20 -41 20 -29 0 15 122 13 127 -2 2 -6 0 -41 -5 -77 -5 -36 -6 -66 -3 -66 3 0 20 53 37 118 18 64 55 180 83 257 29 77 66 179 84 228 l31 87 153 0 153 0 0 -253 c0 -177 -3 -256 -11 -264 -7 -7 -25 -9 -43 -6 -22 4 -28 2 -21 -5 6 -6 24 -12 40 -14 l30 -3 3 -294 c2 -256 0 -293 -13 -288 -8 4 -17 2 -20 -3 -8 -12 -175 -13 -194 -1 -11 7 -12 60 -7 307 3 165 8 319 11 344 3 26 -9 -5 -29 -75 -32 -113 -159 -481 -191 -553 l-15 -33 -152 3 -153 3 -3 296 -2 296 22 11 23 11 -22 0 -23 1 0 261 0 260 123 -3 122 -3 2 -252z m-1557 180 c-1 -59 -2 -66 -14 -50 -9 11 -20 15 -31 11 -13 -5 -16 -3 -13 7 3 8 12 13 21 13 14 -1 31 37 26 62 -2 13 0 24 6 24 3 0 5 -30 5 -67z m-876 -40 c-7 -2 -10 -13 -7 -23 3 -11 1 -20 -3 -21 -5 0 -19 -2 -31 -5 -18 -3 -23 1 -23 16 0 12 8 23 18 26 9 3 24 9 32 14 8 4 17 5 20 2 3 -2 0 -7 -6 -9z m2114 2 c38 1 42 -1 42 -22 0 -13 -6 -23 -14 -23 -12 0 -12 -5 1 -31 21 -42 10 -47 -85 -43 -43 1 -101 3 -130 3 -38 1 -52 5 -49 14 2 6 17 12 33 12 16 0 34 3 39 7 6 4 32 6 58 4 26 -1 47 1 47 6 0 4 7 8 16 8 8 0 12 5 9 10 -5 8 -11 8 -20 0 -9 -7 -25 -5 -58 9 -29 13 -49 16 -53 10 -4 -7 -10 -6 -19 1 -7 6 -19 9 -26 8 -8 -2 -14 4 -14 12 0 12 13 15 68 13 37 -2 67 2 67 7 0 6 9 6 23 2 12 -5 41 -8 65 -7z m39 -149 c-4 -13 -19 -14 -249 -15 -26 0 -22 17 5 21 12 2 73 4 135 4 79 1 112 -2 109 -10z m-68 -40 c33 5 39 2 51 -23 7 -15 15 -55 18 -88 4 -55 3 -58 -14 -45 -18 16 -28 18 -109 22 -27 2 -56 7 -62 11 -8 5 -13 4 -13 -2 0 -14 -37 -14 -45 -1 -3 5 0 7 8 4 8 -3 17 2 21 11 3 9 2 13 -4 10 -6 -3 -10 1 -10 9 0 8 9 18 20 21 22 7 28 35 8 35 -41 -1 -60 -13 -55 -37 3 -15 0 -22 -7 -20 -18 6 -19 36 -1 63 14 21 22 24 63 22 26 -2 50 -7 53 -12 4 -5 13 1 20 13 8 11 15 17 17 11 2 -5 20 -7 41 -4z m24 -207 c21 21 47 13 47 -14 0 -26 -15 -34 -23 -12 -3 9 -9 9 -23 1 -20 -11 -94 -7 -94 5 0 20 24 29 52 19 21 -8 33 -7 41 1z m-123 -23 c0 -7 -19 -11 -50 -11 -49 0 -68 13 -35 25 25 9 85 -1 85 -14z m-90 -66 c0 -6 9 -6 26 0 57 22 110 6 84 -25 -9 -11 -17 -11 -37 -2 -18 8 -29 8 -44 -1 -31 -19 -49 -15 -49 13 0 14 5 25 10 25 6 0 10 -4 10 -10z m255 -1 c7 -10 7 -10 -57 -15 -31 -2 -48 1 -51 10 -6 15 99 20 108 5z m-250 -80 c4 -6 13 -8 21 -5 7 3 16 1 19 -3 8 -14 53 -19 64 -8 8 8 11 8 11 0 0 -6 8 -9 19 -6 10 3 22 0 26 -7 5 -8 11 -6 20 7 12 15 16 16 27 4 11 -12 11 -13 -1 -6 -10 6 -12 1 -6 -23 6 -28 3 -32 -19 -38 -36 -9 -22 -24 21 -24 32 0 35 2 31 25 -6 30 8 34 17 5 4 -12 -1 -29 -12 -44 -15 -21 -25 -25 -63 -23 -25 1 -48 7 -52 12 -5 6 -11 5 -17 -4 -11 -17 -101 -22 -101 -5 0 6 -6 16 -13 22 -15 13 -23 132 -8 132 5 0 13 -5 16 -11z m-3031 -45 c25 -9 19 -24 -9 -24 -16 0 -25 6 -25 15 0 16 9 19 34 9z m3256 -134 c23 -1 24 -2 4 -10 -33 -13 -247 -17 -251 -3 -3 7 18 11 63 12 37 0 69 2 70 4 2 2 23 2 46 1 24 -2 54 -3 68 -4z m28 -54 c2 -3 1 -9 -3 -15 -8 -14 -42 -14 -50 -1 -4 6 -12 4 -21 -5 -16 -16 -34 -20 -34 -7 0 4 -16 7 -35 7 -19 0 -35 -3 -35 -7 0 -5 -7 -8 -15 -8 -8 0 -15 -5 -15 -11 0 -7 9 -9 21 -6 12 3 41 -1 65 -9 23 -8 46 -14 51 -13 4 1 13 0 18 -1 6 -1 18 -3 27 -4 10 0 18 -5 18 -11 0 -12 -128 -22 -212 -17 -49 3 -58 7 -58 23 0 10 7 19 15 19 19 0 19 9 0 34 -34 45 -25 49 122 42 75 -3 138 -8 141 -10z m-122 -146 c14 0 24 -6 24 -14 0 -9 -8 -12 -25 -8 -26 5 -33 -6 -14 -25 9 -9 16 -9 30 0 13 8 24 8 42 0 14 -7 35 -9 47 -6 17 4 21 2 18 -8 -4 -11 -33 -14 -139 -14 l-134 0 -3 27 c-5 39 31 61 87 54 24 -3 54 -6 67 -6z m114 -10 c0 -5 -7 -10 -15 -10 -8 0 -15 5 -15 10 0 6 7 10 15 10 8 0 15 -4 15 -10z"/>
 <path d="M1706 3915 c-8 -23 -9 -22 14 -28 27 -7 31 4 10 26 -16 16 -18 16 -24 2z"/>
 <path d="M1790 3891 c0 -12 5 -21 10 -21 6 0 10 6 10 14 0 8 -4 18 -10 21 -5 3 -10 -3 -10 -14z"/>
 <path d="M2176 3694 c-8 -20 0 -32 14 -18 5 5 5 15 1 22 -6 11 -10 10 -15 -4z"/>
 <path d="M2108 3693 c-26 -7 -22 -20 7 -25 25 -5 51 13 38 25 -7 7 -18 7 -45 0z"/>
 <path d="M1910 3670 c0 -11 5 -20 10 -20 6 0 10 9 10 20 0 11 -4 20 -10 20 -5 0 -10 -9 -10 -20z"/>
 <path d="M1798 3673 c-10 -2 -18 -9 -18 -15 0 -5 7 -8 15 -4 9 3 15 0 15 -9 0 -8 9 -15 20 -15 11 0 20 5 20 10 0 6 -4 10 -10 10 -5 0 -10 7 -10 15 0 15 -2 16 -32 8z"/>
 <path d="M1900 3400 c0 -7 -13 -9 -35 -6 -39 6 -45 -3 -15 -21 12 -8 21 -9 25 -3 3 6 15 10 26 10 20 0 26 15 9 25 -5 3 -10 1 -10 -5z"/>
 <path d="M1936 3392 c-13 -12 -5 -23 9 -12 9 7 15 8 15 2 0 -15 90 -20 102 -5 8 10 4 13 -18 15 -16 1 -46 2 -66 4 -20 1 -39 -1 -42 -4z"/>
 <path d="M2097 3393 c-12 -11 -8 -23 8 -23 8 0 15 7 15 15 0 16 -12 20 -23 8z"/>
 <path d="M2860 4331 c0 -5 7 -12 16 -15 24 -9 27 -7 10 9 -17 17 -26 19 -26 6z"/>
 <path d="M2566 4160 c-18 -18 -18 -20 -2 -26 20 -8 52 19 42 35 -10 15 -18 13 -40 -9z"/>
 <path d="M2560 4105 c0 -8 7 -15 15 -15 8 0 15 7 15 15 0 8 -7 15 -15 15 -8 0 -15 -7 -15 -15z"/>
 <path d="M2567 4005 c-4 -8 -2 -17 3 -20 6 -4 10 -4 10 -1 0 2 3 11 6 20 3 9 2 16 -4 16 -5 0 -12 -7 -15 -15z"/>
 <path d="M2710 3987 c0 -1 11 -81 25 -177 14 -96 25 -190 25 -208 0 -20 4 -31 10 -27 6 3 10 27 10 53 0 26 9 110 20 187 27 190 30 175 -35 175 -30 0 -55 -1 -55 -3z"/>
 <path d="M2540 3941 c0 -24 21 -62 33 -58 6 2 11 10 9 17 -1 7 2 18 8 25 8 9 5 14 -12 19 -32 8 -38 7 -38 -3z"/>
 <path d="M2485 3880 c-3 -5 1 -10 9 -10 8 0 18 5 21 10 3 6 -1 10 -9 10 -8 0 -18 -4 -21 -10z"/>
 <path d="M2560 3840 c0 -5 7 -10 15 -10 8 0 15 5 15 10 0 6 -7 10 -15 10 -8 0 -15 -4 -15 -10z"/>
 <path d="M2504 3746 c-8 -22 3 -33 18 -18 9 9 9 15 0 24 -9 9 -13 7 -18 -6z"/>
 <path d="M2663 3653 c-16 -33 -12 -37 20 -20 25 13 26 15 9 30 -16 14 -18 14 -29 -10z"/>
 <path d="M2793 3655 c-9 -25 2 -27 22 -5 17 18 17 20 1 20 -9 0 -19 -7 -23 -15z"/>
 <path d="M3260 4394 c0 -14 3 -15 18 -3 9 7 19 15 21 16 2 2 -5 3 -17 3 -14 0 -22 -6 -22 -16z"/>
 <path d="M3230 4352 c-19 -13 -24 -24 -22 -49 2 -25 -1 -33 -18 -38 -32 -10 -18 -30 21 -29 19 0 37 -5 41 -10 11 -16 21 1 21 34 0 18 6 30 14 30 7 0 13 5 13 11 0 6 9 9 20 6 18 -5 18 -4 3 20 -12 18 -18 21 -24 11 -6 -9 -9 -6 -9 10 0 27 -25 29 -60 4z"/>
 <path d="M3297 4273 c-13 -13 -7 -21 13 -16 11 3 20 9 20 14 0 10 -24 12 -33 2z"/>
 <path d="M3255 4150 c-3 -5 1 -10 10 -10 9 0 14 -4 11 -8 -10 -16 10 -30 37 -25 37 7 34 26 -6 41 -40 15 -44 15 -52 2z"/>
 <path d="M3316 4040 c14 -27 34 -41 34 -22 -1 9 -36 52 -43 52 -3 0 1 -13 9 -30z"/>
 <path d="M3432 4003 c-10 -4 -10 -8 -1 -19 13 -15 39 -19 39 -5 0 14 -24 29 -38 24z"/>
 <path d="M3190 3900 c0 -5 11 -9 24 -8 14 1 22 6 20 10 -7 12 -44 10 -44 -2z"/>
 <path d="M3440 3690 l0 -140 44 0 c24 0 51 3 60 6 17 7 22 34 6 34 -6 0 -10 47 -10 120 l0 120 -50 0 -50 0 0 -140z"/>
 <path d="M3620 3601 c0 -6 5 -13 10 -16 6 -3 10 -2 10 4 0 6 7 8 15 5 8 -4 15 -1 15 5 0 6 -11 11 -25 11 -14 0 -25 -4 -25 -9z"/>
 <path d="M4273 4120 c-1 -22 2 -40 6 -40 10 0 19 50 13 68 -8 25 -18 10 -19 -28z"/>
 <path d="M4277 4063 c-11 -10 -8 -83 3 -83 6 0 10 20 10 45 0 46 -2 50 -13 38z"/>
 <path d="M4270 3945 c0 -8 5 -15 10 -15 6 0 10 7 10 15 0 8 -4 15 -10 15 -5 0 -10 -7 -10 -15z"/>
 <path d="M4230 3761 c0 -12 5 -21 10 -21 6 0 10 6 10 14 0 8 -4 18 -10 21 -5 3 -10 -3 -10 -14z"/>
 <path d="M4216 3704 c-9 -22 -8 -24 9 -24 8 0 15 9 15 20 0 24 -15 27 -24 4z"/>
 <path d="M4220 3644 c-13 -32 -13 -37 1 -32 11 4 23 58 13 58 -2 0 -9 -12 -14 -26z"/>
 <path d="M4214 3574 c3 -9 6 -20 6 -25 0 -6 4 -8 9 -5 12 8 2 46 -11 46 -6 0 -7 -7 -4 -16z"/>
 <path d="M4210 3505 c0 -8 5 -15 10 -15 6 0 10 7 10 15 0 8 -4 15 -10 15 -5 0 -10 -7 -10 -15z"/>
 <path d="M4207 3360 c-3 -11 -1 -20 4 -20 5 0 9 2 9 4 0 2 3 11 6 20 3 9 2 16 -4 16 -5 0 -12 -9 -15 -20z"/>
 <path d="M5020 4331 c0 -5 7 -12 16 -15 24 -9 27 -7 10 9 -17 17 -26 19 -26 6z"/>
 <path d="M4726 4160 c-18 -18 -18 -20 -2 -26 20 -8 52 19 42 35 -10 15 -18 13 -40 -9z"/>
 <path d="M4720 4105 c0 -8 7 -15 15 -15 8 0 15 7 15 15 0 8 -7 15 -15 15 -8 0 -15 -7 -15 -15z"/>
 <path d="M4727 4005 c-4 -8 -2 -17 3 -20 6 -4 10 -4 10 -1 0 2 3 11 6 20 3 9 2 16 -4 16 -5 0 -12 -7 -15 -15z"/>
 <path d="M4870 3987 c0 -1 11 -81 25 -177 14 -96 25 -190 25 -208 0 -20 4 -31 10 -27 6 3 10 27 10 53 0 26 9 110 20 187 27 190 30 175 -35 175 -30 0 -55 -1 -55 -3z"/>
 <path d="M4700 3941 c0 -24 21 -62 33 -58 6 2 11 10 9 17 -1 7 2 18 8 25 8 9 5 14 -12 19 -32 8 -38 7 -38 -3z"/>
 <path d="M4645 3880 c-3 -5 1 -10 9 -10 8 0 18 5 21 10 3 6 -1 10 -9 10 -8 0 -18 -4 -21 -10z"/>
 <path d="M4720 3840 c0 -5 7 -10 15 -10 8 0 15 5 15 10 0 6 -7 10 -15 10 -8 0 -15 -4 -15 -10z"/>
 <path d="M4664 3746 c-8 -22 3 -33 18 -18 9 9 9 15 0 24 -9 9 -13 7 -18 -6z"/>
 <path d="M4823 3653 c-16 -33 -12 -37 20 -20 25 13 26 15 9 30 -16 14 -18 14 -29 -10z"/>
 <path d="M4953 3655 c-9 -25 2 -27 22 -5 17 18 17 20 1 20 -9 0 -19 -7 -23 -15z"/>
 <path d="M6175 4190 c-14 -16 -15 -20 -4 -20 11 0 14 -10 12 -37 -2 -21 0 -31 4 -23 3 8 12 19 20 23 8 5 11 17 7 35 -10 40 -18 45 -39 22z"/>
 <path d="M6270 4201 c0 -5 9 -7 20 -4 23 6 26 -6 8 -27 -11 -12 -10 -12 5 -1 25 20 21 41 -8 41 -14 0 -25 -4 -25 -9z"/>
 <path d="M5820 4176 c0 -9 7 -16 16 -16 9 0 14 5 12 12 -6 18 -28 21 -28 4z"/>
 <path d="M6245 4161 c-6 -11 9 -23 19 -14 9 9 7 23 -3 23 -6 0 -12 -4 -16 -9z"/>
 <path d="M6280 4137 c0 -9 -7 -17 -15 -17 -8 0 -15 -7 -15 -15 0 -12 4 -14 19 -5 27 14 35 30 22 43 -8 8 -11 6 -11 -6z"/>
 <path d="M5780 4120 c0 -6 5 -10 11 -10 5 0 8 -4 4 -9 -3 -5 -1 -12 5 -16 5 -3 10 3 10 13 0 11 -7 22 -15 26 -8 3 -15 1 -15 -4z"/>
 <path d="M6215 3915 l-30 -13 43 -1 c30 -1 42 3 40 11 -6 18 -20 19 -53 3z"/>
 <path d="M5776 3494 c-8 -22 -8 -22 14 -34 17 -9 20 -8 20 14 0 27 -25 42 -34 20z"/>
 <path d="M5490 4045 c0 -9 6 -12 15 -9 8 4 15 10 15 15 0 5 -7 9 -15 9 -8 0 -15 -7 -15 -15z"/>
 <path d="M5390 3710 c-12 -7 -12 -12 -3 -21 15 -15 26 -7 21 15 -2 11 -7 13 -18 6z"/>
 </g>
<g id="layer106" fill="#caddfc" stroke="none">
 <path d="M3790 7773 c-728 -43 -1458 -309 -2027 -738 -73 -55 -82 -65 -60 -65 37 0 32 1 79 -16 100 -35 225 -111 314 -190 12 -11 35 -30 53 -43 17 -13 31 -32 31 -41 0 -10 7 -23 15 -30 17 -14 20 -46 5 -55 -14 -9 -2 -25 19 -25 9 0 32 -15 50 -34 32 -33 33 -34 12 -48 -22 -16 -18 -28 10 -28 9 0 19 -7 23 -15 3 -8 16 -15 28 -15 25 0 52 -33 54 -65 3 -47 18 -85 40 -100 15 -9 24 -25 24 -40 0 -14 5 -25 10 -25 6 0 10 -5 10 -11 0 -6 -7 -8 -16 -5 -12 5 -15 2 -10 -10 3 -9 -3 -28 -14 -44 -11 -15 -20 -33 -20 -38 0 -6 -9 -8 -20 -5 -15 4 -20 0 -20 -15 0 -12 -4 -23 -9 -26 -4 -3 -11 -18 -14 -33 -4 -19 -17 -33 -39 -43 -34 -15 -46 -52 -27 -77 7 -7 -2 -24 -25 -49 -24 -27 -34 -45 -30 -59 3 -12 -3 -31 -15 -46 -13 -17 -21 -45 -23 -89 -4 -59 -7 -66 -32 -78 -20 -10 -25 -18 -21 -33 5 -16 1 -19 -29 -19 -35 0 -47 -12 -26 -25 17 -10 11 -25 -9 -25 -37 0 -146 -33 -211 -63 -228 -106 -467 -372 -630 -702 -14 -27 -28 -51 -32 -53 -5 -2 -8 -8 -8 -14 0 -6 -21 -54 -46 -107 -51 -105 -157 -351 -169 -391 -4 -14 -11 -29 -15 -35 -4 -5 -17 -39 -30 -75 -13 -36 -27 -69 -32 -75 -4 -5 -8 -17 -8 -27 0 -10 -4 -18 -8 -18 -5 0 -9 -6 -9 -12 0 -12 -101 -305 -126 -368 -6 -14 -11 -29 -12 -35 -2 -5 -35 -111 -74 -235 -140 -440 -175 -560 -174 -600 0 -14 30 -92 67 -175 116 -262 253 -497 427 -728 132 -175 177 -228 337 -390 271 -275 542 -480 881 -668 169 -93 452 -217 606 -264 l41 -13 -19 72 c-26 101 -28 403 -3 429 7 7 18 27 25 45 10 23 18 31 31 27 14 -5 17 3 16 62 -1 58 2 68 18 71 10 2 23 -2 27 -10 10 -14 6 56 -5 82 -11 27 -1 69 21 92 50 51 58 64 55 84 -2 11 6 28 18 39 11 10 20 25 20 34 0 14 2 14 10 1 7 -11 12 -12 18 -4 9 14 106 29 98 15 -12 -19 14 -22 41 -4 15 10 24 13 20 6 -5 -8 0 -9 22 0 23 8 36 7 62 -5 35 -18 64 -8 74 23 4 13 15 15 55 11 28 -2 56 0 62 6 7 5 30 17 52 26 36 15 38 15 25 -1 -9 -11 5 -6 41 13 30 16 57 32 58 37 5 11 42 9 42 -3 0 -14 37 -12 44 3 5 12 28 -9 40 -37 3 -6 12 -2 22 11 l16 23 62 -54 c51 -45 218 -144 244 -146 4 0 27 -7 52 -14 113 -37 216 -50 385 -50 149 -1 329 9 345 19 3 2 33 6 68 9 34 3 79 10 100 15 20 6 53 13 72 16 19 3 46 8 60 10 14 3 34 7 45 9 110 22 382 89 455 112 25 7 56 15 70 17 14 2 32 6 40 9 8 4 47 15 85 26 39 12 115 35 170 52 56 16 110 32 120 35 11 2 34 9 50 14 100 35 246 83 257 85 7 1 19 5 26 10 8 5 35 14 60 22 26 7 72 22 102 33 30 11 105 38 165 59 61 22 148 54 195 71 l85 31 62 104 c283 470 453 974 519 1531 13 108 18 224 18 415 0 191 -5 307 -18 415 -24 205 -77 475 -118 603 l-10 34 -32 -29 c-33 -31 -121 -95 -146 -107 -8 -3 -44 -24 -80 -46 -37 -22 -69 -35 -75 -31 -5 5 -19 5 -30 0 -35 -14 -55 -10 -55 11 0 13 -5 18 -15 14 -8 -4 -15 -12 -15 -20 0 -7 -19 -23 -41 -35 -38 -19 -43 -19 -58 -4 -14 14 -14 17 -1 25 10 6 11 10 3 10 -7 0 -18 -9 -25 -20 -7 -11 -21 -20 -31 -20 -10 0 -16 -3 -13 -8 2 -4 -2 -16 -10 -26 -14 -20 -28 -21 -120 -15 -22 1 -47 -1 -54 -6 -8 -5 -33 -10 -56 -10 -34 -2 -41 1 -36 13 3 10 0 13 -9 10 -22 -7 -70 62 -58 84 8 15 6 18 -11 18 -11 0 -20 6 -20 13 0 6 -13 19 -29 29 -24 13 -30 23 -29 49 1 40 -23 60 -64 52 -22 -4 -29 -2 -27 8 5 25 -30 79 -52 79 -12 0 -27 12 -37 30 -9 16 -23 30 -29 30 -7 0 -13 5 -13 10 0 6 -8 10 -19 10 -10 0 -24 7 -31 15 -6 8 -15 14 -18 13 -26 -3 -33 5 -30 30 2 22 -1 28 -19 30 -23 3 -33 32 -12 32 5 0 8 4 4 9 -3 5 -1 12 5 16 18 11 1 23 -25 17 -26 -4 -26 -4 -18 34 4 22 7 86 7 144 -2 252 -112 495 -357 790 -98 117 -386 405 -567 566 -201 178 -164 147 -477 401 -104 85 -389 302 -550 419 l-115 84 -146 -2 c-81 -1 -172 -3 -202 -5z m-1532 -3407 l73 -74 -3 -167 c-1 -91 -6 -168 -10 -171 -4 -3 -5 -11 -1 -19 7 -20 -30 -19 -122 0 -38 8 -82 15 -97 15 -53 0 -53 2 -50 125 l4 115 -51 0 -51 0 -1 -197 c0 -273 -3 -381 -11 -388 -3 -3 -1 -17 6 -31 10 -22 16 -24 56 -22 l45 3 2 94 c2 52 5 96 6 97 2 2 39 -1 83 -6 43 -6 103 -13 132 -16 34 -5 52 -11 52 -20 0 -8 -7 -14 -16 -14 -9 0 -14 -5 -12 -11 2 -6 7 -10 12 -9 18 3 24 -26 25 -115 0 -73 -4 -97 -19 -123 -11 -18 -26 -32 -35 -32 -8 0 -20 -10 -26 -22 -7 -13 -26 -35 -43 -50 l-31 -27 -182 -1 -181 0 -71 76 -71 76 0 418 0 418 36 44 c19 23 52 57 72 75 l37 32 186 1 185 0 72 -74z m289 58 c5 -15 7 -15 15 0 6 11 23 16 59 16 59 0 63 -7 72 -115 4 -38 7 -71 7 -73 0 -2 30 -2 67 0 58 3 67 6 68 23 9 90 18 151 21 157 3 5 70 8 150 8 l144 0 0 -32 c0 -18 -5 -62 -11 -98 -6 -36 -12 -74 -14 -85 -6 -39 -25 -166 -35 -236 -14 -104 -39 -239 -50 -278 -5 -19 -7 -37 -4 -42 7 -12 -7 -59 -18 -59 -5 0 -6 5 -2 12 5 7 3 8 -6 3 -7 -4 -16 -2 -21 6 -5 8 -6 -11 -3 -46 3 -33 10 -65 15 -71 9 -11 7 -43 -7 -139 -12 -83 7 -76 -212 -73 l-196 3 1 105 c1 181 -1 170 31 171 15 0 20 3 12 6 -37 13 -54 75 -28 101 9 9 9 12 0 12 -7 0 -12 6 -11 13 4 33 -3 64 -21 87 -23 30 -34 23 -21 -14 6 -14 7 -26 3 -26 -4 0 -6 -29 -6 -65 2 -51 -1 -67 -14 -74 -13 -8 -14 -12 -3 -25 8 -10 14 -51 16 -108 4 -141 -25 -36 -40 144 -3 37 -9 78 -14 90 -5 13 -11 46 -15 73 -4 28 -9 64 -11 80 -2 17 -8 53 -14 82 -6 28 -13 78 -16 110 -3 32 -10 74 -15 93 -5 19 -11 55 -14 80 -3 25 -10 69 -16 99 -20 104 -21 101 70 101 65 0 82 -3 87 -16z m893 -19 c0 -33 -2 -34 -31 -31 -17 2 -35 10 -40 17 -7 11 -9 9 -10 -6 -3 -53 -9 -100 -14 -112 -3 -9 0 -13 7 -11 7 3 15 14 18 26 3 12 20 32 39 43 l34 20 -7 -32 c-7 -38 -8 -40 -33 -43 -11 -2 -17 -10 -15 -21 3 -13 -1 -16 -14 -11 -14 5 -15 4 -4 -9 11 -14 14 -13 27 5 19 27 45 26 43 -2 -1 -13 -2 -53 -1 -90 l1 -68 118 0 117 0 72 -68 73 -67 2 -163 c3 -138 1 -162 -12 -162 -13 0 -13 -2 0 -10 11 -7 13 -28 11 -92 l-3 -82 -58 -58 c-32 -32 -63 -58 -70 -58 -6 0 -8 -5 -5 -10 5 -8 -75 -10 -253 -10 -221 2 -261 4 -266 17 -3 8 -6 69 -6 135 0 103 2 119 15 114 8 -3 15 -1 15 3 0 5 -7 11 -15 15 -13 4 -15 40 -15 231 0 137 4 224 9 220 5 -3 12 -1 16 5 3 6 -1 13 -9 16 -14 5 -16 33 -16 195 l0 189 140 0 140 0 0 -35z m751 21 c-9 -11 -8 -18 4 -30 12 -11 13 -16 4 -16 -10 0 -10 -3 -1 -12 7 -7 12 -24 12 -39 0 -15 4 -30 8 -33 9 -6 9 -62 -1 -86 -9 -25 -13 -100 -5 -100 20 0 6 -20 -14 -21 -16 -1 -18 -3 -6 -6 13 -3 16 -15 14 -53 -2 -57 8 -90 26 -89 10 0 10 2 1 6 -7 2 -13 9 -13 14 0 6 5 7 10 4 6 -3 11 1 11 9 3 29 4 34 11 41 4 4 3 17 -1 29 -10 25 -8 172 2 182 4 4 3 12 -2 18 -12 15 -1 68 13 63 6 -2 11 -12 11 -23 0 -10 8 -20 17 -22 16 -3 18 -30 20 -340 l3 -337 80 -5 80 -5 3 -137 3 -138 -303 3 -303 2 -3 138 -3 137 85 0 85 0 -2 430 -2 430 84 0 c70 0 82 -2 72 -14z m516 -2 c5 -15 7 -15 15 0 6 11 23 16 59 16 59 0 63 -7 72 -115 4 -38 7 -71 7 -73 0 -2 30 -2 67 0 58 3 67 6 68 23 9 90 18 151 21 157 3 5 133 8 290 8 l284 0 0 -29 c0 -49 -20 -56 -147 -51 -40 2 -47 30 -7 30 15 0 23 4 19 11 -4 6 -19 7 -35 4 -16 -4 -37 -2 -48 4 -23 12 -62 4 -62 -14 0 -8 9 -10 25 -7 19 3 25 0 25 -13 0 -11 -5 -15 -14 -12 -24 10 -43 -16 -50 -68 -4 -27 -9 -59 -11 -70 -5 -30 -24 -155 -35 -236 -14 -104 -39 -239 -50 -278 -5 -19 -7 -37 -4 -42 7 -12 -7 -59 -18 -59 -5 0 -6 5 -2 12 5 7 3 8 -6 3 -7 -4 -16 -2 -21 6 -5 8 -6 -11 -3 -46 3 -33 10 -65 15 -71 9 -11 7 -43 -7 -139 -12 -83 7 -76 -212 -73 l-196 3 1 105 c1 181 -1 170 31 171 15 0 20 3 12 6 -37 13 -54 75 -28 101 9 9 9 12 0 12 -7 0 -12 6 -11 13 4 33 -3 64 -21 87 -23 30 -34 23 -21 -14 6 -14 7 -26 3 -26 -4 0 -6 -29 -6 -65 2 -51 -1 -67 -14 -74 -13 -8 -14 -12 -3 -25 8 -10 14 -51 16 -108 4 -141 -25 -36 -40 144 -3 37 -9 78 -14 90 -5 13 -11 46 -15 73 -4 28 -9 64 -11 80 -2 17 -8 53 -14 82 -6 28 -13 78 -16 110 -3 32 -10 74 -15 93 -5 19 -11 55 -14 80 -3 25 -10 69 -16 99 -20 104 -21 101 70 101 65 0 82 -3 87 -16z m1160 -242 c2 -216 0 -254 -13 -259 -11 -4 -12 -9 -3 -19 7 -8 9 -37 6 -76 l-6 -63 14 45 c7 25 22 80 34 123 19 71 38 124 62 169 5 10 9 23 9 30 0 7 7 26 15 42 8 16 22 54 31 85 9 31 22 70 29 86 7 17 19 45 26 63 l14 32 155 0 155 0 0 -252 c0 -210 -2 -255 -15 -264 -11 -9 -11 -15 -3 -25 13 -16 17 -110 15 -390 l-2 -206 -121 -2 -121 -2 4 321 4 320 -22 -77 c-28 -98 -80 -253 -93 -274 -5 -9 -15 -36 -21 -60 -7 -24 -18 -57 -25 -74 -7 -16 -23 -58 -35 -93 l-23 -62 -156 2 -156 3 -3 294 c-2 208 1 298 9 307 8 10 8 14 0 14 -8 0 -11 75 -11 260 l0 261 123 -3 122 -3 2 -253z m-1557 168 c0 -47 -4 -80 -10 -80 -5 0 -9 3 -9 8 1 4 1 17 0 29 -1 19 -4 21 -33 12 -40 -11 -47 -5 -19 18 19 16 21 22 12 46 -11 29 -1 36 18 13 6 -7 8 -22 4 -31 -4 -13 -3 -16 5 -11 7 4 12 20 12 35 0 24 7 41 17 41 2 0 3 -36 3 -80z m1238 -25 c38 1 42 -1 42 -22 0 -15 -6 -23 -16 -23 -14 0 -14 -2 -3 -16 20 -25 21 -52 1 -57 -16 -4 -109 -3 -214 1 -41 2 -48 5 -48 22 0 22 29 27 48 8 9 -9 16 -7 32 7 13 11 24 15 28 10 8 -12 72 -14 72 -3 0 5 7 8 16 8 8 0 12 5 9 10 -5 8 -11 8 -19 1 -14 -12 -51 -4 -83 16 -14 10 -23 11 -28 4 -4 -7 -12 -8 -23 -2 -9 5 -21 9 -27 10 -5 1 -10 7 -10 14 0 8 20 12 68 12 37 0 67 3 67 7 0 4 10 4 23 0 12 -5 41 -8 65 -7z m42 -145 c0 -17 -20 -20 -127 -19 -59 0 -118 0 -130 0 -13 -1 -23 2 -23 4 0 3 10 9 23 14 29 11 257 12 257 1z m-59 -41 c39 2 59 -35 59 -110 0 -60 -1 -62 -19 -45 -11 10 -21 13 -25 7 -4 -6 -16 -5 -34 4 -28 13 -59 14 -79 2 -6 -4 -16 0 -23 8 -11 13 -14 13 -25 -2 -11 -14 -15 -15 -28 -4 -9 7 -21 10 -27 6 -5 -3 -10 -1 -10 5 0 8 9 10 24 6 16 -4 26 -1 30 9 3 8 0 14 -6 12 -23 -5 -18 23 6 34 36 17 32 28 -6 20 -27 -6 -32 -11 -30 -30 3 -16 -1 -22 -10 -19 -23 8 -21 46 4 71 20 20 33 24 76 21 31 -1 52 2 52 8 0 6 9 7 23 3 12 -4 34 -6 48 -6z m57 -220 c3 -25 2 -25 -68 -26 -74 0 -94 9 -64 31 11 9 28 11 50 6 25 -6 34 -4 38 7 9 23 41 11 44 -18z m-161 -18 c-2 -9 -10 -14 -18 -12 -8 2 -31 3 -51 2 -20 0 -40 4 -43 9 -9 15 30 26 76 22 31 -3 39 -8 36 -21z m126 -51 c20 0 37 -4 37 -10 0 -12 0 -12 -60 -15 -26 -2 -48 1 -52 8 -14 21 -8 29 15 22 12 -3 39 -6 60 -5z m-108 -11 c4 -5 1 -16 -5 -24 -9 -11 -17 -11 -37 -2 -18 8 -29 8 -44 -1 -30 -19 -49 -15 -49 11 0 21 5 23 65 25 35 1 67 -3 70 -9z m-111 -77 c3 -5 19 -9 36 -10 17 0 38 -6 46 -13 11 -9 14 -8 14 5 0 9 5 16 10 16 6 0 10 -5 10 -11 0 -6 7 -8 16 -5 9 4 23 1 30 -5 11 -9 14 -9 14 0 0 7 10 11 23 9 31 -4 25 -46 -11 -75 -26 -22 -26 -23 -5 -23 39 0 50 9 45 37 -4 19 -1 24 9 21 21 -7 23 -46 4 -75 -15 -22 -22 -24 -55 -19 -21 3 -41 2 -45 -4 -3 -5 -12 -7 -19 -4 -8 3 -17 1 -20 -4 -8 -14 -89 -3 -102 14 -6 8 -13 12 -15 9 -3 -2 -6 29 -8 70 -2 68 7 93 23 67z m243 -186 c9 -9 -67 -18 -163 -20 -65 -1 -99 3 -101 10 -3 8 15 12 53 13 31 0 59 3 62 6 6 6 142 -2 149 -9z m7 -42 c3 -9 4 -20 0 -25 -7 -12 -41 -11 -49 1 -4 6 -12 5 -21 -4 -9 -9 -30 -14 -59 -12 -49 3 -61 -10 -17 -19 15 -4 35 -11 46 -17 14 -7 21 -6 28 4 7 10 10 10 19 -5 6 -9 15 -15 20 -11 6 3 17 3 26 0 11 -5 13 -10 4 -19 -7 -9 -31 -13 -73 -11 -35 1 -65 -2 -68 -6 -3 -5 -26 -4 -50 1 -25 6 -53 8 -62 6 -14 -4 -18 1 -18 19 0 13 5 24 11 24 6 0 8 7 5 16 -3 9 -9 27 -12 41 l-7 25 122 -5 c69 -3 123 -1 127 4 8 14 21 11 28 -7z m-87 -169 c-2 -5 -16 -11 -30 -13 -15 -2 -25 -7 -22 -12 3 -4 23 -6 46 -3 28 4 44 2 49 -7 7 -11 11 -11 23 -1 11 9 17 9 22 1 15 -25 -16 -31 -141 -28 -126 3 -129 4 -132 26 -7 50 47 73 134 58 30 -6 53 -15 51 -21z m91 3 c-3 -7 -13 -13 -23 -13 -10 0 -20 6 -22 13 -3 7 5 12 22 12 17 0 25 -5 23 -12z"/>
 <path d="M1706 3915 c-8 -23 -9 -22 14 -28 27 -7 31 4 10 26 -16 16 -18 16 -24 2z"/>
 <path d="M1790 3885 c0 -8 5 -15 10 -15 6 0 10 7 10 15 0 8 -4 15 -10 15 -5 0 -10 -7 -10 -15z"/>
 <path d="M2230 3701 c0 -5 9 -16 20 -26 19 -18 20 -17 20 2 0 12 -8 23 -20 26 -11 3 -20 2 -20 -2z"/>
 <path d="M2112 3691 c-10 -6 -8 -10 9 -14 26 -7 34 -3 24 12 -7 13 -15 14 -33 2z"/>
 <path d="M1910 3670 c0 -11 5 -20 10 -20 6 0 10 9 10 20 0 11 -4 20 -10 20 -5 0 -10 -9 -10 -20z"/>
 <path d="M1780 3659 c0 -6 7 -9 15 -5 9 3 15 0 15 -9 0 -8 9 -15 20 -15 25 0 25 9 3 26 -22 16 -53 18 -53 3z"/>
 <path d="M1900 3400 c0 -6 -8 -10 -17 -9 -10 1 -25 1 -33 0 -13 -1 -13 -3 0 -10 17 -10 70 -3 70 10 0 4 -4 11 -10 14 -5 3 -10 1 -10 -5z"/>
 <path d="M1975 3391 c-7 -12 12 -24 25 -16 11 7 4 25 -10 25 -5 0 -11 -4 -15 -9z"/>
 <path d="M2090 3380 c0 -5 7 -10 15 -10 8 0 15 5 15 10 0 6 -7 10 -15 10 -8 0 -15 -4 -15 -10z"/>
 <path d="M2590 4166 c0 -9 -4 -15 -9 -11 -5 3 -12 1 -15 -4 -11 -17 10 -21 30 -6 15 11 17 16 7 26 -11 11 -13 10 -13 -5z"/>
 <path d="M2560 4105 c0 -8 5 -15 10 -15 6 0 10 7 10 15 0 8 -4 15 -10 15 -5 0 -10 -7 -10 -15z"/>
 <path d="M2715 3968 c6 -30 45 -340 45 -363 0 -31 14 -6 17 28 2 34 3 48 27 222 9 61 16 116 16 123 0 8 -18 12 -55 12 -52 0 -55 -1 -50 -22z"/>
 <path d="M2540 3938 c1 -19 25 -48 41 -48 8 0 6 5 -6 13 -17 13 -17 14 6 21 23 7 23 8 4 16 -29 13 -45 12 -45 -2z"/>
 <path d="M2670 3663 c0 -13 -4 -23 -10 -23 -5 0 -10 -4 -10 -10 0 -16 19 -11 29 8 6 11 6 24 0 33 -7 11 -9 9 -9 -8z"/>
 <path d="M3238 4353 c-38 -15 -43 -39 -6 -27 15 4 19 2 16 -7 -3 -8 -13 -13 -22 -13 -9 1 -16 -6 -16 -16 0 -10 -7 -20 -15 -24 -8 -3 -15 -13 -15 -21 0 -12 8 -15 28 -13 15 2 27 8 27 15 0 6 3 15 8 19 4 4 7 0 7 -10 0 -9 4 -15 8 -12 5 3 7 21 6 40 -3 35 9 49 19 24 7 -16 27 9 26 32 0 10 -3 9 -8 -4 -5 -12 -10 -16 -14 -9 -4 6 -4 18 -1 27 7 20 0 19 -48 -1z"/>
 <path d="M3300 4270 c0 -5 7 -10 15 -10 8 0 15 5 15 10 0 6 -7 10 -15 10 -8 0 -15 -4 -15 -10z"/>
 <path d="M3265 4150 c-3 -5 -2 -10 3 -10 5 0 13 -8 18 -18 8 -16 12 -17 33 -6 l24 12 -31 16 c-36 19 -39 19 -47 6z"/>
 <path d="M3436 4002 c-7 -12 22 -38 31 -28 4 3 0 14 -9 22 -9 10 -18 12 -22 6z"/>
 <path d="M3440 3690 l0 -140 44 0 c24 0 51 3 60 6 17 7 22 34 6 34 -6 0 -10 47 -10 120 l0 120 -50 0 -50 0 0 -140z"/>
 <path d="M4280 4204 c0 -14 4 -23 9 -20 5 3 7 15 4 26 -7 28 -13 25 -13 -6z"/>
 <path d="M4272 4020 c2 -22 7 -40 11 -40 4 0 7 18 5 40 -1 22 -6 40 -10 40 -5 0 -7 -18 -6 -40z"/>
 <path d="M4218 3640 c-7 -24 -3 -38 8 -28 3 4 4 17 2 30 l-3 23 -7 -25z"/>
 <path d="M4210 3583 c0 -5 5 -15 10 -23 8 -12 10 -11 10 8 0 12 -4 22 -10 22 -5 0 -10 -3 -10 -7z"/>
 <path d="M4207 3359 c-4 -16 -3 -18 9 -8 16 13 19 29 5 29 -5 0 -11 -9 -14 -21z"/>
 <path d="M4750 4166 c0 -9 -4 -15 -9 -11 -5 3 -12 1 -15 -4 -11 -17 10 -21 30 -6 15 11 17 16 7 26 -11 11 -13 10 -13 -5z"/>
 <path d="M4720 4105 c0 -8 5 -15 10 -15 6 0 10 7 10 15 0 8 -4 15 -10 15 -5 0 -10 -7 -10 -15z"/>
 <path d="M4875 3968 c6 -30 45 -340 45 -363 0 -31 14 -6 17 28 2 34 3 48 27 222 9 61 16 116 16 123 0 8 -18 12 -55 12 -52 0 -55 -1 -50 -22z"/>
 <path d="M4700 3938 c1 -19 25 -48 41 -48 8 0 6 5 -6 13 -17 13 -17 14 6 21 23 7 23 8 4 16 -29 13 -45 12 -45 -2z"/>
 <path d="M4830 3663 c0 -13 -4 -23 -10 -23 -5 0 -10 -4 -10 -10 0 -16 19 -11 29 8 6 11 6 24 0 33 -7 11 -9 9 -9 -8z"/>
 <path d="M6188 4176 c-4 -18 -1 -29 9 -33 22 -9 26 3 10 33 l-14 27 -5 -27z"/>
 <path d="M6250 4104 c0 -14 3 -14 15 -4 8 7 15 14 15 16 0 2 -7 4 -15 4 -8 0 -15 -7 -15 -16z"/>
 <path d="M5710 3923 c0 -5 4 -14 9 -21 7 -11 9 -11 14 1 3 8 3 18 0 21 -9 8 -23 7 -23 -1z"/>
 <path d="M5762 3921 c-10 -6 -7 -10 11 -15 28 -7 57 1 57 15 0 11 -51 11 -68 0z"/>
 <path d="M6215 3915 l-30 -13 44 -1 c38 -1 42 1 31 14 -7 8 -13 15 -14 15 0 -1 -14 -7 -31 -15z"/>
 <path d="M5776 3495 c-8 -23 -8 -23 15 -36 19 -10 20 -9 14 13 -10 33 -21 42 -29 23z"/>
 <path d="M5490 4050 c0 -5 7 -10 15 -10 8 0 15 5 15 10 0 6 -7 10 -15 10 -8 0 -15 -4 -15 -10z"/>
 </g>
<g id="layer107" fill="#ffffff" stroke="none">
 <path d="M3790 7770 c-616 -38 -1200 -220 -1725 -536 -153 -92 -404 -269 -370 -262 25 5 102 -15 163 -44 37 -17 70 -32 73 -32 9 -2 129 -89 177 -131 83 -70 217 -209 303 -312 103 -124 239 -307 239 -322 0 -6 5 -11 11 -11 6 0 4 -7 -5 -15 -8 -8 -19 -15 -24 -15 -13 0 -33 -50 -25 -63 4 -6 8 -31 9 -56 3 -35 -1 -48 -16 -58 -11 -8 -17 -20 -13 -29 3 -8 -3 -21 -13 -29 -12 -9 -14 -14 -6 -15 10 0 10 -5 2 -20 -6 -11 -15 -18 -20 -15 -5 3 -11 -3 -15 -14 -4 -13 -12 -17 -26 -14 -11 3 -19 2 -18 -3 5 -29 -4 -58 -24 -78 -13 -13 -31 -40 -41 -60 -9 -20 -22 -37 -29 -37 -7 -1 -17 -2 -22 -3 -30 -3 -104 -53 -130 -87 -29 -36 -55 -50 -55 -29 0 13 -23 13 -37 -1 -6 -6 -32 -13 -57 -15 -101 -8 -234 -61 -356 -142 -117 -78 -272 -247 -377 -412 -77 -122 -233 -421 -233 -447 0 -6 -3 -13 -8 -15 -4 -1 -27 -52 -51 -113 -24 -60 -52 -128 -61 -150 -10 -22 -25 -62 -34 -89 -10 -27 -23 -61 -31 -75 -13 -23 -41 -97 -48 -126 -2 -5 -8 -20 -15 -32 -7 -12 -12 -29 -12 -37 0 -9 -4 -24 -9 -34 -21 -40 -44 -105 -47 -127 0 -5 -5 -21 -11 -35 -14 -31 -37 -93 -39 -100 0 -3 -6 -25 -14 -50 -7 -25 -13 -48 -12 -52 1 -5 -2 -8 -7 -8 -4 0 -11 -15 -14 -32 -3 -18 -11 -46 -18 -63 -6 -16 -13 -35 -14 -41 -2 -6 -15 -47 -30 -90 -15 -43 -29 -89 -31 -101 -3 -13 -21 -76 -40 -141 -20 -64 -42 -141 -50 -170 -8 -30 -19 -62 -24 -72 -17 -32 -11 -65 31 -166 180 -433 458 -843 809 -1194 299 -300 593 -513 970 -704 134 -68 435 -195 504 -212 26 -6 28 -5 22 12 -29 72 -45 281 -31 414 6 62 38 252 48 295 3 11 11 43 18 70 33 136 103 372 121 406 10 20 18 24 33 18 34 -13 53 -10 79 13 56 51 69 59 94 56 15 -2 32 3 38 12 10 12 14 12 28 1 14 -12 16 -12 10 2 -5 13 1 15 37 12 25 -3 47 -11 52 -21 8 -14 10 -14 26 0 20 18 56 23 89 12 12 -4 22 -4 22 1 0 15 74 5 86 -12 7 -9 18 -18 26 -19 7 -1 23 -7 35 -14 22 -12 77 -23 123 -26 20 -1 24 -6 23 -23 -2 -15 2 -21 10 -17 7 2 30 -17 52 -43 67 -83 186 -161 315 -208 41 -15 84 -29 95 -31 19 -4 30 -6 100 -20 150 -29 467 -20 670 20 11 2 40 7 65 12 25 4 47 8 50 9 3 0 28 4 55 9 28 4 102 21 165 37 121 32 124 32 210 50 30 6 60 15 65 19 6 5 26 9 45 11 19 2 40 5 45 8 6 3 15 6 20 8 6 1 24 6 42 11 17 6 34 8 37 4 3 -3 6 1 6 8 0 7 3 11 6 8 3 -4 20 -2 37 4 18 5 48 14 67 19 40 11 49 14 70 21 8 3 51 16 95 28 44 12 89 26 100 31 19 7 61 21 78 25 4 1 8 2 10 3 1 2 13 4 26 7 14 2 30 9 38 15 7 6 13 9 13 6 0 -3 33 6 73 19 39 14 79 27 87 29 8 2 16 4 18 5 1 2 5 3 10 4 4 1 12 4 18 8 6 4 22 9 36 12 14 2 39 11 54 19 16 8 55 22 87 31 32 9 70 22 85 28 15 6 32 12 37 13 8 3 102 37 245 90 42 15 106 114 229 355 404 791 511 1710 300 2590 -36 149 -40 160 -64 136 -40 -40 -167 -126 -246 -167 -83 -44 -229 -113 -239 -114 -5 -1 -129 -46 -190 -70 -19 -8 -98 -33 -175 -56 -77 -23 -146 -44 -154 -47 -9 -3 -12 -1 -7 6 3 6 2 13 -4 17 -6 4 -8 10 -5 14 10 18 -25 45 -76 58 -34 8 -62 23 -74 38 -12 14 -26 25 -33 25 -7 0 -12 10 -13 23 0 12 -3 16 -6 10 -2 -7 -9 -13 -14 -13 -6 0 -8 4 -5 9 4 5 1 11 -6 13 -12 4 -20 30 -19 64 0 14 -11 26 -35 37 -19 10 -32 21 -29 27 3 5 -3 18 -15 30 -11 11 -20 24 -20 29 0 5 -6 11 -14 14 -9 4 -13 25 -13 71 0 38 -6 72 -13 81 -7 8 -10 15 -6 15 3 0 -5 18 -19 40 -29 47 -31 60 -8 60 12 0 14 3 6 11 -8 8 -6 29 8 77 26 91 26 270 0 367 -38 145 -99 274 -190 408 -25 37 -50 76 -56 85 -5 9 -12 19 -15 22 -3 3 -41 47 -83 97 -99 118 -521 540 -467 468 14 -20 14 -20 -7 -1 -13 10 -20 23 -16 29 3 5 2 7 -4 4 -5 -3 -40 23 -77 58 -37 35 -70 65 -74 67 -4 2 -6 7 -4 11 1 5 -1 6 -6 3 -12 -7 -64 48 -55 59 5 4 2 5 -5 1 -8 -5 -36 12 -75 46 -34 30 -102 87 -152 128 -49 40 -89 77 -87 82 1 5 -1 7 -5 5 -12 -7 -84 49 -75 57 4 4 2 6 -4 4 -15 -4 -105 67 -96 77 4 5 2 6 -3 2 -13 -7 -87 48 -77 57 4 4 2 6 -4 4 -16 -4 -325 228 -316 237 4 5 2 5 -4 2 -6 -4 -31 8 -54 26 -42 30 -48 32 -144 33 -56 1 -162 -2 -236 -6z m1798 -3353 c5 -44 -21 -66 -74 -63 -24 1 -44 -1 -44 -5 0 -15 35 -25 78 -24 38 1 42 -1 42 -22 0 -15 -6 -23 -17 -23 -17 -1 -17 -1 0 -14 9 -7 17 -23 17 -34 0 -28 -17 -31 -147 -28 -77 2 -110 0 -107 -8 3 -7 47 -10 130 -9 92 1 124 -1 121 -10 -2 -7 -28 -14 -58 -17 -47 -4 -51 -7 -34 -17 14 -8 25 -8 39 -1 15 8 21 8 24 -1 2 -6 10 -11 18 -11 8 0 14 -5 14 -11 0 -5 -6 -7 -12 -3 -10 6 -10 4 0 -7 7 -8 12 -41 12 -83 0 -71 0 -71 -19 -47 -12 16 -20 20 -25 12 -4 -6 -12 -9 -17 -6 -20 13 -53 14 -61 2 -6 -9 -10 -9 -16 1 -5 7 -16 10 -24 7 -9 -4 -19 -1 -23 5 -5 8 -11 8 -21 -1 -8 -6 -21 -8 -31 -4 -10 5 -24 7 -32 6 -7 -1 -11 4 -9 11 3 7 10 13 16 13 5 0 14 4 19 8 4 5 3 8 -2 7 -38 -8 -48 31 -19 75 13 20 23 23 70 22 65 -1 94 17 31 20 -124 6 -112 0 -114 49 l-1 44 36 -1 c20 -1 45 1 55 5 9 5 17 4 17 -1 0 -5 17 -7 38 -4 l37 4 -50 16 c-34 11 -53 13 -58 6 -6 -7 -10 -6 -14 3 -6 14 -43 16 -43 2 0 -5 -4 -10 -9 -10 -6 0 -9 12 -8 28 3 29 2 29 110 31 45 1 47 24 3 29 -22 3 -27 8 -23 23 5 17 -3 22 -29 18 -4 0 -10 4 -13 9 -7 11 -51 -3 -51 -16 0 -5 11 -7 25 -4 19 3 25 0 25 -13 0 -10 -5 -15 -13 -12 -35 13 -50 -32 -72 -227 -3 -33 -8 -63 -11 -67 -2 -4 -6 -29 -9 -56 -3 -26 -16 -109 -30 -183 -24 -127 -30 -161 -33 -202 -1 -11 -10 -18 -22 -18 -18 0 -20 -5 -18 -45 2 -25 7 -45 11 -45 11 0 -3 -153 -20 -213 -4 -16 -20 -18 -191 -17 -154 1 -190 4 -204 17 -12 10 -15 21 -9 32 5 9 7 54 5 101 -4 101 2 140 22 140 13 0 13 3 0 22 -19 27 -21 69 -4 86 9 9 8 12 -5 12 -13 0 -15 6 -11 29 6 29 -18 91 -36 91 -12 0 -12 -3 0 -34 6 -18 6 -26 -1 -26 -6 0 -8 -9 -4 -21 11 -35 13 -69 3 -75 -4 -3 -6 -10 -2 -15 3 -5 0 -16 -6 -24 -6 -8 -8 -20 -4 -26 10 -17 16 -199 6 -199 -7 0 -69 378 -79 475 -1 17 -7 52 -13 80 -6 27 -13 70 -16 95 -9 74 -12 93 -22 145 -5 28 -10 57 -10 65 0 8 -5 39 -11 69 -6 29 -11 67 -11 82 l0 29 80 0 c65 0 81 -3 89 -17 10 -17 10 -17 11 0 0 16 8 18 63 15 54 -3 62 -6 63 -23 8 -102 14 -149 22 -157 5 -5 35 -8 67 -6 l57 3 4 40 c2 22 6 51 8 65 1 14 4 37 4 52 l2 27 158 4 c86 1 216 3 287 2 l130 0 3 -28z m-3337 -39 c30 -35 60 -67 67 -71 10 -7 12 -51 10 -198 l-3 -189 -31 0 c-17 0 -56 5 -85 11 -30 6 -76 12 -103 15 -27 2 -51 6 -54 9 -3 2 -5 53 -6 112 l-1 108 -47 3 -48 3 -1 -193 c0 -106 -1 -238 -3 -293 -4 -145 -3 -147 53 -143 l46 3 0 98 0 98 65 -6 c36 -3 99 -11 140 -18 l75 -13 0 -136 c0 -130 -1 -138 -24 -162 -13 -14 -28 -23 -32 -20 -4 2 -14 -6 -21 -19 -7 -14 -27 -36 -45 -51 l-31 -26 -188 2 -188 3 -63 75 -63 75 0 414 c0 472 -6 439 93 525 l52 46 192 0 191 0 53 -62z m298 45 c10 -17 10 -17 11 0 0 16 8 18 63 15 54 -3 62 -6 63 -23 8 -102 14 -149 22 -157 5 -5 35 -8 67 -6 l57 3 4 40 c2 22 6 51 8 65 1 14 4 37 4 53 l2 27 295 0 295 0 0 -35 c0 -34 -1 -35 -35 -30 -32 4 -35 2 -45 -33 -13 -47 -13 -72 0 -72 6 0 10 11 10 25 0 18 7 26 25 31 14 3 25 10 25 15 0 5 5 9 10 9 6 0 10 -13 10 -30 0 -27 -16 -45 -45 -50 -5 -1 -9 -8 -7 -17 3 -11 -1 -14 -14 -9 -14 5 -15 4 -4 -9 11 -14 14 -13 27 5 19 27 45 26 43 -2 -1 -13 -2 -51 -1 -85 l1 -63 114 0 114 0 77 -73 76 -73 1 -252 1 -252 -71 -70 -72 -71 -251 -1 c-201 0 -253 3 -260 13 -14 23 -11 729 3 729 9 0 9 3 0 12 -8 8 -12 64 -13 183 l-1 170 -14 -80 c-17 -96 -20 -112 -29 -189 -3 -33 -8 -63 -11 -67 -2 -4 -6 -29 -9 -56 -3 -26 -16 -109 -30 -183 -24 -127 -30 -161 -33 -202 -1 -11 -10 -18 -22 -18 -18 0 -20 -5 -18 -45 2 -25 7 -45 11 -45 11 0 -3 -153 -20 -213 -4 -16 -20 -18 -191 -17 -154 1 -190 4 -204 17 -12 10 -15 21 -9 32 5 9 7 54 5 101 -4 101 2 140 22 140 13 0 13 3 0 22 -19 27 -21 69 -4 86 9 9 8 12 -5 12 -13 0 -15 6 -11 29 6 29 -18 91 -36 91 -12 0 -12 -3 0 -34 6 -18 6 -26 -1 -26 -6 0 -8 -9 -4 -21 11 -35 13 -69 3 -75 -4 -3 -6 -10 -2 -15 3 -5 0 -16 -6 -24 -6 -8 -8 -20 -4 -26 10 -17 16 -199 6 -199 -7 0 -69 378 -79 475 -1 17 -7 52 -13 80 -6 27 -13 70 -16 95 -9 74 -12 93 -22 145 -5 28 -10 57 -10 65 0 8 -5 39 -11 69 -6 29 -11 67 -11 82 l0 29 80 0 c65 0 81 -3 89 -17z m1642 3 c-10 -11 -9 -16 4 -24 11 -6 17 -23 18 -48 0 -21 7 -47 16 -57 12 -15 13 -20 2 -26 -10 -6 -10 -13 -2 -29 8 -15 7 -23 -4 -32 -9 -7 -13 -29 -12 -66 2 -31 -2 -54 -8 -54 -5 0 -4 -4 4 -9 12 -8 13 -12 1 -26 -10 -12 -10 -19 -2 -27 7 -7 8 -17 2 -28 -5 -9 -5 -22 -1 -29 6 -10 12 -9 25 4 9 9 14 20 11 25 -3 5 -1 12 5 15 7 4 7 11 2 18 -8 10 -11 30 -12 90 -2 46 9 178 15 187 5 9 1 10 -14 5 -27 -8 -27 2 0 24 17 14 19 21 10 44 -7 18 -7 27 0 27 6 0 8 4 4 9 -6 11 13 26 22 17 3 -3 0 -12 -6 -20 -9 -10 -9 -16 -1 -21 6 -4 9 -13 6 -21 -3 -8 -1 -14 4 -14 6 0 10 15 10 34 0 19 5 38 10 41 6 3 11 3 11 -2 3 -17 8 -449 9 -640 l0 -202 78 -3 77 -3 3 -142 3 -143 -303 3 -303 2 0 140 0 140 80 5 80 5 0 422 0 423 84 0 c71 0 82 -2 72 -14z m1676 -236 c2 -135 0 -252 -3 -260 -5 -13 -8 -84 -4 -107 0 -5 15 39 33 97 18 58 49 150 70 205 20 55 54 147 75 205 l39 105 159 3 159 2 -2 -255 c-1 -140 -5 -261 -9 -267 -4 -7 -3 -13 2 -15 5 -2 8 -45 8 -96 -1 -50 -2 -185 -3 -298 l-1 -207 -121 -1 -121 -2 4 320 c3 315 3 319 -14 253 -15 -60 -140 -424 -183 -530 l-17 -42 -157 2 -156 3 -2 568 -3 568 123 -3 122 -3 2 -245z m-367 -252 c15 -9 24 -9 43 1 30 16 47 8 47 -23 0 -22 -4 -23 -70 -23 -77 -1 -91 8 -64 38 20 22 19 22 44 7z m-72 -34 c3 -19 -1 -20 -55 -16 -67 5 -70 7 -54 26 8 10 28 14 59 13 39 -2 47 -5 50 -23z m-90 -56 c10 -10 17 -10 31 -1 20 12 57 7 79 -10 24 -19 -13 -37 -51 -26 -20 5 -35 5 -41 -1 -6 -6 -18 -10 -28 -10 -13 0 -18 8 -18 30 0 32 9 37 28 18z m187 1 c6 0 21 2 35 3 32 4 40 -27 9 -35 -12 -3 -27 -3 -33 1 -6 3 -23 5 -38 3 -23 -2 -28 1 -28 19 0 19 4 21 23 15 12 -3 27 -6 32 -6z m-190 -89 c3 -5 12 -7 20 -4 8 3 28 -1 45 -9 25 -13 30 -13 30 -1 0 8 5 14 10 14 6 0 10 -5 10 -11 0 -6 8 -8 19 -4 11 3 23 1 26 -6 6 -8 9 -8 15 1 5 7 20 9 44 5 40 -8 49 -25 14 -26 l-23 0 23 -9 c16 -7 22 -18 22 -38 0 -39 -31 -66 -68 -59 -26 5 -52 -6 -52 -22 0 -4 25 -6 57 -6 l56 0 1 -44 c1 -34 -3 -45 -16 -47 -9 -1 -22 4 -29 12 -10 12 -14 11 -27 -7 -9 -13 -18 -17 -24 -11 -5 5 -21 7 -35 4 -25 -5 -25 -5 12 -23 29 -14 41 -16 46 -7 6 9 11 9 22 0 12 -10 18 -9 31 3 9 9 16 15 17 13 13 -57 2 -67 -74 -63 -34 2 -64 0 -67 -4 -3 -3 -33 -5 -67 -3 -58 4 -63 5 -63 27 0 13 4 27 10 30 6 4 5 19 -5 41 -13 33 -13 34 7 34 21 0 21 0 2 15 -16 13 -17 16 -4 25 8 5 20 8 27 6 6 -3 24 -1 40 4 l28 8 -30 1 c-42 2 -75 12 -75 23 0 5 5 6 11 2 8 -5 8 -1 0 14 -13 25 -15 132 -2 132 6 0 12 -4 16 -10z m130 -375 c24 0 30 -5 28 -21 -2 -20 1 -21 62 -26 19 -2 30 -9 30 -18 0 -13 -22 -15 -135 -15 l-135 0 -3 33 c-2 17 -2 32 0 32 2 0 21 7 43 15 22 8 49 11 60 7 11 -3 34 -6 50 -7z m122 -19 c-5 -17 -47 -20 -47 -3 0 20 9 26 31 20 11 -3 18 -11 16 -17z"/>
 <path d="M5425 4400 c-3 -5 3 -10 15 -10 12 0 18 5 15 10 -3 6 -10 10 -15 10 -5 0 -12 -4 -15 -10z"/>
 <path d="M5368 4093 c-19 -3 -28 -10 -28 -23 0 -18 1 -18 30 -2 16 9 30 20 30 25 0 4 -1 6 -2 6 -2 -1 -15 -4 -30 -6z"/>
 <path d="M4881 3947 c4 -24 11 -70 14 -103 4 -32 9 -70 11 -84 6 -49 13 -105 14 -130 2 -21 3 -19 11 10 4 19 11 58 14 85 3 28 8 61 9 75 2 14 7 50 10 80 3 30 9 67 12 83 6 27 5 27 -49 27 l-54 0 8 -43z"/>
 <path d="M4710 3925 c0 -9 6 -12 15 -9 8 4 15 10 15 15 0 5 -7 9 -15 9 -8 0 -15 -7 -15 -15z"/>
 <path d="M2230 3702 c0 -10 22 -32 32 -32 4 0 5 6 2 14 -6 16 -34 30 -34 18z"/>
 <path d="M2112 3691 c-10 -6 -8 -10 9 -14 26 -7 34 -3 24 12 -7 13 -15 14 -33 2z"/>
 <path d="M1780 3661 c0 -6 9 -9 20 -8 11 1 20 5 20 9 0 4 -9 8 -20 8 -11 0 -20 -4 -20 -9z"/>
 <path d="M1900 3400 c0 -6 -8 -10 -17 -9 -10 1 -25 1 -33 0 -13 -1 -13 -3 0 -10 17 -10 70 -3 70 10 0 4 -4 11 -10 14 -5 3 -10 1 -10 -5z"/>
 <path d="M1978 3378 c9 -9 15 -9 24 0 9 9 7 12 -12 12 -19 0 -21 -3 -12 -12z"/>
 <path d="M3228 4349 c-10 -5 -18 -15 -18 -21 0 -7 5 -7 14 1 17 14 29 0 20 -23 -5 -13 -9 -14 -20 -5 -11 9 -14 7 -14 -9 0 -11 -7 -22 -15 -26 -27 -10 -17 -35 13 -32 19 1 26 7 24 19 -3 20 14 23 21 5 5 -13 11 25 8 50 -2 15 16 16 21 0 3 -9 6 -9 12 0 4 7 2 12 -3 12 -6 0 -11 9 -11 20 0 22 -24 26 -52 9z"/>
 <path d="M3277 4153 c-3 -5 1 -19 9 -33 7 -14 13 -19 14 -12 0 6 10 12 23 13 14 0 17 2 7 6 -8 3 -22 12 -32 20 -9 8 -18 11 -21 6z"/>
 <path d="M3436 4002 c-7 -12 22 -38 31 -28 4 3 0 14 -9 22 -9 10 -18 12 -22 6z"/>
 <path d="M2721 3947 c4 -24 11 -70 14 -103 4 -32 9 -70 11 -84 6 -49 13 -105 14 -130 2 -21 3 -19 11 10 4 19 11 58 14 85 3 28 8 61 9 75 2 14 7 50 10 80 3 30 9 67 12 83 6 27 5 27 -49 27 l-54 0 8 -43z"/>
 <path d="M2550 3925 c0 -9 6 -12 15 -9 8 4 15 10 15 15 0 5 -7 9 -15 9 -8 0 -15 -7 -15 -15z"/>
 <path d="M3440 3690 l0 -140 44 0 c24 0 51 3 60 6 17 7 22 34 6 34 -6 0 -10 47 -10 120 l0 120 -50 0 -50 0 0 -140z"/>
 <path d="M4278 4289 c2 -16 8 -29 12 -29 9 0 1 48 -9 55 -4 2 -5 -9 -3 -26z"/>
 <path d="M4280 4204 c0 -14 4 -23 9 -20 5 3 7 15 4 26 -7 28 -13 25 -13 -6z"/>
 <path d="M6190 4183 c0 -13 0 -26 -1 -30 0 -4 4 -9 10 -11 14 -5 14 28 1 48 -8 12 -10 11 -10 -7z"/>
 <path d="M6250 4104 c0 -14 3 -14 15 -4 8 7 15 14 15 16 0 2 -7 4 -15 4 -8 0 -15 -7 -15 -16z"/>
 <path d="M5766 3921 c-7 -10 23 -20 42 -14 6 3 12 9 12 14 0 12 -47 12 -54 0z"/>
 <path d="M6220 3917 l-25 -11 28 -4 c32 -4 46 4 31 17 -5 5 -20 4 -34 -2z"/>
 <path d="M5776 3494 c-4 -10 -1 -21 6 -25 16 -10 25 18 10 33 -6 6 -12 3 -16 -8z"/>
 <path d="M5525 3670 l-30 -20 25 0 c32 0 51 12 42 27 -6 9 -16 7 -37 -7z"/>
 <path d="M5423 3546 c4 -12 35 -17 42 -6 3 5 18 3 34 -3 15 -5 35 -7 45 -4 34 13 13 22 -54 22 -38 0 -69 -4 -67 -9z"/>
 </g>

</svg>